<svg version="1.1" xmlns="http://www.w3.org/2000/svg" viewBox="0 0 847.6978131493174 1417.1880384529734" width="1695.3956262986349" height="2834.376076905947">
  <!-- svg-source:excalidraw -->
  
  <defs>
    <style class="style-fonts">
      @font-face {
        font-family: "Virgil";
        src: url("https://unpkg.com/@excalidraw/excalidraw@0.14.2/dist/excalidraw-assets/Virgil.woff2");
      }
      @font-face {
        font-family: "Cascadia";
        src: url("https://unpkg.com/@excalidraw/excalidraw@0.14.2/dist/excalidraw-assets/Cascadia.woff2");
      }
    </style>
  </defs>
  <rect x="0" y="0" width="847.6978131493174" height="1417.1880384529734" fill="#ffffff"></rect><g stroke-linecap="round" transform="translate(21.061770164751977 800.9341322029734) rotate(0 331.11328124999994 303.126953125)"><path d="M32 0 M32 0 C219.52 1.2, 406.33 0.87, 630.23 0 M32 0 C153.91 -0.22, 276.47 -0.5, 630.23 0 M630.23 0 C651.73 -1.53, 660.58 11.27, 662.23 32 M630.23 0 C652.34 1.9, 662.86 9.03, 662.23 32 M662.23 32 C662.86 198.14, 662.49 362.39, 662.23 574.25 M662.23 32 C663.97 151.02, 663.39 269.92, 662.23 574.25 M662.23 574.25 C662.96 596.01, 651.72 607.74, 630.23 606.25 M662.23 574.25 C662.07 595.81, 650.01 606.58, 630.23 606.25 M630.23 606.25 C489.57 607.9, 347.12 608.28, 32 606.25 M630.23 606.25 C411.49 604.1, 192.67 604.42, 32 606.25 M32 606.25 C9.23 605.92, -0.18 594.51, 0 574.25 M32 606.25 C12.36 604.71, 0.71 593.85, 0 574.25 M0 574.25 C-0.7 401.74, -1.45 230.43, 0 32 M0 574.25 C1.85 366.54, 1.25 157.97, 0 32 M0 32 C-0.85 9.41, 9.34 -1.67, 32 0 M0 32 C0.34 12.6, 10.99 1.66, 32 0" stroke="#000000" stroke-width="1" fill="none"></path></g><g stroke-linecap="round" transform="translate(145.68312486771032 845.4222298479358) rotate(0 194.939453125 73.04296875)"><path d="M7.86 8.16 C7.86 8.16, 7.86 8.16, 7.86 8.16 M7.86 8.16 C7.86 8.16, 7.86 8.16, 7.86 8.16 M3.66 19.09 C8.55 15.23, 9.42 9.65, 18.1 2.48 M3.66 19.09 C9.24 13.46, 15.13 5.62, 18.1 2.48 M2.75 26.24 C5.93 19.63, 11.96 17.92, 24.4 1.33 M2.75 26.24 C9.47 18.19, 16.47 11.55, 24.4 1.33 M2.48 32.64 C8.23 23.06, 18.25 15.12, 30.7 0.18 M2.48 32.64 C13.44 20.04, 24.7 7.17, 30.7 0.18 M2.88 38.28 C11.27 30.53, 16.79 23.51, 34.37 2.05 M2.88 38.28 C10.68 30.72, 17.49 21.56, 34.37 2.05 M2.62 44.68 C16.21 30.14, 27.39 13.72, 39.36 2.41 M2.62 44.68 C15.31 29.78, 29.25 14.49, 39.36 2.41 M2.36 51.07 C18.03 33.03, 31.2 17.56, 45 2.02 M2.36 51.07 C13.23 37.34, 25.36 23.17, 45 2.02 M2.75 56.72 C12.88 46.4, 23.09 34.46, 49.99 2.38 M2.75 56.72 C14.86 43.82, 28.44 29.49, 49.99 2.38 M2.49 63.11 C16.47 47.03, 30.01 32.95, 55.63 1.98 M2.49 63.11 C15.96 45.84, 31.72 28.55, 55.63 1.98 M2.88 68.76 C14.99 54.26, 29.8 37.35, 60.62 2.34 M2.88 68.76 C15.17 56.53, 25.39 42.09, 60.62 2.34 M2.62 75.16 C16.13 59.04, 27.54 45.65, 66.26 1.95 M2.62 75.16 C23.69 51.23, 45.09 26.42, 66.26 1.95 M2.36 81.55 C16.93 62.24, 34.68 46.63, 71.25 2.31 M2.36 81.55 C25.08 53.5, 48.87 26.51, 71.25 2.31 M2.76 87.2 C28.1 57.18, 55.28 24.72, 76.89 1.91 M2.76 87.2 C23.3 64.62, 41.6 42.72, 76.89 1.91 M2.49 93.59 C28.12 66.88, 49.86 38.82, 81.88 2.27 M2.49 93.59 C19.77 74.99, 35.04 56.86, 81.88 2.27 M2.89 99.24 C24.29 76.14, 43.83 50.71, 87.52 1.88 M2.89 99.24 C35.74 64.2, 67.26 27.36, 87.52 1.88 M2.63 105.64 C36.22 67.19, 65.64 30.45, 92.51 2.24 M2.63 105.64 C34.53 69.74, 66.48 32.75, 92.51 2.24 M2.37 112.03 C32.94 72.9, 68.51 35.48, 98.15 1.85 M2.37 112.03 C30.01 78.52, 58.4 44.27, 98.15 1.85 M2.76 117.68 C41.75 72.77, 80.58 29.06, 103.14 2.21 M2.76 117.68 C34.55 81.15, 65.37 44.36, 103.14 2.21 M3.16 123.32 C32.32 91.67, 61.5 57.98, 108.78 1.81 M3.16 123.32 C40.74 78.51, 79.59 34.54, 108.78 1.81 M4.21 128.21 C47.23 80.03, 88.75 30.98, 113.77 2.17 M4.21 128.21 C33.77 94.53, 61.17 62.07, 113.77 2.17 M4.6 133.85 C50.86 81.88, 94.78 29.98, 119.41 1.78 M4.6 133.85 C51.41 81.57, 95.84 28.64, 119.41 1.78 M6.96 137.23 C32.11 105.61, 62.42 73.98, 124.4 2.14 M6.96 137.23 C47.33 93.97, 86.32 48.26, 124.4 2.14 M9.98 139.85 C38.45 110.08, 62.84 81.28, 130.04 1.74 M9.98 139.85 C49.11 93.9, 87.75 51.09, 130.04 1.74 M13.66 141.72 C43.43 110.37, 70.88 74.92, 135.03 2.1 M13.66 141.72 C49.08 101.41, 85.28 60.76, 135.03 2.1 M16.68 144.35 C44.13 111.01, 70.86 81.91, 140.67 1.71 M16.68 144.35 C63.31 90.19, 110.57 36.74, 140.67 1.71 M20.35 146.22 C64.84 95.28, 109.22 43.07, 145.66 2.07 M20.35 146.22 C59.42 104.69, 95.89 61.23, 145.66 2.07 M25.34 146.58 C72.5 93.24, 122.08 36.93, 150.65 2.43 M25.34 146.58 C63.06 104.38, 99.12 60.88, 150.65 2.43 M29.67 147.69 C79.67 88.93, 131.24 31.78, 156.29 2.03 M29.67 147.69 C70.46 101.5, 109.93 54.65, 156.29 2.03 M34.66 148.05 C72.99 103.99, 108.95 62.27, 161.28 2.39 M34.66 148.05 C75.84 101.07, 116.79 51.85, 161.28 2.39 M39.64 148.41 C67.43 116.33, 95 85.85, 166.92 2 M39.64 148.41 C79.58 103.13, 120.82 57.13, 166.92 2 M45.29 148.02 C72.3 116.77, 99.59 84.01, 171.91 2.36 M45.29 148.02 C72.03 117.08, 97.41 88.17, 171.91 2.36 M50.27 148.38 C90.33 104.34, 125.4 63.37, 177.55 1.96 M50.27 148.38 C82.91 110.54, 115.43 71.66, 177.55 1.96 M55.92 147.98 C86.3 113.37, 114.66 77.63, 182.54 2.32 M55.92 147.98 C104.88 92.89, 154.29 35.93, 182.54 2.32 M60.9 148.34 C86.39 116.28, 116.22 88.03, 188.18 1.93 M60.9 148.34 C101.54 101.18, 142.74 52.72, 188.18 1.93 M66.55 147.95 C107.26 101.78, 146.02 55.14, 193.17 2.29 M66.55 147.95 C91.98 118.68, 118.83 88.15, 193.17 2.29 M71.53 148.31 C115.32 101.72, 156.47 52.11, 198.81 1.9 M71.53 148.31 C107.43 106.82, 144.9 64.47, 198.81 1.9 M77.18 147.91 C107.28 116.14, 131.26 85.58, 203.8 2.26 M77.18 147.91 C119.01 99.79, 160.51 50.2, 203.8 2.26 M82.16 148.27 C120.6 103.92, 161.03 57.83, 209.44 1.86 M82.16 148.27 C123.58 98.93, 165.33 50.71, 209.44 1.86 M87.81 147.88 C114.79 112.88, 143.59 82.62, 214.43 2.22 M87.81 147.88 C125.26 103.42, 164.52 58.08, 214.43 2.22 M92.79 148.24 C119 116.51, 148.97 82.36, 220.07 1.83 M92.79 148.24 C124.15 113.45, 153.19 78.84, 220.07 1.83 M97.78 148.6 C145.59 93.59, 189.77 39.68, 225.06 2.19 M97.78 148.6 C124.28 118.93, 149.16 89.48, 225.06 2.19 M103.42 148.21 C130.71 116.25, 158.76 81.13, 230.7 1.79 M103.42 148.21 C153.03 91.07, 201.06 35.73, 230.7 1.79 M108.41 148.57 C139.49 114.86, 168.36 78.14, 235.69 2.15 M108.41 148.57 C157.09 95.24, 203.29 40.89, 235.69 2.15 M114.05 148.17 C149.16 107.91, 184.59 65.99, 241.33 1.76 M114.05 148.17 C159.3 96.09, 206.31 43.47, 241.33 1.76 M119.04 148.53 C165.24 94.75, 209.86 43.65, 246.32 2.12 M119.04 148.53 C154.42 108.51, 190.94 67.61, 246.32 2.12 M124.68 148.14 C151.62 117.4, 179.02 90.37, 251.96 1.72 M124.68 148.14 C172.52 95.56, 218.57 41.65, 251.96 1.72 M129.67 148.5 C155.06 120.36, 180.01 91.32, 256.95 2.08 M129.67 148.5 C168.58 105.26, 207.43 62.35, 256.95 2.08 M135.31 148.1 C171.83 102.08, 209.97 59.72, 262.59 1.69 M135.31 148.1 C186.12 89.71, 235.28 32.85, 262.59 1.69 M140.3 148.46 C192.05 92.11, 243.43 31.62, 267.58 2.05 M140.3 148.46 C178.03 104.14, 216.02 59.67, 267.58 2.05 M145.94 148.07 C181.41 106.85, 214.63 66.19, 272.56 2.41 M145.94 148.07 C176.95 114.52, 205.06 79.38, 272.56 2.41 M150.93 148.43 C193.07 100.24, 233 54.35, 278.21 2.01 M150.93 148.43 C185.45 111.34, 218.3 71.57, 278.21 2.01 M156.57 148.03 C194.04 104.55, 227.67 61.87, 283.19 2.37 M156.57 148.03 C192.93 103.87, 231.8 59.68, 283.19 2.37 M161.56 148.39 C195.34 108.88, 228.47 70.52, 288.84 1.98 M161.56 148.39 C193.11 111.28, 225.6 74.21, 288.84 1.98 M167.2 148 C213.63 92.67, 263.94 40.57, 293.82 2.34 M167.2 148 C216.19 90.75, 264.27 34.17, 293.82 2.34 M172.19 148.36 C213.91 103.38, 253.22 55.47, 299.47 1.94 M172.19 148.36 C206.07 108.67, 238.67 69.19, 299.47 1.94 M177.83 147.96 C226.69 92.43, 275.7 39.85, 304.45 2.3 M177.83 147.96 C217.43 102.14, 257.4 57.46, 304.45 2.3 M182.82 148.32 C220.55 105.59, 257.09 64.05, 310.1 1.91 M182.82 148.32 C229.88 92.1, 276.91 37.91, 310.1 1.91 M188.46 147.93 C216.97 117.27, 244.41 84.71, 315.08 2.27 M188.46 147.93 C224.23 108.07, 259.1 69.52, 315.08 2.27 M193.45 148.29 C233.47 100.9, 274.57 53.91, 320.73 1.88 M193.45 148.29 C239.42 96.61, 286.24 42.69, 320.73 1.88 M199.09 147.89 C232.46 109.16, 262.3 73.58, 325.71 2.24 M199.09 147.89 C235.88 104.94, 273.03 62.36, 325.71 2.24 M204.08 148.25 C246.27 100.65, 289.28 51.69, 331.36 1.84 M204.08 148.25 C246.63 98.24, 291.23 49.44, 331.36 1.84 M209.07 148.62 C243.01 109.86, 279.66 67.02, 336.34 2.2 M209.07 148.62 C256.43 90.91, 305.25 36.01, 336.34 2.2 M214.71 148.22 C259.67 94.47, 304.66 42.81, 341.99 1.81 M214.71 148.22 C249.26 106.91, 284.94 67.17, 341.99 1.81 M219.7 148.58 C262.85 98.94, 307.89 50.04, 346.97 2.17 M219.7 148.58 C265.92 95.26, 313.15 42.17, 346.97 2.17 M225.34 148.19 C254.84 117.95, 282.39 85.72, 352.62 1.77 M225.34 148.19 C259.45 106.25, 296.94 64.48, 352.62 1.77 M230.33 148.55 C274.13 98.24, 317.79 45.21, 358.92 0.62 M230.33 148.55 C264.15 109.83, 299.65 71.27, 358.92 0.62 M235.97 148.15 C264.87 115.48, 295.68 81.6, 363.25 1.74 M235.97 148.15 C283.19 96.71, 327.31 44, 363.25 1.74 M240.96 148.51 C271.25 113.87, 298.41 80.79, 368.23 2.1 M240.96 148.51 C280.47 104.07, 320.47 58.49, 368.23 2.1 M246.6 148.12 C287.54 100.99, 326.34 57.97, 372.57 3.21 M246.6 148.12 C297.13 91.42, 346.95 34.77, 372.57 3.21 M251.59 148.48 C300.72 93.1, 347.46 36.8, 376.24 5.08 M251.59 148.48 C293.71 102.92, 334.58 56.11, 376.24 5.08 M257.23 148.08 C293.28 108.35, 328.37 67.73, 379.91 6.95 M257.23 148.08 C284.74 116.94, 311.33 87.23, 379.91 6.95 M262.22 148.44 C292.61 112.67, 323.52 75.65, 382.93 9.58 M262.22 148.44 C304.25 101.05, 347.07 53.71, 382.93 9.58 M267.86 148.05 C307.22 101.07, 348.08 53.28, 385.3 12.95 M267.86 148.05 C304.19 104.52, 340.87 63.16, 385.3 12.95 M272.85 148.41 C308.02 105.82, 344.33 64.49, 387 17.09 M272.85 148.41 C297.55 122.42, 319.67 94.15, 387 17.09 M278.49 148.01 C301.48 119.08, 326.64 93.65, 388.71 21.22 M278.49 148.01 C313.45 108.08, 347.84 67.61, 388.71 21.22 M283.48 148.37 C315.55 109.44, 349.75 73.22, 390.42 25.36 M283.48 148.37 C319.47 107.95, 355.9 65.29, 390.42 25.36 M289.12 147.98 C328.85 101.66, 368.25 56.26, 390.16 31.75 M289.12 147.98 C323.18 110.52, 353.97 74.58, 390.16 31.75 M294.11 148.34 C329.24 105.72, 369.33 61.33, 390.55 37.4 M294.11 148.34 C331.56 104.63, 370.11 59.97, 390.55 37.4 M299.75 147.94 C325.34 119.77, 348.63 88.93, 390.29 43.79 M299.75 147.94 C331.58 109.55, 363.13 72.12, 390.29 43.79 M304.74 148.3 C323.56 126.78, 338.31 108.81, 390.68 49.44 M304.74 148.3 C322.76 125.49, 341.77 104.52, 390.68 49.44 M310.38 147.91 C331.13 122.45, 353.12 101.18, 390.42 55.84 M310.38 147.91 C337.97 115.59, 364.97 83.59, 390.42 55.84 M315.37 148.27 C330.98 129.91, 346.6 112.37, 390.82 61.48 M315.37 148.27 C334.34 127.03, 352.95 104.63, 390.82 61.48 M321.01 147.88 C336.93 126.93, 356.14 107.32, 390.55 67.88 M321.01 147.88 C341.89 122.61, 364.42 97.35, 390.55 67.88 M326 148.24 C346.3 122.11, 368.67 96.55, 390.95 73.52 M326 148.24 C349.19 121.37, 370.84 94.89, 390.95 73.52 M330.99 148.6 C351.03 125.3, 371.94 104.43, 390.69 79.92 M330.99 148.6 C353.09 122.01, 374.92 96.05, 390.69 79.92 M336.63 148.2 C355.69 125.64, 371.27 105.1, 390.43 86.31 M336.63 148.2 C357.2 125.66, 376.75 102.78, 390.43 86.31 M341.62 148.56 C355.11 133.92, 370.38 113.96, 390.82 91.96 M341.62 148.56 C360.74 127.3, 379.82 105.09, 390.82 91.96 M347.26 148.17 C358.68 135.2, 369.92 123.43, 390.56 98.36 M347.26 148.17 C362.86 129.95, 379.39 111.56, 390.56 98.36 M352.25 148.53 C365.01 133.48, 375.26 118.72, 390.95 104 M352.25 148.53 C362.68 136.8, 371.79 126.25, 390.95 104 M359.2 146.62 C366.9 136.65, 376.73 126.78, 390.69 110.4 M359.2 146.62 C371.54 131.93, 383.75 117.24, 390.69 110.4 M364.84 146.23 C374.7 136.71, 380.04 128.13, 391.74 115.29 M364.84 146.23 C371.63 139.59, 378.22 132.58, 391.74 115.29 M371.8 144.32 C375.94 141.12, 379.53 135.18, 390.17 123.19 M371.8 144.32 C377.71 137.39, 383.01 129.73, 390.17 123.19" stroke="#228be6" stroke-width="0.5" fill="none"></path><path d="M32 0 M32 0 C132.28 3.26, 232.74 2.05, 357.88 0 M32 0 C115.8 -2.6, 200.08 -2.05, 357.88 0 M357.88 0 C379.72 -0.99, 390.93 11.47, 389.88 32 M357.88 0 C378.26 0.66, 388.19 8.91, 389.88 32 M389.88 32 C387.74 56.51, 390.19 83.6, 389.88 114.09 M389.88 32 C389.73 50.1, 391.17 68.48, 389.88 114.09 M389.88 114.09 C390.69 134.65, 377.31 144.61, 357.88 146.09 M389.88 114.09 C388.46 135.25, 378.19 145.53, 357.88 146.09 M357.88 146.09 C256.51 142.94, 154.5 144.49, 32 146.09 M357.88 146.09 C262.26 144.55, 165.56 143.68, 32 146.09 M32 146.09 C11.1 146.77, -1.41 135.81, 0 114.09 M32 146.09 C9.1 146.55, -1.54 133.2, 0 114.09 M0 114.09 C-1.54 84.55, -0.96 56.41, 0 32 M0 114.09 C1.18 87.16, -0.2 61.37, 0 32 M0 32 C1.69 12.64, 9.25 1.57, 32 0 M0 32 C1.13 10.21, 12.78 -0.79, 32 0" stroke="#000000" stroke-width="1" fill="none"></path></g><g stroke-linecap="round" transform="translate(144.92726549271032 1237.0823860979358) rotate(0 194.939453125 73.04296875)"><path d="M7.86 8.16 C7.86 8.16, 7.86 8.16, 7.86 8.16 M7.86 8.16 C7.86 8.16, 7.86 8.16, 7.86 8.16 M3.66 19.09 C5.83 14.27, 10.15 8.85, 18.1 2.48 M3.66 19.09 C6.7 16.15, 9.82 12.46, 18.1 2.48 M2.75 26.24 C7.63 21.39, 16.04 14.32, 24.4 1.33 M2.75 26.24 C8.5 19.66, 14.01 14.07, 24.4 1.33 M2.48 32.64 C8.3 22.99, 18.13 13.33, 30.7 0.18 M2.48 32.64 C8.39 25.56, 15.65 17.28, 30.7 0.18 M2.88 38.28 C10.53 32.71, 13.84 23.55, 34.37 2.05 M2.88 38.28 C9.56 30.3, 15.2 23.68, 34.37 2.05 M2.62 44.68 C13.79 30.9, 26.62 15.76, 39.36 2.41 M2.62 44.68 C10.44 34.41, 19.85 25.98, 39.36 2.41 M2.36 51.07 C15.76 32.77, 31 15.99, 45 2.02 M2.36 51.07 C17.06 33.77, 32.65 15.24, 45 2.02 M2.75 56.72 C16.82 42.07, 27.5 28.1, 49.99 2.38 M2.75 56.72 C17.93 40.68, 31.1 24, 49.99 2.38 M2.49 63.11 C14.91 50.03, 23.6 38.91, 55.63 1.98 M2.49 63.11 C15.84 48.48, 28.31 32.66, 55.63 1.98 M2.88 68.76 C26.37 46.1, 47.81 20.25, 60.62 2.34 M2.88 68.76 C24.25 44.31, 43.61 20.59, 60.62 2.34 M2.62 75.16 C25.18 50.43, 48.48 23.18, 66.26 1.95 M2.62 75.16 C23.25 49.26, 46.51 24.24, 66.26 1.95 M2.36 81.55 C21.63 57.91, 41.43 31.94, 71.25 2.31 M2.36 81.55 C29.07 50.69, 55.67 20.57, 71.25 2.31 M2.76 87.2 C27.41 59.66, 48.93 32.23, 76.89 1.91 M2.76 87.2 C23.32 64.69, 43.74 41.12, 76.89 1.91 M2.49 93.59 C29.79 59.92, 59.12 27.63, 81.88 2.27 M2.49 93.59 C33.53 58.84, 63.76 23.44, 81.88 2.27 M2.89 99.24 C26.22 72.99, 46.13 48.2, 87.52 1.88 M2.89 99.24 C36.95 60.86, 69.63 22.58, 87.52 1.88 M2.63 105.64 C40.29 65.8, 73.68 23.74, 92.51 2.24 M2.63 105.64 C22.35 81.34, 44.68 57.27, 92.51 2.24 M2.37 112.03 C36.16 77.42, 68.03 39.07, 98.15 1.85 M2.37 112.03 C24.74 88.4, 44.85 64.9, 98.15 1.85 M2.76 117.68 C35.06 78.16, 67.26 44.38, 103.14 2.21 M2.76 117.68 C27.13 91.36, 50.11 62.99, 103.14 2.21 M3.16 123.32 C33.72 87.23, 66.21 51.85, 108.78 1.81 M3.16 123.32 C25.95 95.55, 48.79 70.11, 108.78 1.81 M4.21 128.21 C44.84 79.84, 87.06 33.1, 113.77 2.17 M4.21 128.21 C43.07 83.46, 81.77 38.37, 113.77 2.17 M4.6 133.85 C41.23 96.65, 73.66 56.32, 119.41 1.78 M4.6 133.85 C48.18 84.23, 93.23 32.77, 119.41 1.78 M6.96 137.23 C42.98 98.16, 75.19 57.09, 124.4 2.14 M6.96 137.23 C53.35 83.53, 100.39 30.51, 124.4 2.14 M9.98 139.85 C49.21 97.02, 85.94 51.89, 130.04 1.74 M9.98 139.85 C45.94 98.49, 80.37 58.72, 130.04 1.74 M13.66 141.72 C52.95 97.62, 91.49 49.06, 135.03 2.1 M13.66 141.72 C40.01 111.8, 65.81 82.75, 135.03 2.1 M16.68 144.35 C54.82 101.18, 96.27 56.35, 140.67 1.71 M16.68 144.35 C43 113.01, 70.13 81.12, 140.67 1.71 M20.35 146.22 C47.1 114.62, 71.21 87.45, 145.66 2.07 M20.35 146.22 C59.25 103.22, 95.13 61.62, 145.66 2.07 M25.34 146.58 C58.12 109.53, 89.61 70.36, 150.65 2.43 M25.34 146.58 C54.97 112.43, 83.64 77.9, 150.65 2.43 M29.67 147.69 C78.32 92.64, 128.42 34.77, 156.29 2.03 M29.67 147.69 C55.83 116.34, 83.83 87.17, 156.29 2.03 M34.66 148.05 C74.96 101.35, 115.62 52.47, 161.28 2.39 M34.66 148.05 C75.25 102.28, 114.82 55.73, 161.28 2.39 M39.64 148.41 C65.4 119.13, 92.93 88.2, 166.92 2 M39.64 148.41 C83.35 101.41, 125.03 52.33, 166.92 2 M45.29 148.02 C80.59 107.18, 118.31 65.28, 171.91 2.36 M45.29 148.02 C74.41 116.11, 100.31 84.83, 171.91 2.36 M50.27 148.38 C92.74 100.58, 134.12 49.29, 177.55 1.96 M50.27 148.38 C89.38 103.32, 129.3 57.61, 177.55 1.96 M55.92 147.98 C97 99.28, 138 51.75, 182.54 2.32 M55.92 147.98 C83.03 113.86, 111.67 82.35, 182.54 2.32 M60.9 148.34 C98.02 103.29, 137.7 57.28, 188.18 1.93 M60.9 148.34 C88.07 115.64, 117.62 81.81, 188.18 1.93 M66.55 147.95 C98.08 112.93, 126.32 78.05, 193.17 2.29 M66.55 147.95 C113.48 93.48, 158.85 39.74, 193.17 2.29 M71.53 148.31 C98.9 119.24, 123.12 89.73, 198.81 1.9 M71.53 148.31 C99.49 116, 127.72 82.11, 198.81 1.9 M77.18 147.91 C126.51 90.72, 174.04 35.84, 203.8 2.26 M77.18 147.91 C107.88 113.83, 137.23 78.31, 203.8 2.26 M82.16 148.27 C131.51 94.81, 176.89 40.19, 209.44 1.86 M82.16 148.27 C116.89 107.6, 152 66.63, 209.44 1.86 M87.81 147.88 C132.16 96.21, 180.24 43.81, 214.43 2.22 M87.81 147.88 C133.26 94.7, 177.93 43.43, 214.43 2.22 M92.79 148.24 C127.53 108.95, 164.91 68.16, 220.07 1.83 M92.79 148.24 C119.32 118.27, 146.2 89.6, 220.07 1.83 M97.78 148.6 C146 96.74, 191.72 42.28, 225.06 2.19 M97.78 148.6 C122.65 119.85, 147.91 90.62, 225.06 2.19 M103.42 148.21 C142.23 104.62, 181.63 62.85, 230.7 1.79 M103.42 148.21 C140.33 102.86, 178.42 59.79, 230.7 1.79 M108.41 148.57 C159.78 89.24, 208.4 32.66, 235.69 2.15 M108.41 148.57 C159.95 91.82, 210.92 32.49, 235.69 2.15 M114.05 148.17 C151.5 103.89, 188.87 59.38, 241.33 1.76 M114.05 148.17 C149.43 107.05, 183.33 66.83, 241.33 1.76 M119.04 148.53 C151 115.65, 177.6 79.42, 246.32 2.12 M119.04 148.53 C160.54 100.85, 200.49 54.92, 246.32 2.12 M124.68 148.14 C159.94 111.42, 192.26 70.31, 251.96 1.72 M124.68 148.14 C161.66 104.62, 197 61.98, 251.96 1.72 M129.67 148.5 C165.69 103.91, 205.69 58.97, 256.95 2.08 M129.67 148.5 C163.62 109.12, 197.23 70.34, 256.95 2.08 M135.31 148.1 C166.18 111.13, 198.65 74.41, 262.59 1.69 M135.31 148.1 C182.84 92.92, 231.78 39.49, 262.59 1.69 M140.3 148.46 C189.98 90.64, 237.2 33.78, 267.58 2.05 M140.3 148.46 C181.13 102.56, 221.29 55.01, 267.58 2.05 M145.94 148.07 C179.94 108.45, 211.41 68.32, 272.56 2.41 M145.94 148.07 C194.74 93.11, 243.27 39.19, 272.56 2.41 M150.93 148.43 C189.77 102.74, 230.79 58.17, 278.21 2.01 M150.93 148.43 C188.71 106.13, 225.31 64.28, 278.21 2.01 M156.57 148.03 C204.37 91.21, 250.95 37.46, 283.19 2.37 M156.57 148.03 C185.31 117.16, 213.01 84.79, 283.19 2.37 M161.56 148.39 C197.55 107.93, 233.03 70.24, 288.84 1.98 M161.56 148.39 C201.43 100.88, 242.5 53.78, 288.84 1.98 M167.2 148 C212.08 97.07, 259.04 42.92, 293.82 2.34 M167.2 148 C199.84 109.98, 230.74 73.81, 293.82 2.34 M172.19 148.36 C208.89 104.41, 246.53 61.41, 299.47 1.94 M172.19 148.36 C214.7 100.31, 257.18 51.7, 299.47 1.94 M177.83 147.96 C219.2 97.79, 265.53 49.5, 304.45 2.3 M177.83 147.96 C212.23 108.96, 247.96 67.52, 304.45 2.3 M182.82 148.32 C229.97 89.79, 278.9 36.02, 310.1 1.91 M182.82 148.32 C228.02 94.77, 273.48 42.53, 310.1 1.91 M188.46 147.93 C222.22 105.89, 258.35 66.94, 315.08 2.27 M188.46 147.93 C231.24 98.56, 275.32 49.31, 315.08 2.27 M193.45 148.29 C239.15 94.31, 286.84 41.92, 320.73 1.88 M193.45 148.29 C222.33 117.09, 249.72 85.31, 320.73 1.88 M199.09 147.89 C232.38 106.8, 271.26 64.79, 325.71 2.24 M199.09 147.89 C242.59 97.75, 286.04 46.36, 325.71 2.24 M204.08 148.25 C236.98 109.61, 273.15 72.55, 331.36 1.84 M204.08 148.25 C233.42 115.42, 263.72 81.35, 331.36 1.84 M209.07 148.62 C256.89 98.14, 299.93 44.7, 336.34 2.2 M209.07 148.62 C239.04 114.39, 267.48 80.76, 336.34 2.2 M214.71 148.22 C254.01 103.96, 294.44 58.31, 341.99 1.81 M214.71 148.22 C255.19 101.52, 294.69 56.88, 341.99 1.81 M219.7 148.58 C270.02 91.14, 320.15 34.75, 346.97 2.17 M219.7 148.58 C269.02 91.44, 317.85 34.01, 346.97 2.17 M225.34 148.19 C268.5 102.5, 310.55 54.52, 352.62 1.77 M225.34 148.19 C262.84 105.96, 299.41 63.77, 352.62 1.77 M230.33 148.55 C259.06 115.93, 287.27 85.21, 358.92 0.62 M230.33 148.55 C263.05 110.77, 296.22 71.88, 358.92 0.62 M235.97 148.15 C279.91 97.91, 326.33 48.35, 363.25 1.74 M235.97 148.15 C279.78 96.86, 323.99 45.6, 363.25 1.74 M240.96 148.51 C279.94 100.72, 319.46 56.92, 368.23 2.1 M240.96 148.51 C280.65 101.49, 321.28 54.96, 368.23 2.1 M246.6 148.12 C274.47 120.23, 298.1 87.41, 372.57 3.21 M246.6 148.12 C273.35 115.89, 301.56 85.2, 372.57 3.21 M251.59 148.48 C290.99 103.82, 329.96 57.18, 376.24 5.08 M251.59 148.48 C289.98 103.86, 328.78 60.79, 376.24 5.08 M257.23 148.08 C298.01 102.08, 340.07 52.18, 379.91 6.95 M257.23 148.08 C305.23 92.44, 352.97 37.48, 379.91 6.95 M262.22 148.44 C303.44 103.44, 339.05 61.44, 382.93 9.58 M262.22 148.44 C307.29 94.11, 355.66 39.33, 382.93 9.58 M267.86 148.05 C312.86 95.23, 360.25 40.12, 385.3 12.95 M267.86 148.05 C300.89 111.37, 332.53 72.96, 385.3 12.95 M272.85 148.41 C313.37 99.64, 352.58 52.27, 387 17.09 M272.85 148.41 C297.11 120.93, 318.94 95.32, 387 17.09 M278.49 148.01 C300.99 118.25, 325.71 91.61, 388.71 21.22 M278.49 148.01 C307.21 114.09, 336.38 82.56, 388.71 21.22 M283.48 148.37 C320.57 105.2, 356.17 62.37, 390.42 25.36 M283.48 148.37 C306.51 122.41, 329.03 96.71, 390.42 25.36 M289.12 147.98 C314.21 120.18, 338.96 89.75, 390.16 31.75 M289.12 147.98 C313.87 118.75, 340.3 89.58, 390.16 31.75 M294.11 148.34 C322.79 113.39, 354.58 78.14, 390.55 37.4 M294.11 148.34 C325.69 110.49, 358.51 72.83, 390.55 37.4 M299.75 147.94 C332.25 110.36, 361.79 73.23, 390.29 43.79 M299.75 147.94 C329.42 113.46, 359.86 80.03, 390.29 43.79 M304.74 148.3 C336.55 109.98, 367.5 72.69, 390.68 49.44 M304.74 148.3 C334 113.55, 362.14 79.86, 390.68 49.44 M310.38 147.91 C341.37 114.36, 370.35 80.26, 390.42 55.84 M310.38 147.91 C334.28 122, 358.45 93, 390.42 55.84 M315.37 148.27 C344.7 115.82, 374.05 81.54, 390.82 61.48 M315.37 148.27 C334.79 126.75, 353.56 105.74, 390.82 61.48 M321.01 147.88 C345.99 118.56, 372.87 88.89, 390.55 67.88 M321.01 147.88 C343.69 121.44, 364.95 95.5, 390.55 67.88 M326 148.24 C343.64 128.39, 358.68 110.94, 390.95 73.52 M326 148.24 C344.68 126.6, 364.17 104.91, 390.95 73.52 M330.99 148.6 C354.35 120.71, 377.47 92.81, 390.69 79.92 M330.99 148.6 C349.77 127.58, 366.6 107, 390.69 79.92 M336.63 148.2 C350.2 134.92, 363.39 120.91, 390.43 86.31 M336.63 148.2 C347.84 135.99, 358.81 122.48, 390.43 86.31 M341.62 148.56 C357.35 129.97, 371.99 110.01, 390.82 91.96 M341.62 148.56 C357.11 132.5, 372.56 114.26, 390.82 91.96 M347.26 148.17 C358.16 133.55, 370.59 122.32, 390.56 98.36 M347.26 148.17 C362 131.31, 375.99 114.77, 390.56 98.36 M352.25 148.53 C361.77 136.68, 368.45 129.18, 390.95 104 M352.25 148.53 C364.95 132.98, 377.93 119.98, 390.95 104 M359.2 146.62 C368.83 131.84, 381.17 119.74, 390.69 110.4 M359.2 146.62 C368.06 136.46, 375.93 127.18, 390.69 110.4 M364.84 146.23 C373.05 133.48, 385.75 124.79, 391.74 115.29 M364.84 146.23 C373.7 135.97, 381.8 126.51, 391.74 115.29 M371.8 144.32 C378.74 138.71, 385.68 129.82, 390.17 123.19 M371.8 144.32 C376.48 138.77, 381.21 134.93, 390.17 123.19" stroke="#15aabf" stroke-width="0.5" fill="none"></path><path d="M32 0 M32 0 C100.57 3.01, 165.83 2.73, 357.88 0 M32 0 C145.49 -1.48, 259.75 -2.49, 357.88 0 M357.88 0 C380.32 -0.88, 391.49 9.31, 389.88 32 M357.88 0 C379.66 1.61, 389.7 12.48, 389.88 32 M389.88 32 C389.24 52.4, 388.6 68.83, 389.88 114.09 M389.88 32 C390.04 55.66, 388.62 80.83, 389.88 114.09 M389.88 114.09 C388.5 137.36, 380.3 144.23, 357.88 146.09 M389.88 114.09 C391.76 137.02, 377.59 143.94, 357.88 146.09 M357.88 146.09 C240.51 148.56, 123.82 146.83, 32 146.09 M357.88 146.09 C275.08 145.96, 191.27 145.14, 32 146.09 M32 146.09 C10.53 146.16, -1.21 134.01, 0 114.09 M32 146.09 C9.6 146.7, -0.19 137.47, 0 114.09 M0 114.09 C-1.45 84.47, -1.9 50.93, 0 32 M0 114.09 C0.1 86.41, 1.08 59.27, 0 32 M0 32 C-0.37 12.18, 10.5 0.33, 32 0 M0 32 C2.03 10.6, 8.63 -1.45, 32 0" stroke="#e67700" stroke-width="1" fill="none"></path></g><g stroke-linecap="round" transform="translate(280.4057811177103 1017.3831673479358) rotate(0 61.439453125 43.34375)"><path d="M3.3 8.17 C3.3 8.17, 3.3 8.17, 3.3 8.17 M3.3 8.17 C3.3 8.17, 3.3 8.17, 3.3 8.17 M1.07 16.83 C4.72 14.47, 5.91 10.82, 10.91 5.51 M1.07 16.83 C3.62 14.23, 4.79 12.46, 10.91 5.51 M0.81 23.23 C5.69 19.4, 8.35 13.38, 17.87 3.61 M0.81 23.23 C8.09 16.92, 14.4 9.06, 17.87 3.61 M0.55 29.63 C10.48 18.26, 15.82 9.21, 24.17 2.46 M0.55 29.63 C8.92 20.59, 17.7 10.26, 24.17 2.46 M0.95 35.27 C8.83 23.04, 21.11 12.4, 29.81 2.06 M0.95 35.27 C8.94 25.42, 17.16 14.37, 29.81 2.06 M0.68 41.67 C14.1 26.56, 27.49 12.12, 34.8 2.42 M0.68 41.67 C12.1 28.96, 21.93 16.32, 34.8 2.42 M1.08 47.31 C11.66 36.45, 22.7 23.62, 40.44 2.03 M1.08 47.31 C14.6 30.62, 29.15 14.61, 40.44 2.03 M0.82 53.71 C18.69 33.68, 35.24 13.37, 45.43 2.39 M0.82 53.71 C13.09 39.89, 23.64 26.81, 45.43 2.39 M0.56 60.11 C21 37.4, 39.61 14.61, 51.07 2 M0.56 60.11 C21.62 37.61, 40.53 14.03, 51.07 2 M0.95 65.75 C11.8 51.1, 27.76 35.98, 56.06 2.36 M0.95 65.75 C20.28 45.75, 38.61 23.82, 56.06 2.36 M1.34 71.39 C16.21 56.23, 27.41 42.62, 61.7 1.96 M1.34 71.39 C20.84 47.83, 40.22 27.16, 61.7 1.96 M3.05 75.53 C19.03 59.65, 33.03 39.68, 66.69 2.32 M3.05 75.53 C21.51 53.97, 40.91 32.65, 66.69 2.32 M5.41 78.91 C21 60.09, 35.35 45.24, 72.33 1.93 M5.41 78.91 C30.34 49.47, 56.04 20.82, 72.33 1.93 M7.12 83.04 C32.08 54.75, 57.07 24.84, 77.32 2.29 M7.12 83.04 C29.35 60.12, 49.38 35.57, 77.32 2.29 M10.8 84.91 C37.34 55.25, 66.01 22.97, 82.31 2.65 M10.8 84.91 C32.59 61.02, 52.53 36.07, 82.31 2.65 M14.47 86.78 C43.47 51.89, 74.18 18.75, 87.95 2.25 M14.47 86.78 C38.36 60.36, 60.99 32.89, 87.95 2.25 M18.8 87.89 C41.6 61.7, 62.35 37.49, 92.94 2.61 M18.8 87.89 C42.84 60.76, 66.53 31.39, 92.94 2.61 M23.79 88.25 C40.25 68.78, 56.9 50.87, 98.58 2.22 M23.79 88.25 C46.95 62.03, 71.7 34.99, 98.58 2.22 M28.78 88.61 C44.84 70.78, 60.62 51.28, 103.57 2.58 M28.78 88.61 C44.69 69.94, 59.27 53.45, 103.57 2.58 M34.42 88.22 C58.21 62.26, 77.47 39.48, 108.55 2.94 M34.42 88.22 C53.7 66.27, 72.42 43.25, 108.55 2.94 M39.41 88.58 C57.56 68.21, 73.67 46.58, 113.54 3.3 M39.41 88.58 C67.94 56.34, 97.16 22.61, 113.54 3.3 M45.05 88.19 C58.65 69.69, 76.91 54.76, 116.56 5.92 M45.05 88.19 C67.83 61.78, 90.84 34.26, 116.56 5.92 M50.04 88.55 C72.71 62.59, 93.48 36.65, 120.23 7.79 M50.04 88.55 C64.22 72.38, 79.35 55.35, 120.23 7.79 M55.68 88.15 C78.56 64.29, 99.47 37.96, 121.94 11.93 M55.68 88.15 C74.17 66.76, 93.89 44.82, 121.94 11.93 M60.67 88.51 C76.33 73.17, 86.04 59.03, 122.34 17.57 M60.67 88.51 C81.26 65.37, 101.3 40.47, 122.34 17.57 M66.31 88.12 C82.81 69, 101.5 47.92, 123.39 22.46 M66.31 88.12 C84.82 66.2, 103.25 44.82, 123.39 22.46 M71.3 88.48 C82.32 72.95, 94.45 61.87, 123.78 28.1 M71.3 88.48 C86.51 69.83, 102.91 50.78, 123.78 28.1 M76.94 88.08 C85.31 77.7, 96.81 64.81, 123.52 34.5 M76.94 88.08 C88.63 75.09, 98.84 62.14, 123.52 34.5 M81.93 88.44 C98.32 70.22, 110.72 52.88, 123.26 40.9 M81.93 88.44 C91.12 79.22, 98.75 69.61, 123.26 40.9 M87.57 88.05 C94.35 79.49, 102.04 67.78, 123.65 46.54 M87.57 88.05 C101.62 71.6, 115.06 56.04, 123.65 46.54 M92.56 88.41 C100.41 81.09, 106.45 70.63, 123.39 52.94 M92.56 88.41 C104.85 75.38, 115.43 62.01, 123.39 52.94 M97.54 88.77 C105.22 81.34, 112.86 71.39, 123.13 59.33 M97.54 88.77 C106.11 78.41, 116.61 67.79, 123.13 59.33 M103.19 88.37 C111.44 79.23, 118.09 71.81, 123.52 64.98 M103.19 88.37 C108.29 82.59, 114.86 76.15, 123.52 64.98 M110.8 85.71 C114.12 81.4, 117.7 81.55, 123.26 71.38 M110.8 85.71 C115.81 81.18, 120.04 75.43, 123.26 71.38" stroke="#4c6ef5" stroke-width="0.5" fill="none"></path><path d="M21.67 0 M21.67 0 C38.7 1.26, 54.05 1.64, 101.21 0 M21.67 0 C45.49 0.37, 69.97 1.51, 101.21 0 M101.21 0 C115.63 1.01, 124.32 6.44, 122.88 21.67 M101.21 0 C114.11 -0.79, 122.94 9.3, 122.88 21.67 M122.88 21.67 C121.09 33.08, 121.67 46.32, 122.88 65.02 M122.88 21.67 C122.92 33.06, 121.76 43.23, 122.88 65.02 M122.88 65.02 C123.7 79.38, 115.09 86.78, 101.21 86.69 M122.88 65.02 C120.8 79.45, 114.97 85.58, 101.21 86.69 M101.21 86.69 C69.11 84.55, 36.65 85.83, 21.67 86.69 M101.21 86.69 C75.56 87.3, 51.78 86.74, 21.67 86.69 M21.67 86.69 C9.13 87.95, -1.01 80.7, 0 65.02 M21.67 86.69 C6.15 85.82, -0.61 77.75, 0 65.02 M0 65.02 C-2.12 48.61, 0.59 34.05, 0 21.67 M0 65.02 C-0.36 49.09, 0.81 33.43, 0 21.67 M0 21.67 C-1.06 6.85, 8.03 -1.44, 21.67 0 M0 21.67 C-0.74 7.15, 7.3 -0.4, 21.67 0" stroke="#000000" stroke-width="1" fill="none"></path></g><g transform="translate(310.8452342427103 1048.9769173479358) rotate(0 31 11.5)"><text x="31" y="17" font-family="Virgil, Segoe UI Emoji" font-size="20px" fill="#000000" text-anchor="middle" style="white-space: pre;" direction="ltr">Bridge</text></g><g stroke-linecap="round"><g transform="translate(132.86281236771032 921.9456673479358) rotate(0 49.17269642056638 60.90317249652463)"><path d="M0.09 0.17 C-5.83 9.79, -41.4 39.81, -36.41 57.99 C-31.41 76.17, 1.56 98.48, 30.06 109.25 C58.56 120.01, 117.11 120.59, 134.57 122.59 M-1.32 -0.78 C-6.78 8.42, -39.25 37.46, -34.05 55.98 C-28.84 74.51, 1.69 99.61, 29.91 110.37 C58.12 121.13, 117.89 118.72, 135.23 120.56" stroke="#000000" stroke-width="1" fill="none"></path></g><g transform="translate(132.86281236771032 921.9456673479358) rotate(0 49.17269642056638 60.90317249652463)"><path d="M106.95 128.6 C113.57 129.52, 119.16 126.79, 136.89 122.35 M106.74 130.45 C113.41 127.63, 122.73 124.91, 135.55 120.06" stroke="#000000" stroke-width="1" fill="none"></path></g><g transform="translate(132.86281236771032 921.9456673479358) rotate(0 49.17269642056638 60.90317249652463)"><path d="M107.75 108.09 C114.24 113.73, 119.64 115.72, 136.89 122.35 M107.54 109.95 C114.07 112.63, 123.18 115.42, 135.55 120.06" stroke="#000000" stroke-width="1" fill="none"></path></g></g><mask></mask><g stroke-linecap="round"><g transform="translate(333.2697320778746 1131.7941562358465) rotate(0 -92.38452491392854 47.37256464855321)"><path d="M-0.13 0.46 C-6.96 5.5, -23.72 23.34, -40.31 31.22 C-56.89 39.1, -76.89 44.64, -99.63 47.72 C-122.36 50.79, -162.9 41.84, -176.73 49.67 C-190.56 57.49, -181.88 87.17, -182.61 94.68 M-1.66 -0.34 C-8.16 4.89, -22.08 21.91, -38.01 29.61 C-53.93 37.32, -74.17 42.39, -97.21 45.9 C-120.24 49.41, -162.27 42.49, -176.23 50.68 C-190.19 58.88, -179.82 87.91, -180.97 95.09" stroke="#000000" stroke-width="1" fill="none"></path></g><g transform="translate(333.2697320778746 1131.7941562358465) rotate(0 -92.38452491392854 47.37256464855321)"><path d="M-189.95 73.49 C-185.46 80.46, -182 89.91, -181.24 93.35 M-189.99 74.14 C-188.23 80.56, -185.06 86.28, -181.68 95.77" stroke="#000000" stroke-width="1" fill="none"></path></g><g transform="translate(333.2697320778746 1131.7941562358465) rotate(0 -92.38452491392854 47.37256464855321)"><path d="M-174.62 71.97 C-175.53 79.46, -177.47 89.45, -181.24 93.35 M-174.67 72.62 C-177.54 79.52, -179.01 85.69, -181.68 95.77" stroke="#000000" stroke-width="1" fill="none"></path></g></g><mask></mask><g stroke-linecap="round"><g transform="translate(551.7852992631804 1305.9655167483852) rotate(0 -97.19734640113569 -88.35358227932923)"><path d="M0.53 0.25 C-1.08 -16.09, 17.96 -78.55, -9.43 -98.43 C-36.83 -118.31, -132.16 -105.95, -163.84 -119.04 C-195.52 -132.13, -193.97 -167.36, -199.52 -176.96 M-0.66 -0.66 C-2.43 -17.34, 17.07 -80.26, -10.32 -100.33 C-37.71 -120.41, -133.38 -108.49, -164.97 -121.12 C-196.56 -133.75, -194.37 -166.91, -199.88 -176.12" stroke="#000000" stroke-width="1" fill="none"></path></g><g transform="translate(551.7852992631804 1305.9655167483852) rotate(0 -97.19734640113569 -88.35358227932923)"><path d="M-181.64 -151.8 C-186.94 -160.72, -192.46 -169.14, -200.71 -174.13 M-182.68 -152.63 C-186.62 -158.76, -192.89 -164.91, -199.1 -175.46" stroke="#000000" stroke-width="1" fill="none"></path></g><g transform="translate(551.7852992631804 1305.9655167483852) rotate(0 -97.19734640113569 -88.35358227932923)"><path d="M-201.32 -145.99 C-200.35 -156.85, -199.63 -167.1, -200.71 -174.13 M-202.36 -146.82 C-200.69 -154.6, -201.35 -162.4, -199.1 -175.46" stroke="#000000" stroke-width="1" fill="none"></path></g></g><mask></mask><g stroke-linecap="round"><g transform="translate(416.0659373677103 1041.7425423479358) rotate(0 92.73511599385824 -61.22569908332076)"><path d="M0.71 0.42 C27.08 -1.41, 127.98 -0.01, 158.81 -10.4 C189.64 -20.79, 185.68 -44.15, 185.69 -61.92 C185.69 -79.68, 168.89 -107.01, 158.83 -116.99 C148.76 -126.96, 130.93 -121.08, 125.29 -121.79 M-0.38 -0.4 C25.79 -2.12, 127 1.04, 157.88 -9.08 C188.75 -19.21, 184.72 -43.33, 184.85 -61.15 C184.99 -78.97, 168.29 -105.97, 158.68 -116.02 C149.06 -126.06, 132.62 -120.42, 127.17 -121.42" stroke="#000000" stroke-width="1" fill="none"></path></g><g transform="translate(416.0659373677103 1041.7425423479358) rotate(0 92.73511599385824 -61.22569908332076)"><path d="M143.55 -127.84 C136.92 -125.73, 130.57 -124.4, 126.81 -122.26 M142.52 -128.42 C138.78 -126.3, 134.38 -124.61, 127.44 -121.81" stroke="#000000" stroke-width="1" fill="none"></path></g><g transform="translate(416.0659373677103 1041.7425423479358) rotate(0 92.73511599385824 -61.22569908332076)"><path d="M144.01 -116.19 C137.16 -118.11, 130.65 -120.81, 126.81 -122.26 M142.98 -116.77 C139.19 -118.1, 134.64 -119.87, 127.44 -121.81" stroke="#000000" stroke-width="1" fill="none"></path></g></g><mask></mask><g transform="translate(247.29640611771032 897.3909798479358) rotate(0 97.5 20.5)"><text x="0" y="29" font-family="Virgil, Segoe UI Emoji" font-size="32.256250000000016px" fill="#000000" text-anchor="start" style="white-space: pre;" direction="ltr">Rocket.Chat</text></g><g transform="translate(269.2058371371883 1283.5353424288674) rotate(0 64 21)"><text x="0" y="30" font-family="Virgil, Segoe UI Emoji" font-size="33.33750000000003px" fill="#000000" text-anchor="start" style="white-space: pre;" direction="ltr">Synapse</text></g><g stroke-linecap="round" transform="translate(89.20265611771032 819.8597298479358) rotate(0 260.291015625 150.98437499999997)"><path d="M32 0 M32 0 C176.41 0.67, 320.18 0.48, 488.58 0 M32 0 C206.59 1.59, 380.2 1.79, 488.58 0 M488.58 0 C511.5 -1.58, 521.25 9.47, 520.58 32 M488.58 0 C510.03 1.74, 518.68 9.29, 520.58 32 M520.58 32 C522.98 102.35, 521.97 173.04, 520.58 269.97 M520.58 32 C519.9 117.24, 519.87 200.77, 520.58 269.97 M520.58 269.97 C519.31 290.31, 509.14 300.47, 488.58 301.97 M520.58 269.97 C521.62 289.57, 511.52 302.26, 488.58 301.97 M488.58 301.97 C375.55 302.91, 260.03 302.41, 32 301.97 M488.58 301.97 C379.54 300.1, 270.53 300.11, 32 301.97 M32 301.97 C8.77 300.82, 0.52 289.52, 0 269.97 M32 301.97 C10.86 303.2, -1.45 289.97, 0 269.97 M0 269.97 C0.98 185.45, -0.06 98.79, 0 32 M0 269.97 C0.88 175.28, 0.81 80.9, 0 32 M0 32 C-1.13 12.65, 9.94 1.07, 32 0 M0 32 C2.09 10.52, 11.93 1.24, 32 0" stroke="#c92a2a" stroke-width="1" fill="none"></path></g><g stroke-linecap="round"><g transform="translate(86.12062486771032 836.0550423479358) rotate(0 -15.062039944170976 -46.512837477976504)"><path d="M-0.17 0.49 C-8.77 -4.33, -46.6 -13.58, -51.32 -27.79 C-56.04 -42.01, -40.79 -73.84, -28.49 -84.79 C-16.19 -95.74, 14.07 -92.02, 22.47 -93.49 M-1.71 -0.29 C-10.48 -4.45, -47.57 -12.05, -52.14 -26.48 C-56.7 -40.91, -41.61 -75.82, -29.11 -86.86 C-16.61 -97.9, 14 -91.61, 22.85 -92.74" stroke="#000000" stroke-width="1" fill="none"></path></g><g transform="translate(86.12062486771032 836.0550423479358) rotate(0 -15.062039944170976 -46.512837477976504)"><path d="M-0.76 -84.11 C5.6 -86.72, 15.15 -89.45, 21.72 -93.24 M-1.43 -84.12 C4.32 -86.07, 9.93 -87.77, 22.1 -93.31" stroke="#000000" stroke-width="1" fill="none"></path></g><g transform="translate(86.12062486771032 836.0550423479358) rotate(0 -15.062039944170976 -46.512837477976504)"><path d="M-0.32 -101.73 C6.06 -98.58, 15.47 -95.56, 21.72 -93.24 M-1 -101.75 C4.6 -99.62, 10.11 -97.23, 22.1 -93.31" stroke="#000000" stroke-width="1" fill="none"></path></g></g><mask></mask><g transform="translate(126.02687486771032 731.2112923479358) rotate(0 110 12.5)"><text x="0" y="18" font-family="Virgil, Segoe UI Emoji" font-size="20px" fill="#000000" text-anchor="start" style="white-space: pre;" direction="ltr">Rocket.Chat container</text></g><g stroke-linecap="round" transform="translate(10 274.5715320902865) rotate(0 344.01488082993365 44.36239424549029)"><path d="M5.25 5.89 C5.25 5.89, 5.25 5.89, 5.25 5.89 M5.25 5.89 C5.25 5.89, 5.25 5.89, 5.25 5.89 M3.02 14.55 C6.36 12.46, 8.36 9.41, 13.52 2.47 M3.02 14.55 C5.79 11.35, 8.47 7.7, 13.52 2.47 M0.79 23.21 C7.71 15.77, 12.69 13.41, 19.81 1.32 M0.79 23.21 C8.44 13.88, 15.61 6.29, 19.81 1.32 M1.18 28.85 C6.54 24.7, 10.12 16.08, 24.8 1.68 M1.18 28.85 C7.35 21.46, 13.56 14.42, 24.8 1.68 M0.92 35.25 C6.89 26.37, 15.73 19.67, 29.79 2.04 M0.92 35.25 C11.69 22.84, 22.46 9.03, 29.79 2.04 M0.66 41.65 C11.93 32.07, 18.85 18.37, 34.78 2.4 M0.66 41.65 C12.28 27.57, 24.74 15.64, 34.78 2.4 M1.06 47.29 C8.94 38.53, 18.05 25.13, 40.42 2.01 M1.06 47.29 C15.59 31.32, 28.63 14.24, 40.42 2.01 M0.79 53.69 C13.13 37.95, 26.87 25.65, 45.41 2.37 M0.79 53.69 C13.21 39.29, 25.78 24.95, 45.41 2.37 M1.19 59.33 C17.96 40.38, 31.19 25.4, 51.05 1.98 M1.19 59.33 C15.89 42.78, 30.75 25, 51.05 1.98 M0.27 66.49 C17.56 48.66, 32.41 28.81, 56.04 2.34 M0.27 66.49 C17.98 44.79, 37.69 24.07, 56.04 2.34 M0.67 72.13 C24.51 45.22, 49.96 17.13, 61.68 1.94 M0.67 72.13 C24.62 46.04, 46.79 18.93, 61.68 1.94 M1.72 77.02 C18.53 57.77, 34.69 39.36, 66.67 2.3 M1.72 77.02 C20.02 57.71, 37.31 37.44, 66.67 2.3 M4.73 79.64 C26.24 55.67, 46.63 34.32, 72.31 1.91 M4.73 79.64 C19.41 64.3, 33.07 46.64, 72.31 1.91 M7.1 83.02 C30.23 58.82, 50.18 30.87, 77.3 2.27 M7.1 83.02 C33 53.75, 56.94 26.06, 77.3 2.27 M9.46 86.4 C24.23 66.34, 41.75 49.48, 82.94 1.87 M9.46 86.4 C37.24 54.74, 64.05 24.15, 82.94 1.87 M13.79 87.51 C41.39 55.76, 68.67 26.8, 87.93 2.23 M13.79 87.51 C40.69 56.09, 68.14 25.67, 87.93 2.23 M17.47 89.38 C37.79 65.81, 55.72 44.72, 93.57 1.84 M17.47 89.38 C36.37 68.12, 55.85 44.99, 93.57 1.84 M23.11 88.99 C52.95 53.62, 82.11 20.53, 98.56 2.2 M23.11 88.99 C48.3 59.8, 73.31 31.84, 98.56 2.2 M28.1 89.35 C51.77 60.76, 77.39 35.01, 104.2 1.8 M28.1 89.35 C45.91 67.2, 66.45 46.93, 104.2 1.8 M33.74 88.95 C65.87 55.44, 93.69 20.7, 109.19 2.16 M33.74 88.95 C55.31 63.42, 76.63 40.84, 109.19 2.16 M38.73 89.31 C67.02 58.61, 96.99 26.14, 114.83 1.77 M38.73 89.31 C65.35 55.98, 95.03 24.36, 114.83 1.77 M44.37 88.92 C66.16 65.22, 89.81 39.27, 119.82 2.13 M44.37 88.92 C64.51 66.5, 84.38 44.07, 119.82 2.13 M49.36 89.28 C65.93 67.19, 84.08 48.41, 125.46 1.73 M49.36 89.28 C66.42 70.17, 82.86 50.26, 125.46 1.73 M55 88.89 C78.07 58.94, 102.83 32.63, 130.45 2.09 M55 88.89 C73.39 66.55, 92.73 44.79, 130.45 2.09 M59.99 89.25 C88.8 55.31, 117.08 22.74, 135.43 2.45 M59.99 89.25 C75.42 70.5, 91.74 53.42, 135.43 2.45 M65.63 88.85 C90.24 60.52, 113.33 34.43, 141.08 2.06 M65.63 88.85 C91.62 59.11, 118.84 28.36, 141.08 2.06 M70.62 89.21 C91.31 62.16, 116.09 36.95, 146.06 2.42 M70.62 89.21 C95.56 58.89, 121.52 31.25, 146.06 2.42 M76.26 88.82 C94.15 71.72, 109.77 49.39, 151.71 2.03 M76.26 88.82 C101.66 58.5, 127.26 29.68, 151.71 2.03 M81.25 89.18 C107.86 58.19, 133.39 27.1, 156.69 2.39 M81.25 89.18 C98.59 68.82, 115.3 48.53, 156.69 2.39 M86.89 88.78 C115.24 58.24, 138.77 26.12, 162.34 1.99 M86.89 88.78 C110.32 62.76, 132.74 36.08, 162.34 1.99 M91.88 89.14 C116.17 58.52, 141.06 31.69, 167.32 2.35 M91.88 89.14 C114.04 63.68, 135.7 37.07, 167.32 2.35 M97.52 88.75 C122.47 60.61, 151.2 26.68, 172.97 1.96 M97.52 88.75 C115.48 66.83, 134.81 45.15, 172.97 1.96 M102.51 89.11 C127.23 62.17, 149.01 33.72, 177.95 2.32 M102.51 89.11 C129.47 58.39, 155.35 27.03, 177.95 2.32 M107.49 89.47 C124 70.38, 141.41 51.92, 183.6 1.92 M107.49 89.47 C125.78 65.26, 146.71 43.99, 183.6 1.92 M113.14 89.07 C140.97 56.43, 173.7 22.41, 188.58 2.28 M113.14 89.07 C129.75 66.88, 149.39 46.3, 188.58 2.28 M118.12 89.43 C139.51 62.28, 163.09 38.19, 194.23 1.89 M118.12 89.43 C144.48 58.3, 171.51 29.33, 194.23 1.89 M123.77 89.04 C145.89 65.59, 167.47 40.59, 199.21 2.25 M123.77 89.04 C152.04 56.48, 177.81 24.84, 199.21 2.25 M128.75 89.4 C149.99 62.76, 172.24 39.94, 204.86 1.85 M128.75 89.4 C157.9 55.44, 189.45 20.07, 204.86 1.85 M134.4 89 C149.07 70.95, 164.96 51.35, 209.84 2.21 M134.4 89 C160.72 57.95, 188.62 26.18, 209.84 2.21 M139.38 89.36 C157.81 71.52, 174.36 48.77, 215.49 1.82 M139.38 89.36 C157.39 70.02, 175.24 50.68, 215.49 1.82 M145.03 88.97 C174.04 58.14, 202.81 24.02, 220.47 2.18 M145.03 88.97 C167.09 63.81, 186.26 41.62, 220.47 2.18 M150.01 89.33 C171.78 64.45, 194.61 41.62, 226.12 1.78 M150.01 89.33 C175.76 57.91, 201.58 29.56, 226.12 1.78 M155.66 88.94 C176.44 64.43, 198.94 38.94, 231.1 2.14 M155.66 88.94 C181.4 61.21, 206.36 32.5, 231.1 2.14 M160.64 89.3 C174.39 69.37, 191.2 53.17, 236.09 2.5 M160.64 89.3 C189.51 58.27, 215.35 26.21, 236.09 2.5 M166.29 88.9 C185.18 66.97, 206.45 40.83, 241.73 2.11 M166.29 88.9 C194.46 57.52, 220.23 25.77, 241.73 2.11 M171.27 89.26 C192.13 65.92, 210.31 43.62, 246.72 2.47 M171.27 89.26 C201.81 55.41, 230.09 21.43, 246.72 2.47 M176.92 88.87 C201.22 62.86, 221.82 35.01, 252.36 2.07 M176.92 88.87 C192.66 70.57, 209.95 51.6, 252.36 2.07 M181.9 89.23 C206.75 62.79, 228.62 36.26, 257.35 2.44 M181.9 89.23 C201.35 65.75, 220.7 43.78, 257.35 2.44 M187.55 88.83 C203.38 71.84, 217.86 52.74, 262.99 2.04 M187.55 88.83 C212.43 58.62, 238.16 29.26, 262.99 2.04 M192.53 89.19 C211.58 66.31, 235.61 41.06, 267.98 2.4 M192.53 89.19 C213.68 64.87, 234.12 42.02, 267.98 2.4 M198.18 88.8 C218.82 66.71, 235.43 45.52, 273.62 2.01 M198.18 88.8 C227.39 54.84, 255.58 21.05, 273.62 2.01 M203.16 89.16 C224.52 65.2, 250.48 35.57, 278.61 2.37 M203.16 89.16 C224.56 65.9, 245.05 42.64, 278.61 2.37 M208.15 89.52 C237.09 58.23, 261.37 27.21, 284.25 1.97 M208.15 89.52 C238.24 55.64, 267.66 20.26, 284.25 1.97 M213.79 89.12 C234.94 65.13, 254.74 42.36, 289.24 2.33 M213.79 89.12 C241.31 56.73, 271.58 23.52, 289.24 2.33 M218.78 89.48 C241.79 63.37, 266.25 34.05, 294.88 1.94 M218.78 89.48 C236.73 69.52, 252.2 51.34, 294.88 1.94 M224.43 89.09 C253.63 57.36, 279.52 25.4, 299.87 2.3 M224.43 89.09 C240.42 70.83, 258.48 52.29, 299.87 2.3 M229.41 89.45 C250.99 64.51, 271.7 37.94, 305.51 1.9 M229.41 89.45 C254.62 59.79, 280.64 30.9, 305.51 1.9 M235.06 89.05 C262.54 58.5, 290.93 27.37, 310.5 2.26 M235.06 89.05 C260.25 60.35, 283.55 31.86, 310.5 2.26 M240.04 89.41 C268.03 58.18, 294.73 28.53, 316.14 1.87 M240.04 89.41 C268.23 56.34, 297.13 23.14, 316.14 1.87 M245.69 89.02 C272.52 57.65, 300.13 23.33, 321.13 2.23 M245.69 89.02 C271.6 58.75, 298.36 27.28, 321.13 2.23 M250.67 89.38 C268.52 70.15, 287.8 45.62, 326.78 1.83 M250.67 89.38 C267.92 70.02, 286.29 50.44, 326.78 1.83 M256.32 88.99 C273.86 67.48, 292.64 43.89, 331.76 2.19 M256.32 88.99 C273.63 69.2, 290.71 50.02, 331.76 2.19 M261.3 89.35 C282.03 64.62, 304.34 41.04, 336.75 2.55 M261.3 89.35 C287.5 58.88, 314.87 26.87, 336.75 2.55 M266.95 88.95 C296.19 54.26, 324.56 23.79, 342.39 2.16 M266.95 88.95 C296.92 55.21, 324.75 21.22, 342.39 2.16 M271.93 89.31 C294 66.92, 314.14 41.52, 347.38 2.52 M271.93 89.31 C288.28 71.15, 305.04 52.04, 347.38 2.52 M277.58 88.92 C301.02 58.41, 325.52 31.96, 353.02 2.12 M277.58 88.92 C306.48 54.65, 336.45 21.2, 353.02 2.12 M282.56 89.28 C302.77 65.25, 324.1 41.68, 358.01 2.48 M282.56 89.28 C305.69 62.63, 327.4 37.45, 358.01 2.48 M288.21 88.88 C315.75 56.61, 345.4 22.75, 363.65 2.09 M288.21 88.88 C308.79 63.2, 332.15 39.46, 363.65 2.09 M293.19 89.24 C321.52 56.87, 349.64 22.97, 368.64 2.45 M293.19 89.24 C313.02 65.88, 333.48 43.38, 368.64 2.45 M298.84 88.85 C327.62 52.93, 357.71 19.27, 374.28 2.06 M298.84 88.85 C314.99 69.64, 331.68 50.62, 374.28 2.06 M303.82 89.21 C327.94 63.04, 350.1 35.49, 379.27 2.42 M303.82 89.21 C317.75 72.71, 334.35 55.38, 379.27 2.42 M308.81 89.57 C335.35 59.32, 360.74 33.48, 384.91 2.02 M308.81 89.57 C329.41 67.69, 347.87 43.45, 384.91 2.02 M314.45 89.17 C334.38 67.58, 355.14 43.1, 389.9 2.38 M314.45 89.17 C344.51 55.58, 374.62 20.97, 389.9 2.38 M319.44 89.53 C345.29 60.04, 372.87 31.65, 395.54 1.99 M319.44 89.53 C345.98 59.78, 372.45 29.38, 395.54 1.99 M325.08 89.14 C346.52 61.91, 366.21 40.56, 400.53 2.35 M325.08 89.14 C348.89 60.86, 372.7 33.81, 400.53 2.35 M330.07 89.5 C353.39 62.41, 377.55 34.39, 406.17 1.95 M330.07 89.5 C357.9 60.57, 384.41 29.09, 406.17 1.95 M335.71 89.1 C353.63 67.11, 370.83 47.56, 411.16 2.31 M335.71 89.1 C355.59 64.98, 375.72 42.86, 411.16 2.31 M340.7 89.46 C361.7 67.61, 381.31 45.59, 416.8 1.92 M340.7 89.46 C360.4 68.15, 377.46 46.79, 416.8 1.92 M346.34 89.07 C364.55 66.65, 384.69 42.78, 421.79 2.28 M346.34 89.07 C371.79 60.2, 397.42 29.02, 421.79 2.28 M351.33 89.43 C381.01 56.99, 408.53 26.47, 427.43 1.88 M351.33 89.43 C372.71 64.09, 393.41 38.68, 427.43 1.88 M356.97 89.03 C381.98 59.61, 403.77 31.79, 432.42 2.24 M356.97 89.03 C373.54 69.51, 389.48 51.36, 432.42 2.24 M361.96 89.39 C391.65 58.44, 416.44 26.72, 437.41 2.6 M361.96 89.39 C380.51 68.67, 399.54 46.34, 437.41 2.6 M367.6 89 C387.71 66.73, 405.61 45.11, 443.05 2.21 M367.6 89 C383.43 69.77, 400.63 51.5, 443.05 2.21 M372.59 89.36 C395.13 62.23, 420.63 33.19, 448.04 2.57 M372.59 89.36 C388.51 69.99, 406.72 51.02, 448.04 2.57 M378.23 88.97 C400.4 61.77, 424.36 37.49, 453.68 2.17 M378.23 88.97 C395.17 70.09, 411.77 50.7, 453.68 2.17 M383.22 89.33 C402.2 67.7, 419.07 49.33, 458.67 2.53 M383.22 89.33 C410.06 57.92, 436.67 26.52, 458.67 2.53 M388.86 88.93 C401.89 71.86, 417.56 55.06, 464.31 2.14 M388.86 88.93 C414.89 60.17, 440.52 30.24, 464.31 2.14 M393.85 89.29 C414.72 65.3, 438.17 38.66, 469.3 2.5 M393.85 89.29 C421.1 58.76, 449.4 26.9, 469.3 2.5 M399.49 88.9 C422.01 63.8, 445.59 37.49, 474.94 2.11 M399.49 88.9 C421.54 63.94, 442.42 39.04, 474.94 2.11 M404.48 89.26 C433.98 55.49, 462.71 22.71, 479.93 2.47 M404.48 89.26 C418.68 70.47, 433.89 54.64, 479.93 2.47 M409.47 89.62 C428.41 70.16, 443.96 49.39, 485.57 2.07 M409.47 89.62 C436.5 57.71, 464.16 24.77, 485.57 2.07 M415.11 89.22 C444.54 54.96, 470.69 21.8, 490.56 2.43 M415.11 89.22 C441.68 55.89, 469.93 24.41, 490.56 2.43 M420.1 89.58 C437.7 67.54, 455.49 49.77, 496.2 2.04 M420.1 89.58 C441.84 63.95, 464.32 36.99, 496.2 2.04 M425.74 89.19 C446.85 64.22, 469.11 41.38, 501.19 2.4 M425.74 89.19 C445.96 66.55, 464.5 43.76, 501.19 2.4 M430.73 89.55 C447.75 72.17, 460.07 53.46, 506.83 2 M430.73 89.55 C461.18 55.31, 490.47 22.98, 506.83 2 M436.37 89.15 C453.95 69.14, 474.63 45.46, 511.82 2.36 M436.37 89.15 C463.26 57.73, 490.71 25.27, 511.82 2.36 M441.36 89.51 C466.33 62.56, 488.07 38.15, 517.46 1.97 M441.36 89.51 C468.98 56.31, 496.39 25.41, 517.46 1.97 M447 89.12 C473.45 57.76, 500.46 26.88, 522.45 2.33 M447 89.12 C467.12 64.6, 488.81 42.21, 522.45 2.33 M451.99 89.48 C475.74 58.42, 499.52 31.64, 528.09 1.93 M451.99 89.48 C479.94 57.54, 505.8 26.67, 528.09 1.93 M457.63 89.08 C477.98 65.04, 496.68 42.69, 533.08 2.29 M457.63 89.08 C478.52 64.78, 500.52 40.32, 533.08 2.29 M462.62 89.44 C487.54 63.98, 508.28 34.89, 538.06 2.65 M462.62 89.44 C484.16 65.21, 503.64 41.28, 538.06 2.65 M468.26 89.05 C495.12 56.22, 526.62 25.4, 543.71 2.26 M468.26 89.05 C484.15 70.51, 500.81 52.07, 543.71 2.26 M473.25 89.41 C501.09 60.45, 526.19 27.07, 548.69 2.62 M473.25 89.41 C493.55 65.42, 511.66 44.19, 548.69 2.62 M478.89 89.02 C494.11 71.64, 512.95 54.71, 554.34 2.22 M478.89 89.02 C507.87 58.42, 534.73 25.63, 554.34 2.22 M483.88 89.38 C513.69 54.49, 540.79 24.8, 559.32 2.58 M483.88 89.38 C502.03 67.4, 519.12 46.34, 559.32 2.58 M489.52 88.98 C509.66 68.09, 529.21 42.52, 564.97 2.19 M489.52 88.98 C515.86 61.09, 540.13 30.64, 564.97 2.19 M494.51 89.34 C522.09 54.73, 552.85 24.43, 569.96 2.55 M494.51 89.34 C521.91 59.23, 548.18 28.68, 569.96 2.55 M500.15 88.95 C526.98 57.58, 556.18 26.69, 575.6 2.15 M500.15 88.95 C519.22 68.45, 536.7 47.39, 575.6 2.15 M505.14 89.31 C537.18 56.09, 566.8 18.45, 580.59 2.52 M505.14 89.31 C530.85 59.67, 555.44 30.26, 580.59 2.52 M510.13 89.67 C531.09 66.91, 552.65 42.23, 586.23 2.12 M510.13 89.67 C533.29 63.01, 557.36 36.61, 586.23 2.12 M515.77 89.27 C539.77 64.63, 559.43 37.82, 591.22 2.48 M515.77 89.27 C539.48 59.79, 565.86 30.43, 591.22 2.48 M520.76 89.63 C549.51 55.76, 578.63 24.17, 596.86 2.09 M520.76 89.63 C540.19 69.42, 558.69 47.98, 596.86 2.09 M526.4 89.24 C542.17 71.28, 555.67 54.96, 601.85 2.45 M526.4 89.24 C548.63 63.5, 568.78 39.49, 601.85 2.45 M531.39 89.6 C551.15 67.01, 572.61 41.03, 607.49 2.05 M531.39 89.6 C550.45 66.01, 571.38 43.38, 607.49 2.05 M537.03 89.2 C558.87 62.78, 580.19 35.99, 612.48 2.41 M537.03 89.2 C562.04 59.83, 588.74 30.23, 612.48 2.41 M542.02 89.56 C557.01 70.74, 576.52 50.94, 618.12 2.02 M542.02 89.56 C566.21 61.08, 589.97 33.81, 618.12 2.02 M547.66 89.17 C575.17 56.83, 603.76 22.68, 623.11 2.38 M547.66 89.17 C567.8 68, 585.69 45.07, 623.11 2.38 M552.65 89.53 C579.81 56.25, 610 21.87, 628.75 1.98 M552.65 89.53 C568.65 71.45, 585.67 52.27, 628.75 1.98 M558.29 89.13 C583.05 61.4, 609.43 32.97, 633.74 2.34 M558.29 89.13 C586.8 57.15, 616.92 23.01, 633.74 2.34 M563.28 89.49 C584.42 63.87, 604.95 40.2, 638.72 2.7 M563.28 89.49 C583.25 65.04, 605.12 40.03, 638.72 2.7 M568.92 89.1 C587.77 68.37, 606.13 45.3, 644.37 2.31 M568.92 89.1 C588.89 64.86, 611.51 41.62, 644.37 2.31 M573.91 89.46 C602.3 57.98, 630.39 26.94, 649.35 2.67 M573.91 89.46 C601.1 57.75, 628.23 26.29, 649.35 2.67 M579.55 89.07 C605.29 61.39, 627.03 35.81, 655 2.27 M579.55 89.07 C603.3 62.22, 625.55 37.35, 655 2.27 M584.54 89.43 C600.49 71.63, 619.73 48.8, 659.98 2.63 M584.54 89.43 C614.18 55.42, 642.22 20.59, 659.98 2.63 M590.18 89.03 C612.08 63.1, 637.17 36.27, 665.63 2.24 M590.18 89.03 C605.55 69.94, 621.38 50.99, 665.63 2.24 M595.17 89.39 C613.71 69.46, 632.93 44.55, 671.92 1.09 M595.17 89.39 C610.22 69.84, 626.19 51.38, 671.92 1.09 M600.81 89 C624.17 63.53, 645.76 34.42, 676.26 2.2 M600.81 89 C629.23 55.09, 659.88 20.39, 676.26 2.2 M605.8 89.36 C627.81 61.51, 651.21 33.72, 679.93 4.07 M605.8 89.36 C631.68 59.09, 658.47 27.17, 679.93 4.07 M610.78 89.72 C640.08 55.27, 668.76 23.98, 682.95 6.7 M610.78 89.72 C639.14 57.91, 668.77 24.23, 682.95 6.7 M616.43 89.32 C637.59 68.47, 656.47 43.09, 685.31 10.08 M616.43 89.32 C636.78 66.98, 655.02 44.5, 685.31 10.08 M621.41 89.68 C642.93 64.47, 664.31 42.34, 687.68 13.46 M621.41 89.68 C636.46 75.35, 648.86 58.06, 687.68 13.46 M627.06 89.29 C648.01 65.85, 671.86 39.35, 688.73 18.34 M627.06 89.29 C647.66 64.37, 669.73 40.86, 688.73 18.34 M632.04 89.65 C649.87 69.74, 663.36 51.59, 689.78 23.23 M632.04 89.65 C654.76 63.48, 676.63 37.54, 689.78 23.23 M637.69 89.25 C652.71 73.31, 665.17 57.96, 689.52 29.63 M637.69 89.25 C657.15 66.24, 675.53 45.07, 689.52 29.63 M642.67 89.61 C657.28 73.64, 672.87 55.03, 689.25 36.03 M642.67 89.61 C658.99 71.44, 674.6 54.53, 689.25 36.03 M648.32 89.22 C657.04 78.21, 671.53 65.31, 689.65 41.67 M648.32 89.22 C661.58 73.44, 676.09 56.98, 689.65 41.67 M653.3 89.58 C666 76.66, 675.5 63.61, 689.39 48.07 M653.3 89.58 C662.35 79.87, 669.84 71.74, 689.39 48.07 M658.95 89.18 C666.26 80.94, 673.58 73.29, 689.13 54.47 M658.95 89.18 C668.16 77.47, 677.62 66.77, 689.13 54.47 M663.93 89.54 C672.44 78.56, 685.39 66.21, 689.52 60.11 M663.93 89.54 C670.23 83.42, 675.74 75.1, 689.52 60.11 M668.26 90.66 C676.38 81.44, 681.27 74.52, 689.26 66.51 M668.26 90.66 C673.4 85.63, 678.93 79.69, 689.26 66.51 M674.56 89.51 C677.89 83.46, 684.57 78.68, 689 72.91 M674.56 89.51 C680.13 82.75, 686.07 77.95, 689 72.91" stroke="#82c91e" stroke-width="0.5" fill="none"></path><path d="M22.18 0 M22.18 0 C247.11 1.66, 470.79 1.69, 665.85 0 M22.18 0 C271.56 1.82, 521.39 1.84, 665.85 0 M665.85 0 C678.99 -1.84, 686.64 8.74, 688.03 22.18 M665.85 0 C681.27 1.15, 688.22 9.61, 688.03 22.18 M688.03 22.18 C689.84 38.45, 688.95 52.28, 688.03 66.54 M688.03 22.18 C688.47 38.12, 687.9 55.23, 688.03 66.54 M688.03 66.54 C689.41 80.81, 679.47 87.98, 665.85 88.72 M688.03 66.54 C689.43 82.59, 679.66 88.72, 665.85 88.72 M665.85 88.72 C535.31 88.9, 404.25 89.86, 22.18 88.72 M665.85 88.72 C460.82 86.33, 255.41 86.14, 22.18 88.72 M22.18 88.72 C9.18 88.54, -1.61 79.59, 0 66.54 M22.18 88.72 C9.53 89.43, -1.6 82.37, 0 66.54 M0 66.54 C0.26 52.48, 0.47 33.81, 0 22.18 M0 66.54 C-0.89 53.14, -0.97 39.22, 0 22.18 M0 22.18 C-0.15 6.22, 8.66 0.61, 22.18 0 M0 22.18 C-1.61 9.68, 6.4 1.04, 22.18 0" stroke="#5c940d" stroke-width="1" fill="none"></path></g><g transform="translate(277.5142670719525 303.29073304561166) rotate(0 69 12.5)"><text x="0" y="18" font-family="Virgil, Segoe UI Emoji" font-size="20px" fill="#000000" text-anchor="start" style="white-space: pre;" direction="ltr">Reverse proxy</text></g><g stroke-linecap="round"><g transform="translate(516.9799273379572 9.87300026263108) rotate(0 -83.35746246937254 126.24186767189775)"><path d="M-0.55 0.77 C-5.4 9.84, -13.19 45.31, -29.41 54.16 C-45.62 63.02, -76.99 49.27, -97.85 53.91 C-118.7 58.55, -144.61 68.93, -154.55 82 C-164.49 95.06, -165.82 120.77, -157.47 132.3 C-149.13 143.83, -114.49 143.61, -104.49 151.16 C-94.49 158.71, -96.82 170.95, -97.49 177.6 C-98.17 184.26, -98.48 189.15, -108.55 191.07 C-118.62 193, -148.01 187.56, -157.9 189.14 C-167.79 190.72, -166.86 190.1, -167.91 200.56 C-168.96 211.02, -164.67 243.16, -164.2 251.91 M1.36 0.13 C-3.57 9.36, -13.41 46.15, -30.06 55.34 C-46.72 64.52, -77.83 50.62, -98.58 55.22 C-119.33 59.81, -145.02 70.06, -154.57 82.9 C-164.12 95.73, -163.89 120.93, -155.88 132.24 C-147.86 143.55, -116.36 143.38, -106.48 150.75 C-96.59 158.11, -96.04 169.78, -96.57 176.43 C-97.1 183.07, -99.21 188.17, -109.65 190.63 C-120.1 193.09, -149.69 189.53, -159.24 191.19 C-168.79 192.84, -166.21 190.35, -166.97 200.55 C-167.72 210.74, -164.41 243.67, -163.78 252.36" stroke="#000000" stroke-width="1" fill="none"></path></g><g transform="translate(516.9799273379572 9.87300026263108) rotate(0 -83.35746246937254 126.24186767189775)"><path d="M-173.7 229.08 C-173.15 234.89, -168.98 240.51, -164.44 250.48 M-174.55 228.41 C-172.44 233.42, -169.23 238.75, -163.51 253.06" stroke="#000000" stroke-width="1" fill="none"></path></g><g transform="translate(516.9799273379572 9.87300026263108) rotate(0 -83.35746246937254 126.24186767189775)"><path d="M-155.52 227.54 C-159.92 233.69, -160.7 239.73, -164.44 250.48 M-156.37 226.88 C-158.42 232.41, -159.36 238.1, -163.51 253.06" stroke="#000000" stroke-width="1" fill="none"></path></g></g><mask></mask><g stroke-linecap="round" transform="translate(47.19100786122249 472.5507318327345) rotate(0 79.10662527373788 74.67329867875173)"><path d="M6.96 69.65 C6.96 69.65, 6.96 69.65, 6.96 69.65 M6.96 69.65 C6.96 69.65, 6.96 69.65, 6.96 69.65 M6.7 76.05 C9.15 72.5, 12.05 70.64, 16.54 64.73 M6.7 76.05 C8.14 73.05, 10.68 72.01, 16.54 64.73 M8.41 80.18 C32.17 54.19, 54.36 28.27, 66.79 13.01 M8.41 80.18 C28.39 57.77, 50.3 33.84, 66.79 13.01 M10.11 84.32 C24.04 67.72, 36.46 52.62, 77.69 6.58 M10.11 84.32 C35.81 55, 62.37 24.98, 77.69 6.58 M13.13 86.94 C26.15 69.35, 41.47 50.75, 83.99 5.43 M13.13 86.94 C35.88 60.65, 58.81 35.24, 83.99 5.43 M16.15 89.56 C32.89 69.91, 48.3 50.78, 87 8.06 M16.15 89.56 C42.32 61.79, 67.63 32.74, 87 8.06 M19.17 92.19 C35.83 72.41, 56.94 48.99, 90.02 10.68 M19.17 92.19 C34.1 74.65, 46.71 58.02, 90.02 10.68 M21.53 95.57 C45.62 70.18, 66.82 45.93, 93.04 13.3 M21.53 95.57 C40.3 75.02, 58.07 53.34, 93.04 13.3 M24.55 98.19 C49.07 72.23, 74.65 43.43, 96.06 15.93 M24.55 98.19 C46.52 73.74, 67.84 47.73, 96.06 15.93 M27.57 100.82 C51.14 69.32, 80.63 40.67, 99.08 18.55 M27.57 100.82 C47.33 77.05, 68.3 53.73, 99.08 18.55 M30.59 103.44 C51 80.43, 70.44 57.38, 102.1 21.18 M30.59 103.44 C50.35 82.83, 67.5 60.84, 102.1 21.18 M33.61 106.06 C60.23 73.56, 89.35 40.8, 105.12 23.8 M33.61 106.06 C52.73 82.85, 73.83 60.15, 105.12 23.8 M36.63 108.69 C61.59 81.87, 86.36 51.59, 108.14 26.43 M36.63 108.69 C53.26 88.24, 69.86 68.93, 108.14 26.43 M39.64 111.31 C60.98 86.59, 80.84 63.7, 111.15 29.05 M39.64 111.31 C62.69 85.45, 83.46 59.85, 111.15 29.05 M42.66 113.94 C65.85 87.67, 90.93 59.93, 114.17 31.67 M42.66 113.94 C69.92 81.21, 97.16 49.98, 114.17 31.67 M45.03 117.32 C64.58 91.07, 85.75 66.81, 116.54 35.05 M45.03 117.32 C68.29 89.47, 92.93 63.31, 116.54 35.05 M48.04 119.94 C69.19 94.92, 89.61 71.51, 119.56 37.68 M48.04 119.94 C76.97 88.16, 104.23 55.41, 119.56 37.68 M51.06 122.56 C71.64 98.17, 92.9 70.48, 122.57 40.3 M51.06 122.56 C71.81 98.88, 93.54 73.45, 122.57 40.3 M54.08 125.19 C73.06 104.33, 90.15 80.83, 125.59 42.93 M54.08 125.19 C72.24 105.24, 90.85 82.91, 125.59 42.93 M57.1 127.81 C79.67 101.69, 105.2 71.47, 127.96 46.3 M57.1 127.81 C74.88 107.62, 92.11 86.53, 127.96 46.3 M60.12 130.44 C80.24 105.91, 103.59 81.64, 130.97 48.93 M60.12 130.44 C87.01 98.92, 113.86 67.16, 130.97 48.93 M63.14 133.06 C85.94 106.49, 109.03 82.79, 133.99 51.55 M63.14 133.06 C81.52 112.75, 98.72 92.5, 133.99 51.55 M66.16 135.69 C84.9 116.29, 100.98 95.79, 137.01 54.18 M66.16 135.69 C85.83 114.99, 104.15 92.43, 137.01 54.18 M69.18 138.31 C90.01 115.95, 109.61 94.46, 139.38 57.56 M69.18 138.31 C84.28 120.07, 99.39 104.34, 139.38 57.56 M72.2 140.93 C97.21 112.27, 123.16 79.32, 142.39 60.18 M72.2 140.93 C97.97 109.68, 126.74 78.06, 142.39 60.18 M75.21 143.56 C99.2 115.74, 121.9 91.59, 145.41 62.8 M75.21 143.56 C97.72 117.42, 119.21 93.32, 145.41 62.8 M78.89 145.43 C97.81 120.15, 117.87 99.5, 148.43 65.43 M78.89 145.43 C102.23 117.19, 127.47 89, 148.43 65.43 M82.56 147.3 C102.27 122.8, 126.25 97.95, 150.79 68.81 M82.56 147.3 C107.75 118.52, 131.63 89.5, 150.79 68.81 M101.33 131.81 C116.04 115.27, 132.82 95.86, 153.16 72.19 M101.33 131.81 C118.12 111.77, 134.74 91.51, 153.16 72.19" stroke="#ced4da" stroke-width="0.5" fill="none"></path><path d="M100 18.75 M100 18.75 C114.47 30.67, 127.76 47.56, 138.21 56.25 M100 18.75 C107.6 26.95, 117.67 34.63, 138.21 56.25 M138.21 56.25 C156.8 75.55, 157.07 76.03, 138.21 93.75 M138.21 56.25 C159.85 72.92, 159.59 73.03, 138.21 93.75 M138.21 93.75 C122.72 105.14, 110.39 120.81, 100 130.6 M138.21 93.75 C129.13 103.8, 119.77 113.25, 100 130.6 M100 130.6 C80.72 150.32, 78.3 149.37, 60 130.6 M100 130.6 C80.75 150.6, 81.41 147.13, 60 130.6 M60 130.6 C46.35 118.59, 34.75 108.31, 20 93.75 M60 130.6 C49.99 121.7, 39.84 112.87, 20 93.75 M20 93.75 C-0.75 73.03, -1.64 74.62, 20 56.25 M20 93.75 C1.22 73.02, 0.26 75.76, 20 56.25 M20 56.25 C27.84 50.06, 36.15 41.79, 60 18.75 M20 56.25 C30.17 46.75, 39.73 36.54, 60 18.75 M60 18.75 C80.05 -0.68, 80.86 0.17, 100 18.75 M60 18.75 C77.75 -0.91, 80.91 1.17, 100 18.75" stroke="#000000" stroke-width="1" fill="none"></path></g><g transform="translate(120.29763313496034 534.7240305114863) rotate(0 6 11.5)"><text x="6" y="17" font-family="Virgil, Segoe UI Emoji" font-size="20px" fill="#000000" text-anchor="middle" style="white-space: pre;" direction="ltr">/</text></g><g stroke-linecap="round" transform="translate(259.24694193877946 466.7328402521047) rotate(0 77 81)"><path d="M13.07 68.34 C13.07 68.34, 13.07 68.34, 13.07 68.34 M13.07 68.34 C13.07 68.34, 13.07 68.34, 13.07 68.34 M5.59 83.04 C22.36 62.64, 38.33 44.22, 64.64 15.12 M5.59 83.04 C21.13 63.92, 38.39 44.22, 64.64 15.12 M7.3 87.17 C24.98 67.74, 42.17 46.02, 78.16 5.66 M7.3 87.17 C26.01 64.36, 47.35 42.59, 78.16 5.66 M9.01 91.31 C36.68 60.63, 64.07 30.4, 82.49 6.78 M9.01 91.31 C35.51 60.41, 61.92 29.77, 82.49 6.78 M12.03 93.93 C37.14 66.96, 58.26 42.09, 85.51 9.4 M12.03 93.93 C35.18 67.78, 56.84 43.59, 85.51 9.4 M14.39 97.31 C30.05 79.85, 48.98 57.36, 88.52 12.03 M14.39 97.31 C43.54 63.9, 71.06 29.66, 88.52 12.03 M17.41 99.93 C38.9 74.47, 63.57 48.11, 91.54 14.65 M17.41 99.93 C32.51 81.17, 48.05 62.54, 91.54 14.65 M19.77 103.31 C37.82 83.94, 56.54 59.6, 94.56 17.28 M19.77 103.31 C34.43 84.24, 49.99 66.25, 94.56 17.28 M22.79 105.94 C45.95 80.7, 67.34 51.82, 97.58 19.9 M22.79 105.94 C50.95 72.32, 81.35 37.92, 97.58 19.9 M25.81 108.56 C47.82 80.71, 71.22 52.93, 99.94 23.28 M25.81 108.56 C51.69 78.29, 78.48 46.37, 99.94 23.28 M28.83 111.19 C58.88 75.83, 88.35 43.64, 102.96 25.9 M28.83 111.19 C57.96 78.5, 88.37 43.92, 102.96 25.9 M31.19 114.56 C54.11 91.78, 74.7 64.43, 105.98 28.53 M31.19 114.56 C53.21 90.31, 73.12 65.91, 105.98 28.53 M34.21 117.19 C58.27 89.06, 82.21 63.99, 108.34 31.91 M34.21 117.19 C50.96 101.06, 64.98 81.91, 108.34 31.91 M37.23 119.81 C62.56 91.38, 90.79 59.85, 111.36 34.53 M37.23 119.81 C62.09 90.06, 88.38 61.7, 111.36 34.53 M39.59 123.19 C62.2 98.02, 80.35 74.52, 113.73 37.91 M39.59 123.19 C68.75 89.62, 97.06 56.28, 113.73 37.91 M42.61 125.82 C63.28 103.51, 81.24 81.82, 116.74 40.53 M42.61 125.82 C70.46 93.21, 97.17 62.45, 116.74 40.53 M45.63 128.44 C68.58 102.73, 92.67 74.34, 119.11 43.91 M45.63 128.44 C71.28 100.04, 95.97 72.68, 119.11 43.91 M48.65 131.06 C65.56 110.14, 88.59 87.42, 122.13 46.54 M48.65 131.06 C72.66 102.27, 98.29 73.02, 122.13 46.54 M51.01 134.44 C74.91 108.63, 95.94 82.32, 124.49 49.92 M51.01 134.44 C68.81 115.41, 84.64 97.67, 124.49 49.92 M54.03 137.07 C72.02 116.66, 89.85 96.92, 127.51 52.54 M54.03 137.07 C77.23 109.44, 100.28 83.12, 127.51 52.54 M57.05 139.69 C84.14 107.07, 115.72 73.29, 129.87 55.92 M57.05 139.69 C74.14 120.99, 90.77 99.88, 129.87 55.92 M59.41 143.07 C85.86 111.96, 109.68 83.25, 132.89 58.54 M59.41 143.07 C77.29 123.26, 95.36 102.88, 132.89 58.54 M62.43 145.7 C86.83 116.34, 114.23 87.72, 135.25 61.92 M62.43 145.7 C89.77 114.22, 116.87 85.07, 135.25 61.92 M65.45 148.32 C91.46 119.36, 114.55 90.19, 138.27 64.55 M65.45 148.32 C93.88 117.1, 122.96 84.67, 138.27 64.55 M68.47 150.94 C86.3 133.91, 101.67 115.44, 140.63 67.93 M68.47 150.94 C96.53 118.95, 125.86 85.59, 140.63 67.93 M71.49 153.57 C93.15 129.43, 110.92 104.76, 143.65 70.55 M71.49 153.57 C93.98 126.18, 118.82 99.9, 143.65 70.55 M74.51 156.19 C93.51 136.02, 112.32 113.85, 146.02 73.93 M74.51 156.19 C98.28 127.74, 122.22 101.65, 146.02 73.93 M78.84 157.31 C105.72 124.11, 131.08 96.62, 148.38 77.31 M78.84 157.31 C102.99 131.25, 124.66 104.37, 148.38 77.31 M97.6 141.82 C118.23 119.45, 139.71 93.51, 149.43 82.2 M97.6 141.82 C117.05 118.85, 136.84 97.79, 149.43 82.2" stroke="#ced4da" stroke-width="0.5" fill="none"></path><path d="M97.5 20.5 M97.5 20.5 C107.32 29.82, 113.11 40.42, 134.5 61.5 M97.5 20.5 C110.62 36.12, 125.77 51.47, 134.5 61.5 M134.5 61.5 C152.01 80.89, 153.73 83.23, 134.5 102.5 M134.5 61.5 C155.81 84.13, 155.54 82.12, 134.5 102.5 M134.5 102.5 C120.35 118.48, 106.62 132.37, 97.5 141.5 M134.5 102.5 C124.47 113.81, 115.16 123.95, 97.5 141.5 M97.5 141.5 C76.09 163.01, 76.94 163.26, 58.5 141.5 M97.5 141.5 C78.1 162.66, 77.7 160.54, 58.5 141.5 M58.5 141.5 C46.93 131.3, 35.4 116.09, 19.5 102.5 M58.5 141.5 C43.58 125.4, 27.96 109.84, 19.5 102.5 M19.5 102.5 C1.46 80.82, -1.98 83.8, 19.5 61.5 M19.5 102.5 C1.18 83.84, -2.06 81.2, 19.5 61.5 M19.5 61.5 C32.41 47.8, 44.76 33.72, 58.5 20.5 M19.5 61.5 C33.55 46.95, 47.72 33.35, 58.5 20.5 M58.5 20.5 C78.27 -0.77, 78.61 0.58, 97.5 20.5 M58.5 20.5 C77.88 -1.02, 78.55 -2.21, 97.5 20.5" stroke="#000000" stroke-width="1" fill="none"></path></g><g transform="translate(268.24694193877946 527.7328402521048) rotate(0 68 20)"><text x="68" y="14" font-family="Virgil, Segoe UI Emoji" font-size="16px" fill="#000000" text-anchor="middle" style="white-space: pre;" direction="ltr">/.well-known/matri</text><text x="68" y="34" font-family="Virgil, Segoe UI Emoji" font-size="16px" fill="#000000" text-anchor="middle" style="white-space: pre;" direction="ltr">x</text></g><g stroke-linecap="round" transform="translate(489.5313634220012 477.01318672335117) rotate(0 79.10662527373785 74.67329867875173)"><path d="M6.96 69.65 C6.96 69.65, 6.96 69.65, 6.96 69.65 M6.96 69.65 C6.96 69.65, 6.96 69.65, 6.96 69.65 M6.7 76.05 C9.92 73.66, 12.69 70.56, 16.54 64.73 M6.7 76.05 C9.48 72.28, 13.99 68.76, 16.54 64.73 M8.41 80.18 C25.41 58.19, 44.98 37.59, 66.79 13.01 M8.41 80.18 C24.85 61.05, 40.56 42.41, 66.79 13.01 M10.11 84.32 C34.02 55.76, 59.76 26.97, 77.69 6.58 M10.11 84.32 C36.12 53.71, 61.66 23.83, 77.69 6.58 M13.13 86.94 C31.89 64.33, 50.36 43.74, 83.99 5.43 M13.13 86.94 C34.78 61.41, 56.83 35.68, 83.99 5.43 M16.15 89.56 C36.62 65.78, 56.32 43.3, 87 8.06 M16.15 89.56 C36.05 65.4, 56.35 42.15, 87 8.06 M19.17 92.19 C44.72 64.67, 66.25 38.56, 90.02 10.68 M19.17 92.19 C39.34 67.19, 61.79 44.07, 90.02 10.68 M21.53 95.57 C39.75 72.66, 59.21 53.76, 93.04 13.3 M21.53 95.57 C36.45 78.21, 51.72 62, 93.04 13.3 M24.55 98.19 C45.49 73.62, 65.74 51.68, 96.06 15.93 M24.55 98.19 C46.69 72.02, 68.11 47.24, 96.06 15.93 M27.57 100.82 C55.1 70.84, 80.57 40.05, 99.08 18.55 M27.57 100.82 C45.27 80.17, 64.45 59.13, 99.08 18.55 M30.59 103.44 C52.36 78.69, 71.73 55.92, 102.1 21.18 M30.59 103.44 C48.11 84.12, 63.55 65.77, 102.1 21.18 M33.61 106.06 C52.42 85.77, 71.61 62.3, 105.12 23.8 M33.61 106.06 C53.86 83.59, 74.79 60.22, 105.12 23.8 M36.63 108.69 C63.33 81.89, 84.45 52.14, 108.14 26.43 M36.63 108.69 C54.32 89.59, 70.55 70.09, 108.14 26.43 M39.64 111.31 C68.33 79.64, 97.58 45.49, 111.15 29.05 M39.64 111.31 C60.31 86.69, 80.99 63.08, 111.15 29.05 M42.66 113.94 C60.68 91.88, 79.27 70.11, 114.17 31.67 M42.66 113.94 C66 87.41, 89.38 61.38, 114.17 31.67 M45.03 117.32 C61.09 96.7, 80.12 72.7, 116.54 35.05 M45.03 117.32 C60.5 98.82, 78.34 79.97, 116.54 35.05 M48.04 119.94 C64.4 103.45, 76.94 86.79, 119.56 37.68 M48.04 119.94 C70.15 92.79, 94.67 66.61, 119.56 37.68 M51.06 122.56 C75.09 97.17, 96.74 70.47, 122.57 40.3 M51.06 122.56 C78.48 89.39, 108.08 55.67, 122.57 40.3 M54.08 125.19 C70.87 105.73, 85.66 87.43, 125.59 42.93 M54.08 125.19 C77.5 98.08, 103.41 68.59, 125.59 42.93 M57.1 127.81 C75.57 107.48, 90.66 87.25, 127.96 46.3 M57.1 127.81 C74.16 109.26, 91.16 89.78, 127.96 46.3 M60.12 130.44 C77.51 110.87, 97.6 90.49, 130.97 48.93 M60.12 130.44 C81.19 105.82, 104.89 80.16, 130.97 48.93 M63.14 133.06 C84.21 107.63, 111.07 80.97, 133.99 51.55 M63.14 133.06 C85.9 106.59, 108.39 81.41, 133.99 51.55 M66.16 135.69 C94.84 106.18, 119.82 74.6, 137.01 54.18 M66.16 135.69 C83.5 116.9, 98.53 98.9, 137.01 54.18 M69.18 138.31 C85.39 117.44, 104.77 100.96, 139.38 57.56 M69.18 138.31 C82.31 121.14, 98.18 105.26, 139.38 57.56 M72.2 140.93 C96.17 113.72, 118.47 88.08, 142.39 60.18 M72.2 140.93 C95.24 114.56, 117.9 88.59, 142.39 60.18 M75.21 143.56 C94.16 123.49, 114.63 99.42, 145.41 62.8 M75.21 143.56 C99.78 116.18, 125.35 86.76, 145.41 62.8 M78.89 145.43 C104.23 116.88, 131.3 85.01, 148.43 65.43 M78.89 145.43 C97.49 123.74, 117.32 102.04, 148.43 65.43 M82.56 147.3 C101.94 120.99, 124.71 96.71, 150.79 68.81 M82.56 147.3 C95.6 129.96, 111.64 113.58, 150.79 68.81 M101.33 131.81 C115.69 113.04, 131.84 97.58, 153.16 72.19 M101.33 131.81 C112.57 119.58, 123.23 107.21, 153.16 72.19" stroke="#ced4da" stroke-width="0.5" fill="none"></path><path d="M100 18.75 M100 18.75 C111.04 26.79, 118.92 38.8, 138.21 56.25 M100 18.75 C113.26 30.53, 127.13 44.93, 138.21 56.25 M138.21 56.25 C159.14 74.14, 158.6 75.05, 138.21 93.75 M138.21 56.25 C157.1 74.91, 157.45 75.16, 138.21 93.75 M138.21 93.75 C123.23 108.12, 109.02 122.98, 100 130.6 M138.21 93.75 C129.35 102.45, 120.76 111.6, 100 130.6 M100 130.6 C80.63 148.77, 79.8 150.5, 60 130.6 M100 130.6 C81.5 147.1, 80.07 148.49, 60 130.6 M60 130.6 C49.51 122.24, 40.27 110.85, 20 93.75 M60 130.6 C50.13 121.52, 38.33 111.4, 20 93.75 M20 93.75 C-1.55 74.58, 0.27 75.55, 20 56.25 M20 93.75 C0.66 74.98, -0.52 74.91, 20 56.25 M20 56.25 C32.16 42.8, 44.83 32.63, 60 18.75 M20 56.25 C32.62 44.37, 45.6 31.65, 60 18.75 M60 18.75 C80.68 1.87, 78.92 0.38, 100 18.75 M60 18.75 C78.13 0.13, 81.63 1.28, 100 18.75" stroke="#000000" stroke-width="1" fill="none"></path></g><g transform="translate(504.637988695739 539.9364854021029) rotate(0 64 11.5)"><text x="64" y="17" font-family="Virgil, Segoe UI Emoji" font-size="20px" fill="#000000" text-anchor="middle" style="white-space: pre;" direction="ltr">matrix.$host</text></g><g stroke-linecap="round"><g transform="translate(233.3052818501164 380.4082233210905) rotate(0 -48.52795470762425 42.26290521290858)"><path d="M-0.94 -0.49 C-1.21 4.4, 4.53 21.97, -1.75 29.79 C-8.02 37.61, -24.96 44.31, -38.59 46.43 C-52.22 48.56, -73.52 36.04, -83.52 42.54 C-93.52 49.04, -96.21 78.45, -98.57 85.43 M0.77 -1.79 C0.44 2.7, 4.03 19.71, -2.11 27.91 C-8.26 36.1, -22.5 44.75, -36.09 47.4 C-49.68 50.04, -73.54 37.28, -83.66 43.77 C-93.78 50.25, -94.73 79.72, -96.83 86.31" stroke="#000000" stroke-width="1" fill="none"></path></g><g transform="translate(233.3052818501164 380.4082233210905) rotate(0 -48.52795470762425 42.26290521290858)"><path d="M-101.64 66.13 C-98.8 69.53, -99.52 76.01, -96.43 84.91 M-100.65 65.28 C-100.27 72.37, -98.12 81.43, -96.79 86.14" stroke="#000000" stroke-width="1" fill="none"></path></g><g transform="translate(233.3052818501164 380.4082233210905) rotate(0 -48.52795470762425 42.26290521290858)"><path d="M-86.55 68.71 C-88.14 71.23, -93.28 76.96, -96.43 84.91 M-85.56 67.86 C-90.89 73.96, -94.43 82.05, -96.79 86.14" stroke="#000000" stroke-width="1" fill="none"></path></g></g><mask></mask><g stroke-linecap="round"><g transform="translate(337.56904511686474 372.8115638206152) rotate(0 0.6091729315960492 41.834728792254225)"><path d="M0.64 0.26 C0.97 14.01, 1.55 68.98, 1.7 82.78 M-0.48 -0.65 C-0.22 13.28, 0.92 70.11, 1.18 84.32" stroke="#000000" stroke-width="1" fill="none"></path></g><g transform="translate(337.56904511686474 372.8115638206152) rotate(0 0.6091729315960492 41.834728792254225)"><path d="M-9.19 57.71 C-6.53 65.21, -2.99 71.41, 0.42 82.45 M-10.03 56.9 C-6.28 63.29, -3.84 72.71, 1.33 84.68" stroke="#000000" stroke-width="1" fill="none"></path></g><g transform="translate(337.56904511686474 372.8115638206152) rotate(0 0.6091729315960492 41.834728792254225)"><path d="M11.33 57.31 C8.23 65.04, 6.02 71.35, 0.42 82.45 M10.48 56.5 C8.57 63.09, 5.34 72.62, 1.33 84.68" stroke="#000000" stroke-width="1" fill="none"></path></g></g><mask></mask><g stroke-linecap="round"><g transform="translate(467.41133572008044 377.70511748656554) rotate(0 50.615552011590125 49.980635483097075)"><path d="M-0.56 0.84 C5.43 6.84, 22.23 29.48, 37.11 36.19 C51.99 42.9, 78.05 30.49, 88.72 41.08 C99.4 51.67, 99.41 90.08, 101.18 99.73 M1.35 0.23 C7.07 5.84, 21.68 27.25, 36.09 34.27 C50.49 41.28, 76.83 31.78, 87.78 42.33 C98.73 52.88, 99.6 88.07, 101.79 97.58" stroke="#000000" stroke-width="1" fill="none"></path></g><g transform="translate(467.41133572008044 377.70511748656554) rotate(0 50.615552011590125 49.980635483097075)"><path d="M89.49 71.32 C94.21 81.38, 98.83 93.47, 103.1 95.63 M88.14 70.88 C92.25 80.35, 97.14 87.48, 101.34 98.39" stroke="#000000" stroke-width="1" fill="none"></path></g><g transform="translate(467.41133572008044 377.70511748656554) rotate(0 50.615552011590125 49.980635483097075)"><path d="M109.44 68.6 C106.23 79.66, 102.91 92.82, 103.1 95.63 M108.09 68.17 C106.14 78.4, 104.98 86.35, 101.34 98.39" stroke="#000000" stroke-width="1" fill="none"></path></g></g><mask></mask><g stroke-linecap="round"><g transform="translate(338.1516110294778 639.8675457079783) rotate(0 25.766458656409498 16.66754370269921)"><path d="M0.15 0.71 C1.08 4.98, -2.87 20.53, 5.89 25.96 C14.66 31.39, 44.87 32.02, 52.76 33.29 M-1.23 0.04 C-0.43 3.93, -3.59 18.95, 5.28 24.13 C14.15 29.32, 43.92 29.95, 52.01 31.15" stroke="#000000" stroke-width="1" fill="none"></path></g><g transform="translate(338.1516110294778 639.8675457079783) rotate(0 25.766458656409498 16.66754370269921)"><path d="M29.96 38.4 C37.25 35.32, 44.53 34.13, 53.11 32.91 M28.99 36.46 C36.08 34.38, 44.89 33.26, 52.25 32.02" stroke="#000000" stroke-width="1" fill="none"></path></g><g transform="translate(338.1516110294778 639.8675457079783) rotate(0 25.766458656409498 16.66754370269921)"><path d="M31.42 22.02 C38.28 24.27, 45.08 28.42, 53.11 32.91 M30.45 20.09 C36.96 23.84, 45.25 28.55, 52.25 32.02" stroke="#000000" stroke-width="1" fill="none"></path></g></g><mask></mask><g transform="translate(413.13949530104065 668.9244919259805) rotate(0 99.5 30)"><text x="0" y="14" font-family="Virgil, Segoe UI Emoji" font-size="16px" fill="#000000" text-anchor="start" style="white-space: pre;" direction="ltr">Send direct path to</text><text x="0" y="34" font-family="Virgil, Segoe UI Emoji" font-size="16px" fill="#000000" text-anchor="start" style="white-space: pre;" direction="ltr">matrix homeserver in json</text><text x="0" y="54" font-family="Virgil, Segoe UI Emoji" font-size="16px" fill="#000000" text-anchor="start" style="white-space: pre;" direction="ltr">key "m.server"</text></g><g stroke-linecap="round"><g transform="translate(133.8955284299572 632.2694941326714) rotate(0 108.73119389979325 105.14169904914067)"><path d="M0.8 -0.28 C0.79 7.31, -2.69 36.68, -0.04 46.08 C2.61 55.49, -0.29 53.39, 16.68 56.16 C33.65 58.93, 78.57 63.32, 101.77 62.69 C124.96 62.06, 137.87 49.36, 155.85 52.37 C173.84 55.39, 199.21 54.22, 209.67 80.79 C220.12 107.35, 217.09 189.92, 218.57 211.76 M-0.24 -1.48 C-0.34 6.25, -3.21 38.15, -0.55 47.47 C2.1 56.78, -1.42 51.68, 15.7 54.42 C32.81 57.15, 79.03 64.22, 102.13 63.86 C125.23 63.51, 136.22 49.57, 154.3 52.3 C172.39 55.03, 199.83 53.85, 210.64 80.25 C221.44 106.65, 218.01 188.78, 219.14 210.7" stroke="#000000" stroke-width="1" fill="none"></path></g><g transform="translate(133.8955284299572 632.2694941326714) rotate(0 108.73119389979325 105.14169904914067)"><path d="M208.15 183.99 C211.45 190.39, 217.05 199.97, 219.37 210.46 M208.5 183.06 C210.68 189.41, 213.45 196.01, 219.86 210.19" stroke="#000000" stroke-width="1" fill="none"></path></g><g transform="translate(133.8955284299572 632.2694941326714) rotate(0 108.73119389979325 105.14169904914067)"><path d="M228.67 183.81 C225.74 190.4, 225.1 200.04, 219.37 210.46 M229.02 182.88 C226.54 189.43, 224.65 196.07, 219.86 210.19" stroke="#000000" stroke-width="1" fill="none"></path></g></g><mask></mask><g stroke-linecap="round"><g transform="translate(652.6269919457238 551.0461725825976) rotate(0 41.33305286563126 406.89361695072193)"><path d="M3.65 -0.77 C17.8 -0.52, 64.5 -1.82, 87.44 0.62 C110.38 3.06, 127.5 5.39, 141.29 13.86 C155.08 22.33, 164.72 33.44, 170.18 51.43 C175.64 69.41, 172.28 23.93, 174.07 121.77 C175.86 219.61, 189.69 529.53, 180.93 638.47 C172.18 747.41, 150.27 746.46, 121.56 775.42 C92.85 804.37, 45.98 806.21, 8.65 812.19 C-28.68 818.17, -84.18 811.55, -102.4 811.3 M2.82 1.44 C16.87 1.91, 63.99 0.09, 86.91 1.84 C109.82 3.59, 126.42 3.5, 140.3 11.95 C154.19 20.39, 164.27 34.19, 170.22 52.52 C176.17 70.85, 174.05 24.44, 176 121.93 C177.95 219.42, 190.92 528.67, 181.93 637.47 C172.95 746.26, 151.06 745.58, 122.11 774.7 C93.16 803.81, 45.39 806.29, 8.24 812.16 C-28.9 818.03, -82.2 810.3, -100.75 809.92" stroke="#000000" stroke-width="1" fill="none"></path></g><g transform="translate(652.6269919457238 551.0461725825976) rotate(0 41.33305286563126 406.89361695072193)"><path d="M-73.18 803.02 C-81.85 803.81, -88.36 806.38, -100.77 809.11 M-72.05 802.69 C-78.57 804.37, -87.67 806.06, -99.85 809.43" stroke="#000000" stroke-width="1" fill="none"></path></g><g transform="translate(652.6269919457238 551.0461725825976) rotate(0 41.33305286563126 406.89361695072193)"><path d="M-74.64 823.49 C-82.71 817.96, -88.78 814.23, -100.77 809.11 M-73.5 823.15 C-79.51 819.45, -88.22 815.75, -99.85 809.43" stroke="#000000" stroke-width="1" fill="none"></path></g></g><mask></mask><g transform="translate(435.86395537820994 307.5432684014179) rotate(0 65.5 12.5)"><text x="0" y="18" font-family="Virgil, Segoe UI Emoji" font-size="20px" fill="#000000" text-anchor="start" style="white-space: pre;" direction="ltr">(root domain)</text></g><g transform="translate(540.9933469960265 52.589180233345246) rotate(0 55 12.5)"><text x="0" y="18" font-family="Virgil, Segoe UI Emoji" font-size="20px" fill="#000000" text-anchor="start" style="white-space: pre;" direction="ltr">connections</text></g></svg>