<svg version="1.1" xmlns="http://www.w3.org/2000/svg" viewBox="0 0 2657.4871977197035 737.6459534184951" width="5314.974395439407" height="1475.2919068369902">
  <!-- svg-source:excalidraw -->
  
  <defs>
    <style class="style-fonts">
      @font-face {
        font-family: "Virgil";
        src: url("https://unpkg.com/@excalidraw/excalidraw@0.14.2/dist/excalidraw-assets/Virgil.woff2");
      }
      @font-face {
        font-family: "Cascadia";
        src: url("https://unpkg.com/@excalidraw/excalidraw@0.14.2/dist/excalidraw-assets/Cascadia.woff2");
      }
    </style>
  </defs>
  <rect x="0" y="0" width="2657.4871977197035" height="737.6459534184951" fill="#ffffff"></rect><g stroke-linecap="round" transform="translate(10 51.062092586947074) rotate(0 350.2374886800132 320.6347459483675)"><path d="M32 0 M32 0 C167.83 0.34, 305.41 0.09, 668.47 0 M32 0 C260.47 0.01, 488.59 0.18, 668.47 0 M668.47 0 C689.63 -1.42, 699.62 11.63, 700.47 32 M668.47 0 C690.17 1.22, 701.83 10.58, 700.47 32 M700.47 32 C698.44 201.54, 699.26 370.45, 700.47 609.27 M700.47 32 C702.05 252.05, 701.94 471.44, 700.47 609.27 M700.47 609.27 C699.9 629.93, 689.61 642.93, 668.47 641.27 M700.47 609.27 C702.45 630.1, 688.97 642, 668.47 641.27 M668.47 641.27 C533.32 638.52, 397.66 639.57, 32 641.27 M668.47 641.27 C420.53 641.85, 173.5 641.63, 32 641.27 M32 641.27 C10.3 640.46, 1.31 629.42, 0 609.27 M32 641.27 C11.6 641.52, 1.87 628.76, 0 609.27 M0 609.27 C-2.06 485.6, -2.2 360.54, 0 32 M0 609.27 C-1.01 425.46, -0.93 241.27, 0 32 M0 32 C1.31 11.08, 11.58 -1.38, 32 0 M0 32 C-0.47 9.27, 9.9 0.21, 32 0" stroke="#000000" stroke-width="1" fill="none"></path></g><g stroke-linecap="round" transform="translate(141.81914703720537 98.11970240706933) rotate(0 206.19862860652063 77.26173303636608)"><path d="M7.86 8.16 C7.86 8.16, 7.86 8.16, 7.86 8.16 M7.86 8.16 C7.86 8.16, 7.86 8.16, 7.86 8.16 M3.66 19.09 C7.36 16.27, 11.53 11.33, 18.1 2.48 M3.66 19.09 C7.3 14.91, 12.54 10, 18.1 2.48 M2.75 26.24 C11.44 18.15, 19.14 6.94, 24.4 1.33 M2.75 26.24 C9.54 20.36, 14.37 12.37, 24.4 1.33 M2.48 32.64 C10.36 22.18, 20.23 10.33, 30.7 0.18 M2.48 32.64 C12.75 19.85, 23.46 9.33, 30.7 0.18 M2.88 38.28 C13.46 26.64, 22.16 17.46, 34.37 2.05 M2.88 38.28 C16.04 24.01, 27.11 11.64, 34.37 2.05 M2.62 44.68 C13.38 32.33, 21.41 23.01, 39.36 2.41 M2.62 44.68 C11.92 34.19, 20.33 22.82, 39.36 2.41 M2.36 51.07 C13.32 37.4, 23.31 27.29, 45 2.02 M2.36 51.07 C12.37 41.51, 20 29.53, 45 2.02 M2.75 56.72 C17.82 40.44, 29.31 29.58, 49.99 2.38 M2.75 56.72 C18.81 37.32, 35.59 18.88, 49.99 2.38 M2.49 63.11 C20.41 42.74, 35.91 24.41, 55.63 1.98 M2.49 63.11 C17.85 46.62, 32.02 29.35, 55.63 1.98 M2.88 68.76 C22.15 45.8, 44.19 23.67, 60.62 2.34 M2.88 68.76 C24.77 42.91, 47.75 17.12, 60.62 2.34 M2.62 75.16 C24.16 50.11, 45.31 26.17, 66.26 1.95 M2.62 75.16 C21.85 52.57, 41.06 30.93, 66.26 1.95 M2.36 81.55 C26.67 53.03, 50.59 27.53, 71.25 2.31 M2.36 81.55 C20.01 60.17, 39.36 37.43, 71.25 2.31 M2.76 87.2 C28.86 55.85, 59.52 24.83, 76.89 1.91 M2.76 87.2 C25.1 63.99, 46.68 38.07, 76.89 1.91 M2.49 93.59 C23.81 70.3, 47.13 43.81, 81.88 2.27 M2.49 93.59 C21.42 72.19, 38.9 51.09, 81.88 2.27 M2.89 99.24 C25.32 71.48, 46.32 45.77, 87.52 1.88 M2.89 99.24 C24.65 73.13, 47.3 49.16, 87.52 1.88 M2.63 105.64 C34.83 70.13, 67.49 30.21, 92.51 2.24 M2.63 105.64 C26.24 77.94, 52.24 49.94, 92.51 2.24 M2.37 112.03 C29.82 79.68, 60.82 45.61, 98.15 1.85 M2.37 112.03 C33.71 77.05, 62.73 43.2, 98.15 1.85 M2.76 117.68 C30.68 86.05, 54.66 57.45, 103.14 2.21 M2.76 117.68 C33.64 82.3, 63.99 45.88, 103.14 2.21 M2.5 124.07 C34.46 85.68, 63.89 51.67, 108.78 1.81 M2.5 124.07 C43.25 79.11, 82.3 31.71, 108.78 1.81 M1.58 131.23 C23.96 105.28, 47.14 76.21, 113.77 2.17 M1.58 131.23 C27.74 103.2, 50.24 76.58, 113.77 2.17 M3.29 135.36 C46.96 83.87, 89.71 34.54, 119.41 1.78 M3.29 135.36 C27.79 106.54, 53.46 76.62, 119.41 1.78 M4.34 140.25 C30.59 105.81, 61.44 75.61, 124.4 2.14 M4.34 140.25 C31.03 108.76, 58.07 75.95, 124.4 2.14 M6.7 143.63 C49.05 97.2, 91.02 49.9, 130.04 1.74 M6.7 143.63 C39.31 103.83, 74.45 64.9, 130.04 1.74 M9.06 147.01 C36.36 118.99, 59.49 89.94, 135.03 2.1 M9.06 147.01 C49.16 101.23, 89.8 53.38, 135.03 2.1 M12.08 149.63 C56.72 98.31, 95.79 52.77, 140.67 1.71 M12.08 149.63 C39.33 116.93, 67.59 85.13, 140.67 1.71 M15.1 152.25 C61.78 101.69, 104.52 49.12, 145.66 2.07 M15.1 152.25 C43.09 119.3, 73.1 85.93, 145.66 2.07 M19.43 153.37 C64.18 99.14, 109.96 47.31, 150.65 2.43 M19.43 153.37 C65.48 98.26, 112.39 43.6, 150.65 2.43 M23.76 154.48 C65.42 109.72, 103.57 60.37, 156.29 2.03 M23.76 154.48 C74.31 97.58, 124.16 40.29, 156.29 2.03 M28.75 154.84 C78.09 100.09, 121.7 46.84, 161.28 2.39 M28.75 154.84 C63.01 114.55, 98.36 74.7, 161.28 2.39 M33.08 155.96 C81.93 101.2, 130.98 43.93, 166.92 2 M33.08 155.96 C61.05 125.11, 88.81 91.39, 166.92 2 M38.73 155.56 C86.76 101.88, 131.23 50.77, 171.91 2.36 M38.73 155.56 C84.27 102.74, 130 49.38, 171.91 2.36 M43.71 155.92 C94.5 98.88, 141.34 44.06, 177.55 1.96 M43.71 155.92 C82.54 111.55, 121.37 67.67, 177.55 1.96 M49.36 155.53 C87.55 111.77, 122.01 71.29, 182.54 2.32 M49.36 155.53 C84.72 114.91, 119.87 74.56, 182.54 2.32 M54.34 155.89 C101.56 100.77, 151.7 46.49, 188.18 1.93 M54.34 155.89 C94.72 109.07, 135.63 63.68, 188.18 1.93 M59.99 155.5 C111.36 96.5, 160.59 38.71, 193.17 2.29 M59.99 155.5 C102.94 105.27, 147.09 55.75, 193.17 2.29 M64.97 155.86 C96.25 123.41, 123.79 88.05, 198.81 1.9 M64.97 155.86 C106.31 106.12, 150.36 56.5, 198.81 1.9 M70.62 155.46 C123.84 94.26, 176.49 33.03, 203.8 2.26 M70.62 155.46 C108.44 111.5, 146.98 67.74, 203.8 2.26 M75.6 155.82 C104.25 122.52, 136.24 88.01, 209.44 1.86 M75.6 155.82 C121.6 103.05, 168.31 49.58, 209.44 1.86 M81.25 155.43 C129 96.25, 179.76 42.54, 214.43 2.22 M81.25 155.43 C124.3 105.63, 168.89 53.92, 214.43 2.22 M86.23 155.79 C113.6 120.86, 146.53 84.91, 220.07 1.83 M86.23 155.79 C128.61 106.76, 169.74 60.17, 220.07 1.83 M91.88 155.39 C125 118.65, 156.3 82.88, 225.06 2.19 M91.88 155.39 C135.24 104.74, 179.38 55.89, 225.06 2.19 M96.86 155.75 C137.91 108.78, 177.42 62.51, 230.7 1.79 M96.86 155.75 C141.55 104.69, 185.22 53.63, 230.7 1.79 M102.51 155.36 C136.55 113.92, 171.5 75.61, 235.69 2.15 M102.51 155.36 C150.17 101.04, 195.87 46.34, 235.69 2.15 M107.49 155.72 C154.88 105.75, 198.33 55.04, 241.33 1.76 M107.49 155.72 C138.7 120.4, 169.28 83.84, 241.33 1.76 M113.14 155.32 C163.02 96.15, 216.9 36.87, 246.32 2.12 M113.14 155.32 C158.98 99.93, 206.21 46.22, 246.32 2.12 M118.12 155.68 C170.29 95.23, 221.45 34.85, 251.96 1.72 M118.12 155.68 C146.64 123.65, 173.85 92.97, 251.96 1.72 M123.11 156.04 C162.61 114.1, 198.16 71.73, 256.95 2.08 M123.11 156.04 C163.22 105.97, 206.49 58.38, 256.95 2.08 M128.75 155.65 C175.71 98.14, 227.33 43.82, 262.59 1.69 M128.75 155.65 C180.35 97.86, 231.24 37.01, 262.59 1.69 M133.74 156.01 C173.93 113.79, 210.52 66.43, 267.58 2.05 M133.74 156.01 C170.64 114.88, 207.31 73.09, 267.58 2.05 M139.38 155.61 C186.15 104.42, 230.86 49.36, 272.56 2.41 M139.38 155.61 C175.39 115.47, 211.22 75.11, 272.56 2.41 M144.37 155.97 C179.44 112.47, 214.93 70.06, 278.21 2.01 M144.37 155.97 C185.32 109.34, 225.22 64, 278.21 2.01 M150.01 155.58 C175.98 125.13, 203.9 92.61, 283.19 2.37 M150.01 155.58 C184.45 114.6, 219.92 74.13, 283.19 2.37 M155 155.94 C182.86 122.39, 208.94 91.49, 288.84 1.98 M155 155.94 C200.86 103.9, 244.7 52.47, 288.84 1.98 M160.64 155.55 C194.33 117.51, 226.44 80.35, 293.82 2.34 M160.64 155.55 C208.11 100.41, 256.37 46.41, 293.82 2.34 M165.63 155.91 C214.65 99.01, 262.74 45.05, 299.47 1.94 M165.63 155.91 C213 101, 261.3 46.76, 299.47 1.94 M171.27 155.51 C219.06 98.2, 270.63 41, 304.45 2.3 M171.27 155.51 C209 113.11, 247.29 69.83, 304.45 2.3 M176.26 155.87 C214.4 109.29, 257.06 65.64, 310.1 1.91 M176.26 155.87 C224.15 99.3, 273.7 41.47, 310.1 1.91 M181.9 155.48 C216.44 117.58, 251.18 75.88, 315.08 2.27 M181.9 155.48 C218.82 112.87, 256.85 68.25, 315.08 2.27 M186.89 155.84 C226.45 110.17, 266.09 64.54, 320.73 1.88 M186.89 155.84 C220.33 117.91, 255.32 77.91, 320.73 1.88 M192.53 155.44 C225.15 118.13, 255.18 84.2, 325.71 2.24 M192.53 155.44 C219.93 124.07, 247.59 92.91, 325.71 2.24 M197.52 155.8 C239.93 106.07, 285.16 55.15, 331.36 1.84 M197.52 155.8 C241.47 107.61, 283.43 57.53, 331.36 1.84 M203.16 155.41 C253.33 99.96, 304 40.43, 336.34 2.2 M203.16 155.41 C254.7 95.22, 306.8 36.29, 336.34 2.2 M208.15 155.77 C246.86 111.02, 283.48 70.03, 341.99 1.81 M208.15 155.77 C253.01 103.57, 298.43 52.28, 341.99 1.81 M213.79 155.37 C239.81 124.81, 268.48 91.83, 346.97 2.17 M213.79 155.37 C260.98 100.33, 308.14 44.38, 346.97 2.17 M218.78 155.73 C264.35 104.89, 311.97 51.98, 352.62 1.77 M218.78 155.73 C257.41 110.6, 297.4 64.83, 352.62 1.77 M224.42 155.34 C256.29 117.48, 287.65 82.45, 357.6 2.13 M224.42 155.34 C273.39 100.92, 320.61 44.32, 357.6 2.13 M229.41 155.7 C282.9 97.2, 335.54 35.22, 363.25 1.74 M229.41 155.7 C266.7 111.81, 303.04 69.82, 363.25 1.74 M235.05 155.3 C284.3 98.97, 336.28 38.67, 368.23 2.1 M235.05 155.3 C264.34 123.33, 293.33 91.23, 368.23 2.1 M240.04 155.66 C269.24 122.52, 298.49 88.59, 373.88 1.7 M240.04 155.66 C287.76 97.89, 336.51 41.36, 373.88 1.7 M245.03 156.02 C291.54 101.09, 341.05 46.48, 380.83 -0.2 M245.03 156.02 C280.82 113.8, 315.47 74.65, 380.83 -0.2 M250.67 155.63 C293.96 102.76, 337.9 54.44, 385.16 0.91 M250.67 155.63 C293.59 105.75, 337.17 56.59, 385.16 0.91 M255.66 155.99 C289.86 115.77, 325.01 74.28, 390.15 1.27 M255.66 155.99 C309.39 93.83, 363.04 32.27, 390.15 1.27 M261.3 155.6 C302.61 108.13, 342.93 64.47, 394.48 2.39 M261.3 155.6 C303.54 105.16, 348.58 55.24, 394.48 2.39 M266.29 155.96 C298.42 119.19, 331.53 82.5, 398.16 4.26 M266.29 155.96 C302.39 114.64, 337.73 74.6, 398.16 4.26 M271.93 155.56 C302.58 117.58, 338.72 78.47, 401.83 6.13 M271.93 155.56 C304.32 118.75, 334.5 81.96, 401.83 6.13 M276.92 155.92 C306.51 121.1, 337.75 88.15, 404.85 8.75 M276.92 155.92 C309.92 116.24, 345.14 76.26, 404.85 8.75 M282.56 155.53 C329.47 101.35, 377.15 46.33, 407.21 12.13 M282.56 155.53 C326.37 105.62, 369.32 57.53, 407.21 12.13 M287.55 155.89 C330.71 108.92, 371.33 61.06, 410.23 14.76 M287.55 155.89 C328.98 107.28, 371.48 57.63, 410.23 14.76 M293.19 155.49 C339.47 104.27, 385.15 52.59, 411.94 18.89 M293.19 155.49 C338.58 104.31, 383.63 51.84, 411.94 18.89 M298.18 155.85 C334.48 113.52, 370.99 74.64, 412.33 24.53 M298.18 155.85 C339.7 106.99, 380.57 58.33, 412.33 24.53 M303.82 155.46 C331.6 120.53, 362.09 87.27, 412.07 30.93 M303.82 155.46 C338.22 113.37, 373.41 72.76, 412.07 30.93 M308.81 155.82 C337.21 125.27, 365.54 91.58, 412.47 36.57 M308.81 155.82 C347.57 111.9, 386.78 67.06, 412.47 36.57 M314.45 155.42 C347.94 113.13, 386.1 72.46, 412.2 42.97 M314.45 155.42 C335.32 131.02, 357.63 106.23, 412.2 42.97 M319.44 155.78 C355.1 116.41, 386.27 79.51, 412.6 48.61 M319.44 155.78 C351.55 117.77, 385.41 81.13, 412.6 48.61 M325.08 155.39 C346.44 129.06, 373.52 103.26, 412.34 55.01 M325.08 155.39 C353.83 120.89, 384.81 87.14, 412.34 55.01 M330.07 155.75 C357.21 124.03, 383.74 94.34, 412.08 61.41 M330.07 155.75 C346.46 134.86, 364.24 116.34, 412.08 61.41 M335.71 155.35 C357.73 127.25, 381.48 100.03, 412.47 67.05 M335.71 155.35 C366.7 119.95, 397.43 84.93, 412.47 67.05 M340.7 155.71 C365.25 129.4, 387.8 103.49, 412.21 73.45 M340.7 155.71 C358.08 135.39, 375.56 116.64, 412.21 73.45 M346.34 155.32 C365.37 133.56, 387.79 109.32, 412.6 79.09 M346.34 155.32 C369.93 127.69, 395.85 98.49, 412.6 79.09 M351.33 155.68 C369.07 136.21, 387.55 116.5, 412.34 85.49 M351.33 155.68 C366.1 137.9, 382.81 121.04, 412.34 85.49 M356.32 156.04 C378.36 130.46, 398.29 107.94, 412.74 91.13 M356.32 156.04 C371.78 136.23, 387.76 117.69, 412.74 91.13 M361.96 155.64 C380.79 132.71, 397.05 114.88, 412.48 97.53 M361.96 155.64 C373.31 142.16, 384.7 131.3, 412.48 97.53 M366.95 156 C385.33 138.69, 401.07 119.34, 412.87 103.18 M366.95 156 C376.12 145.4, 386.16 134.31, 412.87 103.18 M372.59 155.61 C386.1 140.43, 395.7 125, 412.61 109.57 M372.59 155.61 C382.57 145.46, 392.32 133.3, 412.61 109.57 M377.58 155.97 C391.21 138.44, 404.79 123.32, 412.35 115.97 M377.58 155.97 C386.57 147.11, 394.3 135.78, 412.35 115.97 M382.56 156.33 C389.66 145.29, 398.22 137.87, 412.74 121.61 M382.56 156.33 C394.48 142.6, 405.42 128.47, 412.74 121.61 M388.86 155.18 C396.02 144.54, 403.53 137.81, 415.1 124.99 M388.86 155.18 C398.42 145.12, 406.39 135.23, 415.1 124.99 M395.82 153.28 C399.62 147.27, 405.62 141.52, 414.19 132.15 M395.82 153.28 C400.58 148.02, 405.29 141.1, 414.19 132.15" stroke="#228be6" stroke-width="0.5" fill="none"></path><path d="M32 0 M32 0 C102.51 2.36, 171.97 0.21, 380.4 0 M32 0 C143.49 -1.44, 253.82 -2.37, 380.4 0 M380.4 0 C403.55 0.13, 412.74 10.66, 412.4 32 M380.4 0 C402.06 -1.62, 414.41 9.38, 412.4 32 M412.4 32 C411.8 54.63, 411.36 80.31, 412.4 122.52 M412.4 32 C411.46 55.45, 410.8 77.66, 412.4 122.52 M412.4 122.52 C410.61 142.94, 402.39 153.66, 380.4 154.52 M412.4 122.52 C412.09 142.88, 400.38 155.65, 380.4 154.52 M380.4 154.52 C306.12 154.13, 231.31 153.59, 32 154.52 M380.4 154.52 C265.31 153.11, 149.13 152.13, 32 154.52 M32 154.52 C10.18 153.6, -0.65 144.77, 0 122.52 M32 154.52 C10.22 156.15, -0.16 142.07, 0 122.52 M0 122.52 C-2 100.38, -0.2 74.94, 0 32 M0 122.52 C0.59 93.78, 0.89 63.76, 0 32 M0 32 C-0.99 10.59, 11.06 -0.86, 32 0 M0 32 C0.25 12.46, 9.63 -2.1, 32 0" stroke="#000000" stroke-width="1" fill="none"></path></g><g stroke-linecap="round" transform="translate(141.0196312693816 512.401089801649) rotate(0 206.19862860652063 77.26173303636597)"><path d="M7.86 8.16 C7.86 8.16, 7.86 8.16, 7.86 8.16 M7.86 8.16 C7.86 8.16, 7.86 8.16, 7.86 8.16 M3.66 19.09 C8.36 15.97, 10.93 10.38, 18.1 2.48 M3.66 19.09 C7.75 15.59, 11.11 12.15, 18.1 2.48 M2.75 26.24 C11.97 17.2, 18.09 7.52, 24.4 1.33 M2.75 26.24 C9.39 19.21, 13.94 13.11, 24.4 1.33 M2.48 32.64 C8.8 24.74, 13.71 20.47, 30.7 0.18 M2.48 32.64 C12.64 20.43, 25.06 7.26, 30.7 0.18 M2.88 38.28 C10.71 28.68, 20.99 19.29, 34.37 2.05 M2.88 38.28 C9.39 29.96, 17.77 21.81, 34.37 2.05 M2.62 44.68 C11.87 31.62, 24.15 20.41, 39.36 2.41 M2.62 44.68 C15.63 29.16, 27.79 14.48, 39.36 2.41 M2.36 51.07 C11.79 38.24, 24.79 23.14, 45 2.02 M2.36 51.07 C16.28 35.13, 27.76 21.12, 45 2.02 M2.75 56.72 C13.08 43.31, 28.77 30.06, 49.99 2.38 M2.75 56.72 C15.26 41.87, 28.75 26.6, 49.99 2.38 M2.49 63.11 C16.09 45.65, 31.71 29.16, 55.63 1.98 M2.49 63.11 C21.29 41.85, 39.34 20.95, 55.63 1.98 M2.88 68.76 C25.81 44.23, 49.57 18.96, 60.62 2.34 M2.88 68.76 C22.75 46.24, 42.74 22.76, 60.62 2.34 M2.62 75.16 C27.21 46.96, 52.83 16.33, 66.26 1.95 M2.62 75.16 C21.44 53.01, 41.16 31.52, 66.26 1.95 M2.36 81.55 C28.02 51.75, 56.7 18.07, 71.25 2.31 M2.36 81.55 C24.78 56.2, 45.93 31.32, 71.25 2.31 M2.76 87.2 C25.39 63.67, 48.34 37.04, 76.89 1.91 M2.76 87.2 C19.71 69.56, 33.94 50.15, 76.89 1.91 M2.49 93.59 C20.37 76.11, 34.93 54.4, 81.88 2.27 M2.49 93.59 C33.23 57.45, 64.19 22.71, 81.88 2.27 M2.89 99.24 C30.73 63.8, 60.73 28.49, 87.52 1.88 M2.89 99.24 C21.73 77.13, 42.74 55.62, 87.52 1.88 M2.63 105.64 C25.33 81.27, 43.6 58.07, 92.51 2.24 M2.63 105.64 C29.66 76.49, 56.38 44.98, 92.51 2.24 M2.37 112.03 C33.95 78.38, 63.75 41.04, 98.15 1.85 M2.37 112.03 C21.91 88.03, 42.6 65.46, 98.15 1.85 M2.76 117.68 C31.13 81.83, 62.57 49, 103.14 2.21 M2.76 117.68 C27.29 88.9, 50.85 60.8, 103.14 2.21 M2.5 124.07 C30.5 87.31, 63.04 55.04, 108.78 1.81 M2.5 124.07 C35.31 86.51, 65.67 48.8, 108.78 1.81 M1.58 131.23 C35.28 92.9, 65.83 54.93, 113.77 2.17 M1.58 131.23 C25.86 101.38, 51.48 75.05, 113.77 2.17 M3.29 135.36 C33.51 98.11, 65.98 58.63, 119.41 1.78 M3.29 135.36 C46.74 86.46, 88.96 37.56, 119.41 1.78 M4.34 140.25 C45.4 92.84, 90.7 42.14, 124.4 2.14 M4.34 140.25 C51.94 85.36, 98.21 32.77, 124.4 2.14 M6.7 143.63 C43.66 103.46, 79.62 61.92, 130.04 1.74 M6.7 143.63 C51.92 92.41, 97.95 39.66, 130.04 1.74 M9.06 147.01 C43.16 107.39, 76.24 70.36, 135.03 2.1 M9.06 147.01 C55.99 94.65, 100.65 44.02, 135.03 2.1 M12.08 149.63 C38.66 113.05, 71.2 77.85, 140.67 1.71 M12.08 149.63 C59.32 95.01, 107.47 40.61, 140.67 1.71 M15.1 152.25 C47.74 114.12, 78.4 75.75, 145.66 2.07 M15.1 152.25 C55.46 107.23, 95.53 60.5, 145.66 2.07 M19.43 153.37 C70.76 92.5, 124.59 34.22, 150.65 2.43 M19.43 153.37 C63.21 101.75, 107.58 50.97, 150.65 2.43 M23.76 154.48 C76.53 94.4, 124.6 39.5, 156.29 2.03 M23.76 154.48 C56.45 117.66, 88.57 81.44, 156.29 2.03 M28.75 154.84 C54.79 121.15, 82.27 90.5, 161.28 2.39 M28.75 154.84 C75.86 101.08, 123.32 47.21, 161.28 2.39 M33.08 155.96 C85.42 98.01, 135.22 36.53, 166.92 2 M33.08 155.96 C81.98 101.16, 127.85 47.53, 166.92 2 M38.73 155.56 C68.28 119.59, 100.32 87.63, 171.91 2.36 M38.73 155.56 C90.26 96.12, 141.16 37.78, 171.91 2.36 M43.71 155.92 C71.73 120.86, 102.1 86.73, 177.55 1.96 M43.71 155.92 C75.39 119.58, 107.58 81.59, 177.55 1.96 M49.36 155.53 C97.78 96.71, 149.4 40.78, 182.54 2.32 M49.36 155.53 C90.36 108.29, 131.56 62.06, 182.54 2.32 M54.34 155.89 C96.82 109.05, 140.18 59.42, 188.18 1.93 M54.34 155.89 C96.4 107.83, 139.81 60.06, 188.18 1.93 M59.99 155.5 C100.63 106.85, 142.39 62.18, 193.17 2.29 M59.99 155.5 C100.32 109.75, 141.34 62.51, 193.17 2.29 M64.97 155.86 C110.81 103.67, 153.65 55.13, 198.81 1.9 M64.97 155.86 C115.64 98.72, 166.39 41.45, 198.81 1.9 M70.62 155.46 C103.01 117.26, 135.49 80.83, 203.8 2.26 M70.62 155.46 C104.54 116.73, 138.68 75.93, 203.8 2.26 M75.6 155.82 C125.01 102.35, 173.08 46.04, 209.44 1.86 M75.6 155.82 C108.52 119.21, 140.65 82.43, 209.44 1.86 M81.25 155.43 C124.16 104.21, 172.66 51.83, 214.43 2.22 M81.25 155.43 C130.71 100.52, 178.12 45.03, 214.43 2.22 M86.23 155.79 C136.04 100.35, 184.88 41.6, 220.07 1.83 M86.23 155.79 C129.11 104.59, 174.39 54.24, 220.07 1.83 M91.88 155.39 C132.75 108.31, 174.45 62.23, 225.06 2.19 M91.88 155.39 C130.64 110.61, 171.26 64.15, 225.06 2.19 M96.86 155.75 C146.51 97.9, 196.7 40.09, 230.7 1.79 M96.86 155.75 C128.25 118.79, 159.68 82.14, 230.7 1.79 M102.51 155.36 C152.31 96.78, 205.17 40.15, 235.69 2.15 M102.51 155.36 C136.97 113.7, 171.22 74.06, 235.69 2.15 M107.49 155.72 C136.08 123.86, 163.79 90.23, 241.33 1.76 M107.49 155.72 C134.57 124.5, 160.55 94.61, 241.33 1.76 M113.14 155.32 C163.19 100.01, 213.11 44.48, 246.32 2.12 M113.14 155.32 C158.87 101.21, 206.42 46.99, 246.32 2.12 M118.12 155.68 C167.16 98.25, 216.1 41.19, 251.96 1.72 M118.12 155.68 C150.22 117.73, 183.68 79.26, 251.96 1.72 M123.11 156.04 C153.12 121.39, 182.55 89.83, 256.95 2.08 M123.11 156.04 C171.11 100.04, 221.77 42.16, 256.95 2.08 M128.75 155.65 C181.21 96.43, 236.82 35.34, 262.59 1.69 M128.75 155.65 C182.82 94.58, 233.65 34.97, 262.59 1.69 M133.74 156.01 C163.78 122.16, 188.6 90.66, 267.58 2.05 M133.74 156.01 C163.67 122.67, 192.92 88.61, 267.58 2.05 M139.38 155.61 C179.85 109.98, 216.44 64.45, 272.56 2.41 M139.38 155.61 C174.86 116.01, 209.97 75.16, 272.56 2.41 M144.37 155.97 C195.54 94.15, 247.94 35.49, 278.21 2.01 M144.37 155.97 C184.73 108.79, 226.32 61.57, 278.21 2.01 M150.01 155.58 C189.82 111.16, 227.43 67.67, 283.19 2.37 M150.01 155.58 C189.17 110.42, 228.92 64.48, 283.19 2.37 M155 155.94 C200.23 100.53, 248.19 48.88, 288.84 1.98 M155 155.94 C198.88 103.98, 243.26 54.19, 288.84 1.98 M160.64 155.55 C196.65 113.22, 233.53 74.79, 293.82 2.34 M160.64 155.55 C205.45 104.59, 251.26 53.97, 293.82 2.34 M165.63 155.91 C192.04 123.53, 221.47 92.04, 299.47 1.94 M165.63 155.91 C206.11 109.81, 247.28 62.72, 299.47 1.94 M171.27 155.51 C218.73 102.3, 266.28 45.01, 304.45 2.3 M171.27 155.51 C199.12 125.12, 226.18 92.79, 304.45 2.3 M176.26 155.87 C209.37 118.88, 245.5 78.85, 310.1 1.91 M176.26 155.87 C224.09 101.57, 270.73 47.45, 310.1 1.91 M181.9 155.48 C230.47 102.24, 275.13 48.99, 315.08 2.27 M181.9 155.48 C231.38 100.23, 278.73 45.58, 315.08 2.27 M186.89 155.84 C228.18 108.18, 269.62 57.04, 320.73 1.88 M186.89 155.84 C227.4 111.82, 265.77 65.44, 320.73 1.88 M192.53 155.44 C223.49 117.21, 257.88 76.66, 325.71 2.24 M192.53 155.44 C223.94 119.8, 255.51 83.35, 325.71 2.24 M197.52 155.8 C245.89 102.03, 293.18 46.08, 331.36 1.84 M197.52 155.8 C231.36 117.25, 263.23 81.01, 331.36 1.84 M203.16 155.41 C250.63 104.28, 293.85 52.72, 336.34 2.2 M203.16 155.41 C241 111.68, 280.07 67.61, 336.34 2.2 M208.15 155.77 C247.49 108.14, 290.65 61.8, 341.99 1.81 M208.15 155.77 C237.69 121.66, 268.25 85.33, 341.99 1.81 M213.79 155.37 C260 104.39, 303.7 54.34, 346.97 2.17 M213.79 155.37 C261.61 99.32, 308.64 44.26, 346.97 2.17 M218.78 155.73 C250.12 123.23, 279.35 88.23, 352.62 1.77 M218.78 155.73 C270.35 97.74, 321.13 39.56, 352.62 1.77 M224.42 155.34 C250.21 123.29, 278.88 94.65, 357.6 2.13 M224.42 155.34 C267.84 105.68, 308.95 59.13, 357.6 2.13 M229.41 155.7 C274.52 106.77, 315.96 54.87, 363.25 1.74 M229.41 155.7 C270.62 105.72, 313.87 57.27, 363.25 1.74 M235.05 155.3 C284.34 102.14, 329.51 44.77, 368.23 2.1 M235.05 155.3 C263.03 124.98, 290.75 93.7, 368.23 2.1 M240.04 155.66 C290.55 98.44, 340.28 42.98, 373.88 1.7 M240.04 155.66 C290.56 95.49, 342.48 36.13, 373.88 1.7 M245.03 156.02 C278.19 118.84, 311.83 77.54, 380.83 -0.2 M245.03 156.02 C282.02 110.66, 322.23 66.54, 380.83 -0.2 M250.67 155.63 C284.49 113.56, 322.96 74.18, 385.16 0.91 M250.67 155.63 C280.26 121.94, 310.54 86.84, 385.16 0.91 M255.66 155.99 C309.17 94.95, 361.26 35.33, 390.15 1.27 M255.66 155.99 C285.62 120.98, 316.29 85.74, 390.15 1.27 M261.3 155.6 C297.09 113.54, 336.54 72.67, 394.48 2.39 M261.3 155.6 C309.99 100.98, 359.19 43.87, 394.48 2.39 M266.29 155.96 C312 104.92, 357.64 52.48, 398.16 4.26 M266.29 155.96 C305.67 109.93, 346.27 63.85, 398.16 4.26 M271.93 155.56 C321.92 100.86, 370.72 40.3, 401.83 6.13 M271.93 155.56 C304.36 116, 336.97 78.06, 401.83 6.13 M276.92 155.92 C312.35 115.72, 349.74 71.74, 404.85 8.75 M276.92 155.92 C324.6 102.31, 371.92 49.69, 404.85 8.75 M282.56 155.53 C326.15 106.12, 368.95 55.02, 407.21 12.13 M282.56 155.53 C312.67 120.68, 344.47 87.26, 407.21 12.13 M287.55 155.89 C322.48 116.18, 356.55 77.92, 410.23 14.76 M287.55 155.89 C324.82 113.28, 361.13 71.38, 410.23 14.76 M293.19 155.49 C325.8 119.82, 357.8 82.65, 411.94 18.89 M293.19 155.49 C338.37 104.23, 382.24 53, 411.94 18.89 M298.18 155.85 C320.18 129.7, 345.63 102.14, 412.33 24.53 M298.18 155.85 C341.78 103.65, 385.72 52.63, 412.33 24.53 M303.82 155.46 C343.36 109.48, 384.65 61.32, 412.07 30.93 M303.82 155.46 C346.04 105.11, 389.87 55.84, 412.07 30.93 M308.81 155.82 C333.69 129.36, 355.3 104.39, 412.47 36.57 M308.81 155.82 C340.68 120.57, 371.54 85.77, 412.47 36.57 M314.45 155.42 C338.97 127.01, 365.2 93.58, 412.2 42.97 M314.45 155.42 C352.54 113.01, 390.15 70.31, 412.2 42.97 M319.44 155.78 C347.6 121.27, 378.14 90.77, 412.6 48.61 M319.44 155.78 C348.21 123.37, 378.33 88.42, 412.6 48.61 M325.08 155.39 C349.83 130.15, 375.05 100.84, 412.34 55.01 M325.08 155.39 C348.52 129.07, 372.75 101.1, 412.34 55.01 M330.07 155.75 C353.49 127.49, 378.92 100.06, 412.08 61.41 M330.07 155.75 C356 125.2, 384.28 95.4, 412.08 61.41 M335.71 155.35 C356.65 129.35, 378.42 107.43, 412.47 67.05 M335.71 155.35 C361.99 125.15, 388.69 93.86, 412.47 67.05 M340.7 155.71 C359.06 134.92, 377.88 112.72, 412.21 73.45 M340.7 155.71 C355.8 137.86, 372.48 120.53, 412.21 73.45 M346.34 155.32 C368.98 132.6, 389.09 108.35, 412.6 79.09 M346.34 155.32 C371.11 128.82, 394.21 101.5, 412.6 79.09 M351.33 155.68 C371.59 134.45, 391.67 108.56, 412.34 85.49 M351.33 155.68 C368.74 136.68, 386.99 117.24, 412.34 85.49 M356.32 156.04 C375.77 131.85, 398.23 109.08, 412.74 91.13 M356.32 156.04 C376.55 131.04, 398.07 108.28, 412.74 91.13 M361.96 155.64 C374.39 137.53, 391.95 120.38, 412.48 97.53 M361.96 155.64 C372.06 143.38, 384.81 130.91, 412.48 97.53 M366.95 156 C383.97 139.02, 398.9 119.57, 412.87 103.18 M366.95 156 C384.46 136.8, 401.49 116.63, 412.87 103.18 M372.59 155.61 C385.76 137.65, 398.73 121.61, 412.61 109.57 M372.59 155.61 C386.48 141.1, 398.34 126.79, 412.61 109.57 M377.58 155.97 C385.71 144.37, 396.26 131.85, 412.35 115.97 M377.58 155.97 C386.05 146.68, 392.09 137.54, 412.35 115.97 M382.56 156.33 C393.52 141.3, 408.09 131.01, 412.74 121.61 M382.56 156.33 C391.34 145.28, 399.68 135.93, 412.74 121.61 M388.86 155.18 C393.91 146.59, 402.86 140.23, 415.1 124.99 M388.86 155.18 C397.23 145.32, 405.78 135.7, 415.1 124.99 M395.82 153.28 C401.31 146.7, 407.09 139.16, 414.19 132.15 M395.82 153.28 C400.74 147.58, 403.97 142.39, 414.19 132.15" stroke="#15aabf" stroke-width="0.5" fill="none"></path><path d="M32 0 M32 0 C108.12 -0.95, 180.91 -0.41, 380.4 0 M32 0 C141.46 -1.83, 249.67 -0.96, 380.4 0 M380.4 0 C401.86 0.34, 412.39 10.95, 412.4 32 M380.4 0 C400.11 2.01, 411.11 9.75, 412.4 32 M412.4 32 C412.1 58.13, 414.24 85.46, 412.4 122.52 M412.4 32 C413.12 51.55, 412.15 72.05, 412.4 122.52 M412.4 122.52 C411.48 144.52, 400.87 154.26, 380.4 154.52 M412.4 122.52 C411.42 142.51, 402.86 152.59, 380.4 154.52 M380.4 154.52 C310.29 157.43, 239.44 156.54, 32 154.52 M380.4 154.52 C273.76 156.71, 165.55 156.45, 32 154.52 M32 154.52 C9.75 153.87, 0.92 143.47, 0 122.52 M32 154.52 C12.29 154.36, -1.79 143.01, 0 122.52 M0 122.52 C1.44 91.88, -0.18 61.48, 0 32 M0 122.52 C0.31 95.86, -0.06 66.83, 0 32 M0 32 C-0.07 11.06, 9.81 0.22, 32 0 M0 32 C1.79 9.63, 8.57 -0.15, 32 0" stroke="#e67700" stroke-width="1" fill="none"></path></g><g stroke-linecap="round" transform="translate(284.323019473765 280.0126384853038) rotate(0 64.98802973755191 45.84716775076299)"><path d="M2.99 9.22 C2.99 9.22, 2.99 9.22, 2.99 9.22 M2.99 9.22 C2.99 9.22, 2.99 9.22, 2.99 9.22 M0.76 17.89 C5.33 13.57, 7.93 8.4, 11.26 5.81 M0.76 17.89 C4.73 14.19, 8.75 9.96, 11.26 5.81 M0.5 24.28 C7.55 15.91, 13.96 7.25, 18.21 3.91 M0.5 24.28 C5.25 17.86, 10.92 11.44, 18.21 3.91 M0.89 29.93 C6.18 21.77, 15.1 17.2, 25.17 2 M0.89 29.93 C8.44 22.54, 15.03 13.54, 25.17 2 M0.63 36.32 C9.05 27.72, 17.69 16.89, 30.81 1.61 M0.63 36.32 C6.74 29.81, 13.05 21.34, 30.81 1.61 M1.03 41.97 C10.65 30.78, 22.14 17.57, 35.8 1.97 M1.03 41.97 C12.97 26.98, 25.76 12.23, 35.8 1.97 M0.76 48.37 C13.38 34.25, 23.73 20.26, 40.78 2.33 M0.76 48.37 C9.58 36.02, 20.34 24.27, 40.78 2.33 M0.5 54.76 C10.12 46.21, 19.94 32.87, 46.43 1.93 M0.5 54.76 C15.74 37.61, 30.55 20.59, 46.43 1.93 M0.9 60.41 C12.92 45.9, 25.95 31.99, 51.41 2.29 M0.9 60.41 C16.42 42.27, 32.36 24.85, 51.41 2.29 M0.64 66.8 C19.43 48.39, 37.46 27.44, 57.06 1.9 M0.64 66.8 C22.52 42.33, 43.43 18.83, 57.06 1.9 M1.03 72.45 C14.65 57.09, 25.87 43.91, 62.04 2.26 M1.03 72.45 C16.18 55.18, 31.98 38.73, 62.04 2.26 M2.74 76.58 C24.34 53.92, 42.11 30.92, 67.69 1.86 M2.74 76.58 C27.88 47.17, 53.44 19.37, 67.69 1.86 M4.44 80.71 C25.24 60.15, 42.89 35.04, 72.67 2.22 M4.44 80.71 C23.56 58.04, 40.93 36.43, 72.67 2.22 M6.81 84.09 C23.1 65.42, 35.17 51.9, 78.32 1.83 M6.81 84.09 C22.51 65.15, 39.65 45.83, 78.32 1.83 M8.51 88.23 C36.88 53.63, 65.37 20.7, 83.3 2.19 M8.51 88.23 C33.61 61.17, 59.3 31.14, 83.3 2.19 M12.19 90.1 C33.21 63.98, 55.4 39.53, 88.95 1.8 M12.19 90.1 C36.52 63.99, 58.49 37.62, 88.95 1.8 M15.21 92.72 C37.33 68.37, 55.78 44.94, 93.93 2.16 M15.21 92.72 C39.38 64.42, 64.97 34.88, 93.93 2.16 M20.19 93.08 C45.39 63.47, 73.55 30.33, 99.58 1.76 M20.19 93.08 C48.28 59.31, 77.05 27.51, 99.58 1.76 M25.18 93.44 C55.33 58.13, 89.92 20.95, 104.56 2.12 M25.18 93.44 C47.31 65.75, 69.17 40.16, 104.56 2.12 M30.17 93.8 C51.36 66.74, 73.02 41.22, 109.55 2.48 M30.17 93.8 C49.05 71.31, 71.27 46.7, 109.55 2.48 M35.81 93.41 C63.77 60.49, 89.42 31.6, 114.54 2.84 M35.81 93.41 C53.41 72.74, 71.1 53.09, 114.54 2.84 M40.8 93.77 C65.51 68.68, 87.16 42.16, 119.53 3.2 M40.8 93.77 C63.06 66.58, 87.61 39.75, 119.53 3.2 M46.44 93.37 C65.12 73.64, 82.37 52.39, 122.54 5.83 M46.44 93.37 C67.6 70.28, 87.56 45.86, 122.54 5.83 M51.43 93.73 C73.26 67.87, 97.36 41.51, 126.22 7.7 M51.43 93.73 C65.74 76.22, 81.91 58.3, 126.22 7.7 M57.07 93.34 C83.71 62.07, 111.29 30.35, 128.58 11.07 M57.07 93.34 C79.36 68.38, 101.84 41.78, 128.58 11.07 M62.06 93.7 C83.01 67.69, 103.35 43.62, 130.95 14.45 M62.06 93.7 C88.04 65.09, 112.59 37.12, 130.95 14.45 M67.7 93.3 C89.47 68.78, 114.2 42.22, 131.34 20.1 M67.7 93.3 C91.26 65.25, 116.07 39.04, 131.34 20.1 M72.69 93.66 C84.48 76.72, 101.48 59.85, 132.39 24.98 M72.69 93.66 C84.78 79.47, 97.65 65.15, 132.39 24.98 M78.33 93.27 C90.14 76.18, 104.73 63.09, 132.13 31.38 M78.33 93.27 C91.98 78.14, 105.52 63.93, 132.13 31.38 M83.32 93.63 C98.08 77.69, 108.41 63.03, 132.52 37.03 M83.32 93.63 C93.32 80.69, 104.27 68.69, 132.52 37.03 M88.96 93.23 C97.77 82.87, 110.8 70.92, 132.26 43.42 M88.96 93.23 C99.51 80.39, 110.83 67.81, 132.26 43.42 M93.95 93.59 C107.29 77.97, 120.99 60.71, 132 49.82 M93.95 93.59 C106.34 79.82, 116.95 67.85, 132 49.82 M99.59 93.2 C106.39 85.09, 115.49 74.06, 132.4 55.46 M99.59 93.2 C107.72 83.66, 116.91 74.25, 132.4 55.46 M104.58 93.56 C114.73 85.35, 122.21 73.72, 132.13 61.86 M104.58 93.56 C111.87 86.5, 119.6 77.52, 132.13 61.86 M109.57 93.92 C113.27 87.97, 121.26 81.2, 131.87 68.26 M109.57 93.92 C116.16 86.98, 121.73 79.57, 131.87 68.26 M117.83 90.51 C119.84 87.65, 124.96 84.14, 130.95 75.41 M117.83 90.51 C121.66 86.22, 126.47 81.35, 130.95 75.41" stroke="#4c6ef5" stroke-width="0.5" fill="none"></path><path d="M22.92 0 M22.92 0 C52.78 0.52, 85.19 -1.22, 107.05 0 M22.92 0 C49.25 -0.51, 73.92 1.07, 107.05 0 M107.05 0 C120.71 -0.47, 130.1 9.52, 129.98 22.92 M107.05 0 C122.33 1.01, 128.69 6.64, 129.98 22.92 M129.98 22.92 C127.94 33.89, 130.65 43.59, 129.98 68.77 M129.98 22.92 C130.32 34.65, 130.17 45.05, 129.98 68.77 M129.98 68.77 C128.73 85.27, 121.42 91.59, 107.05 91.69 M129.98 68.77 C128.24 85.78, 122.97 89.57, 107.05 91.69 M107.05 91.69 C82.25 91.53, 56.52 92.57, 22.92 91.69 M107.05 91.69 C89.55 92.56, 72.4 93.06, 22.92 91.69 M22.92 91.69 C6.94 91.74, 0.73 84.56, 0 68.77 M22.92 91.69 C7.59 92.28, 0.07 82.69, 0 68.77 M0 68.77 C1.25 48.98, 1.64 30.78, 0 22.92 M0 68.77 C-0.28 53.19, 0.2 36.91, 0 22.92 M0 22.92 C-0.87 5.92, 6.95 1.59, 22.92 0 M0 22.92 C-0.8 7.38, 6.1 -0.75, 22.92 0" stroke="#000000" stroke-width="1" fill="none"></path></g><g transform="translate(316.3110492113169 312.3598062360668) rotate(0 33 13.5)"><text x="33" y="19" font-family="Virgil, Segoe UI Emoji" font-size="21.257480863499026px" fill="#000000" text-anchor="middle" style="white-space: pre;" direction="ltr">Bridge</text></g><g transform="translate(249.30133653798026 153.0900268263331) rotate(0 103 21.5)"><text x="0" y="30" font-family="Virgil, Segoe UI Emoji" font-size="34.119283743574336px" fill="#000000" text-anchor="start" style="white-space: pre;" direction="ltr">Rocket.Chat</text></g><g transform="translate(272.47619702591174 561.5370432302984) rotate(0 68 22)"><text x="0" y="31" font-family="Virgil, Segoe UI Emoji" font-size="35.26298381868351px" fill="#000000" text-anchor="start" style="white-space: pre;" direction="ltr">Synapse</text></g><g stroke-linecap="round" transform="translate(82.07651919759809 71.08078155622275) rotate(0 275.32472057392016 159.7048240719621)"><path d="M32 0 M32 0 C146.37 -0.18, 262.34 0.31, 518.65 0 M32 0 C203.82 -0.2, 375.89 -0.22, 518.65 0 M518.65 0 C541.48 0.64, 552.06 12.28, 550.65 32 M518.65 0 C541.43 2.25, 551.35 12.51, 550.65 32 M550.65 32 C549.98 109.31, 551.86 188.33, 550.65 287.41 M550.65 32 C549.19 102.76, 549.19 174.25, 550.65 287.41 M550.65 287.41 C549.4 307.85, 541.36 321.19, 518.65 319.41 M550.65 287.41 C550.51 309.1, 538.05 320.47, 518.65 319.41 M518.65 319.41 C342.66 319.59, 166.85 319.38, 32 319.41 M518.65 319.41 C366.97 318.12, 215.71 317.72, 32 319.41 M32 319.41 C12.14 318.86, -0.51 309.12, 0 287.41 M32 319.41 C11.41 318.54, -1.54 310.39, 0 287.41 M0 287.41 C-0.68 223.47, -2.12 157.72, 0 32 M0 287.41 C0.93 225.53, 0.84 165.06, 0 32 M0 32 C-1.64 10.65, 9.71 1.42, 32 0 M0 32 C2.13 8.47, 9.84 -0.65, 32 0" stroke="#c92a2a" stroke-width="1" fill="none"></path></g><g stroke-linecap="round" transform="translate(1566.1077138770854 79.37736490765838) rotate(0 354.06013431048166 324.13429425541835)"><path d="M32 0 M32 0 C184.68 2.05, 336.72 2.44, 676.12 0 M32 0 C266.09 -0.77, 499.52 -0.9, 676.12 0 M676.12 0 C696.78 -0.2, 709.78 12.38, 708.12 32 M676.12 0 C696.96 -0.84, 708.85 8.65, 708.12 32 M708.12 32 C705.56 183.15, 706.61 335.73, 708.12 616.27 M708.12 32 C708.67 203.87, 708.45 375.18, 708.12 616.27 M708.12 616.27 C707.31 638.92, 696.27 649.08, 676.12 648.27 M708.12 616.27 C708.37 639.48, 695.61 646.32, 676.12 648.27 M676.12 648.27 C428.14 647.81, 178.77 648.18, 32 648.27 M676.12 648.27 C462.32 646.36, 248.14 646.81, 32 648.27 M32 648.27 C11.08 649.19, -1.38 637.19, 0 616.27 M32 648.27 C9.27 647.5, 0.21 638.29, 0 616.27 M0 616.27 C-1.09 496.24, -0.82 376.78, 0 32 M0 616.27 C2.12 386.62, 1.86 157.77, 0 32 M0 32 C-1.94 11.26, 12.64 0.88, 32 0 M0 32 C-0.46 11.2, 9.98 -1.36, 32 0" stroke="#000000" stroke-width="1" fill="none"></path></g><g stroke-linecap="round" transform="translate(1699.3655929253412 126.94858212953841) rotate(0 208.4491709160318 78.10500149202733)"><path d="M7.86 8.16 C7.86 8.16, 7.86 8.16, 7.86 8.16 M7.86 8.16 C7.86 8.16, 7.86 8.16, 7.86 8.16 M3.66 19.09 C7.28 13.42, 12.53 7.58, 18.1 2.48 M3.66 19.09 C6.93 14.32, 11.98 11.35, 18.1 2.48 M2.75 26.24 C9.99 20.32, 15.27 11.42, 24.4 1.33 M2.75 26.24 C8.61 20.02, 14.63 12.65, 24.4 1.33 M2.48 32.64 C8.1 27.33, 13.8 18.36, 30.7 0.18 M2.48 32.64 C10.71 23.11, 19.91 12.53, 30.7 0.18 M2.88 38.28 C12.94 24.48, 24.61 10.99, 34.37 2.05 M2.88 38.28 C12.69 27.24, 21.42 16.17, 34.37 2.05 M2.62 44.68 C9.67 32.95, 20.29 22, 39.36 2.41 M2.62 44.68 C10.13 37.24, 17.91 27.28, 39.36 2.41 M2.36 51.07 C16.76 34.79, 30.45 19.05, 45 2.02 M2.36 51.07 C12.72 38.83, 23.66 26.78, 45 2.02 M2.75 56.72 C17.6 40, 32.73 24.42, 49.99 2.38 M2.75 56.72 C18.1 40.68, 33 23.43, 49.99 2.38 M2.49 63.11 C23.74 40.15, 43.11 18.98, 55.63 1.98 M2.49 63.11 C13.81 50.22, 24.1 38.25, 55.63 1.98 M2.88 68.76 C17.08 52.25, 32.61 37.84, 60.62 2.34 M2.88 68.76 C21.35 48.54, 38.11 27.97, 60.62 2.34 M2.62 75.16 C27.1 45.72, 53.07 19.06, 66.26 1.95 M2.62 75.16 C21.55 55.33, 38.6 33.31, 66.26 1.95 M2.36 81.55 C22.54 57.99, 38.87 35.95, 71.25 2.31 M2.36 81.55 C17.44 64.35, 30.26 49.77, 71.25 2.31 M2.76 87.2 C18.48 67.94, 36.43 48.08, 76.89 1.91 M2.76 87.2 C31.01 53.79, 59.5 20.93, 76.89 1.91 M2.49 93.59 C28.76 65.78, 57 32.34, 81.88 2.27 M2.49 93.59 C24.83 66.86, 47.49 41.34, 81.88 2.27 M2.89 99.24 C30.43 70.8, 53.92 41.6, 87.52 1.88 M2.89 99.24 C25.63 73.86, 46.34 48.93, 87.52 1.88 M2.63 105.64 C29.58 73.77, 59.13 39.56, 92.51 2.24 M2.63 105.64 C31.86 71.43, 62.98 35.26, 92.51 2.24 M2.37 112.03 C35.85 70.57, 70.93 32.81, 98.15 1.85 M2.37 112.03 C39.7 68.95, 79.42 24.57, 98.15 1.85 M2.76 117.68 C30.81 82.09, 57.71 50.24, 103.14 2.21 M2.76 117.68 C30.57 84.58, 58.23 52.46, 103.14 2.21 M2.5 124.07 C27.15 94.45, 57.99 60.88, 108.78 1.81 M2.5 124.07 C39.81 81.06, 76.19 39.52, 108.78 1.81 M0.93 131.98 C25.84 102.21, 51.16 74.51, 113.77 2.17 M0.93 131.98 C35.9 94.78, 68.63 56.32, 113.77 2.17 M2.63 136.11 C35.15 95.8, 72.27 55.92, 119.41 1.78 M2.63 136.11 C30.67 104.19, 58.17 71.85, 119.41 1.78 M3.68 141 C37.11 104.5, 68.5 65.48, 124.4 2.14 M3.68 141 C39.5 98.12, 77.2 55.43, 124.4 2.14 M5.39 145.14 C28.93 115.97, 56.27 85.85, 130.04 1.74 M5.39 145.14 C52.94 89.93, 101.91 33.61, 130.04 1.74 M8.41 147.76 C47.9 103.69, 87.77 56.35, 135.03 2.1 M8.41 147.76 C47.2 100.96, 86.46 55.46, 135.03 2.1 M11.43 150.39 C60.26 96.77, 106.29 44.35, 140.67 1.71 M11.43 150.39 C57.08 98.46, 104.05 45.37, 140.67 1.71 M14.45 153.01 C63.13 95.31, 114.06 40.93, 145.66 2.07 M14.45 153.01 C43.17 116.48, 75.18 80.87, 145.66 2.07 M18.12 154.88 C45.02 123.54, 73.29 91.88, 150.65 2.43 M18.12 154.88 C50.33 116.1, 84.74 78.18, 150.65 2.43 M23.11 155.24 C56.64 117.86, 89.98 81.96, 156.29 2.03 M23.11 155.24 C59.77 112.12, 95.15 70.18, 156.29 2.03 M28.1 155.6 C55.34 121.31, 84.43 88.89, 161.28 2.39 M28.1 155.6 C59.35 119.66, 92.85 82.49, 161.28 2.39 M32.43 156.71 C65.21 117.56, 99.64 78.74, 166.92 2 M32.43 156.71 C80.23 100.95, 129.08 44.09, 166.92 2 M38.07 156.32 C80.29 108.96, 119.29 64.51, 171.91 2.36 M38.07 156.32 C70.73 118, 105.59 77.64, 171.91 2.36 M43.06 156.68 C76.9 117.65, 112.68 78.57, 177.55 1.96 M43.06 156.68 C86.75 108.26, 128.72 58.64, 177.55 1.96 M48.7 156.28 C83.52 119.15, 119.03 78.12, 182.54 2.32 M48.7 156.28 C81.25 118.3, 115.91 79.52, 182.54 2.32 M53.69 156.65 C93.08 113.37, 130.1 69.02, 188.18 1.93 M53.69 156.65 C86.75 116, 122.29 76.18, 188.18 1.93 M58.67 157.01 C98.29 113.01, 138.6 67.81, 193.17 2.29 M58.67 157.01 C108.64 99.28, 159.17 40.94, 193.17 2.29 M64.32 156.61 C107.17 107.93, 146.39 63.15, 198.81 1.9 M64.32 156.61 C94.89 122.69, 123.87 88.35, 198.81 1.9 M69.3 156.97 C104.78 116.03, 140.84 78.74, 203.8 2.26 M69.3 156.97 C120.87 100.55, 171.45 42.25, 203.8 2.26 M74.95 156.58 C106.46 119.54, 137.41 84.77, 209.44 1.86 M74.95 156.58 C120.9 105.21, 164.47 55.45, 209.44 1.86 M79.93 156.94 C116.3 116.31, 153.6 71.03, 214.43 2.22 M79.93 156.94 C108.83 123.62, 138.65 89.2, 214.43 2.22 M85.58 156.54 C131.03 107.75, 173.13 57.83, 220.07 1.83 M85.58 156.54 C114.17 122.97, 143.51 89.15, 220.07 1.83 M90.56 156.9 C132.95 106.28, 176.1 59.78, 225.06 2.19 M90.56 156.9 C126.12 117.21, 162.55 75.28, 225.06 2.19 M96.21 156.51 C146.77 94.67, 200.85 33.6, 230.7 1.79 M96.21 156.51 C126.32 120.92, 156.3 84.11, 230.7 1.79 M101.19 156.87 C151.48 96.44, 205.19 40.55, 235.69 2.15 M101.19 156.87 C139.39 114.63, 176.82 71.76, 235.69 2.15 M106.84 156.47 C158.94 97.28, 210.97 40.86, 241.33 1.76 M106.84 156.47 C133.23 125.39, 160.03 94.14, 241.33 1.76 M111.82 156.83 C153.02 110.54, 192.57 61.94, 246.32 2.12 M111.82 156.83 C139.73 123.7, 169.54 90.38, 246.32 2.12 M117.47 156.44 C173.75 95.2, 227.04 35.79, 251.96 1.72 M117.47 156.44 C156.25 114.85, 193.68 72.05, 251.96 1.72 M122.45 156.8 C148.11 123.66, 175.73 90.99, 256.95 2.08 M122.45 156.8 C156.26 114.86, 191.47 74.91, 256.95 2.08 M128.1 156.4 C168.73 110.48, 208.16 65.12, 262.59 1.69 M128.1 156.4 C168.08 108.04, 208.55 61.34, 262.59 1.69 M133.08 156.76 C163.73 123.01, 191.76 90.74, 267.58 2.05 M133.08 156.76 C183.19 98.52, 234.69 40.49, 267.58 2.05 M138.73 156.37 C172.47 118.56, 205.56 77.25, 272.56 2.41 M138.73 156.37 C169.92 120.77, 200.81 85.85, 272.56 2.41 M143.71 156.73 C190.64 103.05, 236.93 49.79, 278.21 2.01 M143.71 156.73 C188.95 104.22, 236.3 50.92, 278.21 2.01 M149.36 156.33 C178.24 121.16, 210.58 83.65, 283.19 2.37 M149.36 156.33 C189.69 109.8, 231.89 62.16, 283.19 2.37 M154.34 156.69 C185.01 123.91, 216.53 85.98, 288.84 1.98 M154.34 156.69 C200.55 104.49, 247.12 51.54, 288.84 1.98 M159.99 156.3 C203.85 108.41, 245.75 60.38, 293.82 2.34 M159.99 156.3 C200.39 111.22, 238.46 66.05, 293.82 2.34 M164.97 156.66 C213.1 103.02, 258.09 48.76, 299.47 1.94 M164.97 156.66 C214.65 102.9, 262.03 48.26, 299.47 1.94 M170.62 156.27 C214.58 104.1, 259.91 54.14, 304.45 2.3 M170.62 156.27 C203.32 117.44, 236.09 80.05, 304.45 2.3 M175.6 156.63 C206.11 119.91, 238.34 84.68, 310.1 1.91 M175.6 156.63 C224.46 100.16, 271.97 44.58, 310.1 1.91 M180.59 156.99 C218.16 114.4, 251.64 72.97, 315.08 2.27 M180.59 156.99 C224.18 107.04, 267.18 55.84, 315.08 2.27 M186.23 156.59 C223.99 113.8, 260.6 74.28, 320.73 1.88 M186.23 156.59 C235.31 100.63, 283.11 44.46, 320.73 1.88 M191.22 156.95 C222.93 117.34, 258.9 80.13, 325.71 2.24 M191.22 156.95 C219.2 123.77, 247.24 92.06, 325.71 2.24 M196.86 156.56 C236.66 112.11, 276.3 66.55, 331.36 1.84 M196.86 156.56 C240.79 106.43, 285.83 53.62, 331.36 1.84 M201.85 156.92 C251.19 101.55, 296.81 48.01, 336.34 2.2 M201.85 156.92 C236.08 117.8, 270.23 80, 336.34 2.2 M207.49 156.52 C256.59 97.25, 307.2 39.75, 341.99 1.81 M207.49 156.52 C246.6 112.58, 283.96 69.29, 341.99 1.81 M212.48 156.88 C240.42 124.93, 268.41 90.4, 346.97 2.17 M212.48 156.88 C256.35 107.49, 301.4 57.14, 346.97 2.17 M218.12 156.49 C245.75 120.83, 278.93 87.05, 352.62 1.77 M218.12 156.49 C244.93 124.39, 270.9 94.05, 352.62 1.77 M223.11 156.85 C273.48 98.57, 326.23 40.31, 357.6 2.13 M223.11 156.85 C252.4 122.94, 279.42 90.27, 357.6 2.13 M228.75 156.45 C258.9 123.93, 287.93 89.23, 363.25 1.74 M228.75 156.45 C267.97 110.91, 308.23 65.47, 363.25 1.74 M233.74 156.81 C285.43 96.19, 338.77 36.64, 368.23 2.1 M233.74 156.81 C287.01 97.05, 337.69 37.63, 368.23 2.1 M239.39 156.42 C289.28 100.16, 341.27 39.59, 373.88 1.7 M239.39 156.42 C288.69 101.45, 338.75 43.68, 373.88 1.7 M244.37 156.78 C284.72 111.33, 323.23 69.61, 378.86 2.06 M244.37 156.78 C274.64 121.44, 305.75 86.67, 378.86 2.06 M250.02 156.38 C299.11 99.87, 348.37 44.04, 385.82 0.16 M250.02 156.38 C279.66 123.85, 309.96 89.18, 385.82 0.16 M255 156.74 C297.99 110.69, 336.74 63.54, 390.15 1.27 M255 156.74 C284.91 123.06, 314.12 88.53, 390.15 1.27 M260.65 156.35 C296.38 116.27, 331.56 75.44, 395.14 1.63 M260.65 156.35 C298.76 113.97, 333.82 72.29, 395.14 1.63 M265.63 156.71 C314.22 97.49, 365.45 39.28, 399.47 2.75 M265.63 156.71 C313.66 102.86, 359.95 48.78, 399.47 2.75 M271.28 156.32 C306.43 116.45, 344.27 76.25, 403.14 4.62 M271.28 156.32 C315.11 105.58, 358.5 55.25, 403.14 4.62 M276.26 156.68 C304.79 125.61, 336.51 89.74, 406.82 6.49 M276.26 156.68 C316.66 109.12, 358.29 61.11, 406.82 6.49 M281.91 156.28 C327.34 102.48, 374.86 50.95, 409.84 9.11 M281.91 156.28 C309.85 124.37, 337.51 93.5, 409.84 9.11 M286.89 156.64 C323.42 114.68, 359.14 69.1, 412.2 12.49 M286.89 156.64 C325.4 114.15, 363.19 71.73, 412.2 12.49 M291.88 157 C336.91 102.62, 383.68 50.7, 415.22 15.12 M291.88 157 C335.74 107.63, 378.43 59.6, 415.22 15.12 M297.52 156.61 C341.49 105.62, 387.76 50.89, 416.93 19.25 M297.52 156.61 C322.56 127.3, 348.14 99.21, 416.93 19.25 M302.51 156.97 C330.31 125.59, 359.21 92.56, 417.32 24.89 M302.51 156.97 C344.58 110.64, 383.37 66.15, 417.32 24.89 M308.15 156.57 C334.08 128.47, 359.47 99.16, 417.06 31.29 M308.15 156.57 C331.83 128.6, 358.18 98.99, 417.06 31.29 M313.14 156.93 C344.64 124.34, 371.3 90.01, 417.45 36.93 M313.14 156.93 C341.03 127.75, 366.13 97.62, 417.45 36.93 M318.78 156.54 C354 118.55, 386.47 80.75, 417.19 43.33 M318.78 156.54 C345.84 125.86, 373.15 93.68, 417.19 43.33 M323.77 156.9 C350.25 128.47, 378.77 95.38, 416.93 49.73 M323.77 156.9 C348.88 128.09, 375.47 100.61, 416.93 49.73 M329.41 156.5 C359.96 122.99, 387.89 87.86, 417.32 55.37 M329.41 156.5 C360.23 121.1, 390.66 83.65, 417.32 55.37 M334.4 156.86 C359.18 129.89, 385.31 99.77, 417.06 61.77 M334.4 156.86 C355.85 133.03, 376.23 110.27, 417.06 61.77 M340.04 156.47 C357.44 137.1, 373.63 118.55, 417.46 67.41 M340.04 156.47 C369.08 123.96, 396 90.75, 417.46 67.41 M345.03 156.83 C361.52 140.78, 377.47 123.72, 417.2 73.81 M345.03 156.83 C359.95 139.78, 375.83 122.09, 417.2 73.81 M350.67 156.43 C369.53 132.57, 393.04 109.83, 417.59 79.45 M350.67 156.43 C371.74 132.4, 393.45 105.82, 417.59 79.45 M355.66 156.79 C377.16 135.43, 398.25 110.32, 417.33 85.85 M355.66 156.79 C368.83 141.63, 381.15 125.94, 417.33 85.85 M361.3 156.4 C378.56 137.94, 393.88 120.02, 417.72 91.49 M361.3 156.4 C380.09 132.71, 400.15 110.95, 417.72 91.49 M366.29 156.76 C380.15 140.79, 394.33 125.68, 417.46 97.89 M366.29 156.76 C381.3 139.28, 395.82 121.83, 417.46 97.89 M371.93 156.36 C389.11 133.94, 406.53 117.54, 417.2 104.29 M371.93 156.36 C383.37 143.76, 396.92 129.25, 417.2 104.29 M376.92 156.73 C383.47 145.56, 393.41 136.94, 417.6 109.93 M376.92 156.73 C388.41 143.73, 400.9 130.26, 417.6 109.93 M382.56 156.33 C394.97 142.53, 407.76 126.54, 417.33 116.33 M382.56 156.33 C395.89 141.14, 408.58 125.75, 417.33 116.33 M386.89 157.45 C393.07 147.3, 400.25 138.14, 417.73 121.97 M386.89 157.45 C394.22 147.61, 402.3 139.67, 417.73 121.97 M392.54 157.05 C401.62 143.36, 414.44 133.71, 419.44 126.11 M392.54 157.05 C400.36 148.08, 409.03 137, 419.44 126.11 M399.49 155.15 C404.14 147.6, 411.99 141.19, 418.52 133.26 M399.49 155.15 C403.95 149.32, 407.28 144.41, 418.52 133.26" stroke="#228be6" stroke-width="0.5" fill="none"></path><path d="M32 0 M32 0 C121.59 0.44, 210.77 1.62, 384.9 0 M32 0 C108.62 0.7, 184.98 0.44, 384.9 0 M384.9 0 C406.87 0.16, 415.13 12.5, 416.9 32 M384.9 0 C408.34 0.37, 415.57 10.11, 416.9 32 M416.9 32 C416.21 56.83, 416.45 77.28, 416.9 124.21 M416.9 32 C416.45 57.1, 417.35 80.55, 416.9 124.21 M416.9 124.21 C417.45 145.64, 407.56 157.47, 384.9 156.21 M416.9 124.21 C418.99 147.7, 407.47 155.08, 384.9 156.21 M384.9 156.21 C280.44 156.24, 175.11 154.06, 32 156.21 M384.9 156.21 C281.3 155.97, 177.46 156.04, 32 156.21 M32 156.21 C11.13 154.94, 0.52 147.36, 0 124.21 M32 156.21 C10.35 156.46, 2.15 146.76, 0 124.21 M0 124.21 C0.36 95.28, -0.83 71.32, 0 32 M0 124.21 C-0.69 93.35, -0.53 64.74, 0 32 M0 32 C1.37 9.15, 12.2 -0.49, 32 0 M0 32 C-1.88 9.01, 12.44 1.94, 32 0" stroke="#000000" stroke-width="1" fill="none"></path></g><g stroke-linecap="round" transform="translate(1698.5573508916118 545.7516183666698) rotate(0 208.4491709160318 78.10500149202744)"><path d="M7.86 8.16 C7.86 8.16, 7.86 8.16, 7.86 8.16 M7.86 8.16 C7.86 8.16, 7.86 8.16, 7.86 8.16 M3.66 19.09 C8.32 13.39, 12.82 5.59, 18.1 2.48 M3.66 19.09 C6.26 16.35, 10.65 12.08, 18.1 2.48 M2.75 26.24 C11 18.12, 16.25 9.61, 24.4 1.33 M2.75 26.24 C10.92 17.86, 17.93 7.09, 24.4 1.33 M2.48 32.64 C15.08 19.59, 23.98 7.99, 30.7 0.18 M2.48 32.64 C12.7 21.57, 21.85 11.91, 30.7 0.18 M2.88 38.28 C12.4 25.67, 22.23 15.46, 34.37 2.05 M2.88 38.28 C13.47 25.45, 23.98 13.85, 34.37 2.05 M2.62 44.68 C15.13 28.79, 28.47 11.83, 39.36 2.41 M2.62 44.68 C18.62 28.2, 32.04 11.19, 39.36 2.41 M2.36 51.07 C13.49 38.09, 25.14 23.56, 45 2.02 M2.36 51.07 C17.18 34.25, 32.17 17.87, 45 2.02 M2.75 56.72 C21.29 36.48, 41.01 14.47, 49.99 2.38 M2.75 56.72 C16.47 42.41, 28.99 27.41, 49.99 2.38 M2.49 63.11 C18.04 45.51, 35.41 25.18, 55.63 1.98 M2.49 63.11 C21.66 40.48, 41.69 17.68, 55.63 1.98 M2.88 68.76 C20.07 50.08, 39.28 29.9, 60.62 2.34 M2.88 68.76 C25.13 42.97, 46.96 19.11, 60.62 2.34 M2.62 75.16 C14.8 60.8, 29.82 42.91, 66.26 1.95 M2.62 75.16 C16.69 59.13, 28.58 43.47, 66.26 1.95 M2.36 81.55 C24.1 52.9, 47.45 24.25, 71.25 2.31 M2.36 81.55 C19.46 59.66, 39.21 38.85, 71.25 2.31 M2.76 87.2 C31.97 54.36, 60.56 24.4, 76.89 1.91 M2.76 87.2 C27.96 57.63, 53.63 29.05, 76.89 1.91 M2.49 93.59 C20.88 76.73, 33.59 56.65, 81.88 2.27 M2.49 93.59 C20.63 71.62, 40.08 49.75, 81.88 2.27 M2.89 99.24 C21.83 77.23, 40.05 55.09, 87.52 1.88 M2.89 99.24 C24.52 72.97, 46.59 47.38, 87.52 1.88 M2.63 105.64 C33.33 71.71, 61.65 39.34, 92.51 2.24 M2.63 105.64 C36.75 68.01, 68.86 30.36, 92.51 2.24 M2.37 112.03 C26.11 82.56, 53.62 54.81, 98.15 1.85 M2.37 112.03 C34.6 77.59, 65.42 40.87, 98.15 1.85 M2.76 117.68 C39.41 70.77, 79.92 27.17, 103.14 2.21 M2.76 117.68 C26.14 89.31, 50.55 61.54, 103.14 2.21 M2.5 124.07 C45.22 79.81, 83.9 32.82, 108.78 1.81 M2.5 124.07 C37.58 82.86, 73.99 42.72, 108.78 1.81 M0.93 131.98 C29.5 97.94, 60.13 65.69, 113.77 2.17 M0.93 131.98 C26.85 103.08, 51.4 75.73, 113.77 2.17 M2.63 136.11 C36.48 98.11, 70.88 56.23, 119.41 1.78 M2.63 136.11 C40.17 92.62, 77.37 49.6, 119.41 1.78 M3.68 141 C29.66 110.95, 53.02 84.67, 124.4 2.14 M3.68 141 C49.04 89.15, 94.7 35.42, 124.4 2.14 M5.39 145.14 C38.13 108.53, 70 71.66, 130.04 1.74 M5.39 145.14 C55.93 88.73, 105.17 33.47, 130.04 1.74 M8.41 147.76 C48.54 103.61, 85.38 58.33, 135.03 2.1 M8.41 147.76 C54.71 92.79, 102.38 39.89, 135.03 2.1 M11.43 150.39 C42.68 114.17, 75.28 77.91, 140.67 1.71 M11.43 150.39 C49.17 109.2, 85.74 66.99, 140.67 1.71 M14.45 153.01 C45.66 117.13, 80.17 78.77, 145.66 2.07 M14.45 153.01 C64.06 95.84, 114.77 35.52, 145.66 2.07 M18.12 154.88 C55.69 112.65, 92.83 67.6, 150.65 2.43 M18.12 154.88 C69.96 96.48, 122.48 37.36, 150.65 2.43 M23.11 155.24 C63.57 110.03, 105.39 62.52, 156.29 2.03 M23.11 155.24 C70.58 97.97, 119.34 42.38, 156.29 2.03 M28.1 155.6 C72.17 103.43, 118.22 48.38, 161.28 2.39 M28.1 155.6 C73.55 106.29, 117.67 54.74, 161.28 2.39 M32.43 156.71 C79.89 102.43, 127.62 47.18, 166.92 2 M32.43 156.71 C83.52 98.57, 133.43 40.65, 166.92 2 M38.07 156.32 C77 109.81, 118.74 64.18, 171.91 2.36 M38.07 156.32 C92.9 95.56, 145.55 34.23, 171.91 2.36 M43.06 156.68 C84.84 110.57, 126.47 62.35, 177.55 1.96 M43.06 156.68 C78.05 116.19, 111.88 76.02, 177.55 1.96 M48.7 156.28 C90.03 112.87, 127.36 65.81, 182.54 2.32 M48.7 156.28 C91.66 109.06, 133.74 60.11, 182.54 2.32 M53.69 156.65 C86.89 118.22, 118.95 81.8, 188.18 1.93 M53.69 156.65 C104.36 98.37, 156.03 38.8, 188.18 1.93 M58.67 157.01 C86.44 127.18, 112.97 95.02, 193.17 2.29 M58.67 157.01 C93.2 117.71, 127.21 77.92, 193.17 2.29 M64.32 156.61 C97 115.98, 133.49 77.16, 198.81 1.9 M64.32 156.61 C101.42 113.09, 138.12 69.53, 198.81 1.9 M69.3 156.97 C96.22 126.11, 126.71 93.92, 203.8 2.26 M69.3 156.97 C104.63 118.45, 137.91 79.12, 203.8 2.26 M74.95 156.58 C106.01 118.97, 139.45 84, 209.44 1.86 M74.95 156.58 C102.21 123.73, 131.08 91.29, 209.44 1.86 M79.93 156.94 C133.77 97.86, 182.78 39.14, 214.43 2.22 M79.93 156.94 C128.27 102.46, 175.45 47.8, 214.43 2.22 M85.58 156.54 C128.04 108.51, 169.27 60.12, 220.07 1.83 M85.58 156.54 C138.97 95.42, 191.96 34.49, 220.07 1.83 M90.56 156.9 C128.1 112.35, 169.69 67.9, 225.06 2.19 M90.56 156.9 C130.86 113.11, 168.78 68.81, 225.06 2.19 M96.21 156.51 C141.69 103.58, 188.04 47.55, 230.7 1.79 M96.21 156.51 C149.66 93.93, 201.89 33.87, 230.7 1.79 M101.19 156.87 C128.5 125.37, 160.5 89.15, 235.69 2.15 M101.19 156.87 C130.5 123.86, 159.25 90.71, 235.69 2.15 M106.84 156.47 C145.29 113.12, 186.38 65.25, 241.33 1.76 M106.84 156.47 C151.38 105.36, 195.63 55.43, 241.33 1.76 M111.82 156.83 C161.3 99.96, 208.33 43.02, 246.32 2.12 M111.82 156.83 C158.52 104.4, 205.04 51.84, 246.32 2.12 M117.47 156.44 C148.31 121.85, 180.84 85.5, 251.96 1.72 M117.47 156.44 C152.06 118.19, 185.34 78.45, 251.96 1.72 M122.45 156.8 C173.79 95.77, 225.77 34.17, 256.95 2.08 M122.45 156.8 C164.91 106.25, 209.5 55.34, 256.95 2.08 M128.1 156.4 C164.58 114.01, 201.67 70.68, 262.59 1.69 M128.1 156.4 C174.07 101.37, 221.84 46.21, 262.59 1.69 M133.08 156.76 C175.7 107.01, 219.71 60.31, 267.58 2.05 M133.08 156.76 C170.22 115.23, 207.56 72.15, 267.58 2.05 M138.73 156.37 C188.66 99.81, 234.98 45.23, 272.56 2.41 M138.73 156.37 C165.35 125.75, 192.69 95.28, 272.56 2.41 M143.71 156.73 C172.08 123.37, 200.9 93.29, 278.21 2.01 M143.71 156.73 C189.07 106.81, 233.56 54.72, 278.21 2.01 M149.36 156.33 C202.82 96.56, 253.84 37.61, 283.19 2.37 M149.36 156.33 C188.78 113.09, 227.13 67.12, 283.19 2.37 M154.34 156.69 C194.47 114.33, 229.31 70.62, 288.84 1.98 M154.34 156.69 C194.46 112.11, 233.7 66.69, 288.84 1.98 M159.99 156.3 C200.22 111.03, 240.29 64.17, 293.82 2.34 M159.99 156.3 C195.1 114.56, 230.05 74.67, 293.82 2.34 M164.97 156.66 C194.53 121, 223.62 87.17, 299.47 1.94 M164.97 156.66 C192.98 125.16, 220.04 93.73, 299.47 1.94 M170.62 156.27 C196.21 125.73, 224.16 94.43, 304.45 2.3 M170.62 156.27 C211 108.36, 253 60.04, 304.45 2.3 M175.6 156.63 C207.76 119.13, 241.51 82.19, 310.1 1.91 M175.6 156.63 C222.25 101.01, 269.76 47.01, 310.1 1.91 M180.59 156.99 C210.78 118.45, 242.27 83.6, 315.08 2.27 M180.59 156.99 C231.85 97.96, 281.68 40.9, 315.08 2.27 M186.23 156.59 C219.48 117.88, 255.86 79.59, 320.73 1.88 M186.23 156.59 C222.53 113.5, 258.74 70.33, 320.73 1.88 M191.22 156.95 C234.83 107.47, 280.94 52.81, 325.71 2.24 M191.22 156.95 C235.03 105.11, 280.4 52.43, 325.71 2.24 M196.86 156.56 C231.23 118.3, 264.36 80.98, 331.36 1.84 M196.86 156.56 C246.76 101.12, 293.88 45.59, 331.36 1.84 M201.85 156.92 C232.27 119.58, 264.44 84.95, 336.34 2.2 M201.85 156.92 C231.97 122.2, 263.49 86.83, 336.34 2.2 M207.49 156.52 C252.06 103.63, 298.51 48.9, 341.99 1.81 M207.49 156.52 C238.71 119.33, 270.72 81.94, 341.99 1.81 M212.48 156.88 C247.88 116.27, 280.68 77.73, 346.97 2.17 M212.48 156.88 C245.14 122.07, 276.72 84.41, 346.97 2.17 M218.12 156.49 C266.12 102.53, 316.09 42.55, 352.62 1.77 M218.12 156.49 C268.43 96.04, 320.55 37.93, 352.62 1.77 M223.11 156.85 C273.42 101.36, 323.67 41.48, 357.6 2.13 M223.11 156.85 C259.3 112.14, 296.79 69.05, 357.6 2.13 M228.75 156.45 C260.34 121.13, 289.75 88.01, 363.25 1.74 M228.75 156.45 C271.69 107.64, 314.84 58.31, 363.25 1.74 M233.74 156.81 C273.39 111.61, 314.04 65.97, 368.23 2.1 M233.74 156.81 C264.77 119.53, 296.16 84.54, 368.23 2.1 M239.39 156.42 C287.33 105.01, 330.8 53.38, 373.88 1.7 M239.39 156.42 C271.01 123.15, 299.7 88.38, 373.88 1.7 M244.37 156.78 C271.22 124.91, 301.63 93.02, 378.86 2.06 M244.37 156.78 C286.77 108.3, 329.69 58.8, 378.86 2.06 M250.02 156.38 C281.75 119.75, 314.14 81.16, 385.82 0.16 M250.02 156.38 C294.05 108.5, 335.8 59.94, 385.82 0.16 M255 156.74 C286.58 119.77, 317.05 84, 390.15 1.27 M255 156.74 C295.99 109.59, 336.12 62.98, 390.15 1.27 M260.65 156.35 C309.15 101.54, 356.78 47.98, 395.14 1.63 M260.65 156.35 C293.01 116.94, 326.05 80.45, 395.14 1.63 M265.63 156.71 C308.63 106.09, 352.71 57.72, 399.47 2.75 M265.63 156.71 C305.29 110.48, 344.7 65.36, 399.47 2.75 M271.28 156.32 C298.38 128.01, 325.15 96.64, 403.14 4.62 M271.28 156.32 C315.37 104.49, 359.88 52.07, 403.14 4.62 M276.26 156.68 C313.72 118.8, 346.2 78.69, 406.82 6.49 M276.26 156.68 C322.61 103.47, 368.61 49.96, 406.82 6.49 M281.91 156.28 C309.56 124.3, 339.61 87.06, 409.84 9.11 M281.91 156.28 C327.06 104.07, 373.2 51.34, 409.84 9.11 M286.89 156.64 C336.37 99.26, 382.43 42.33, 412.2 12.49 M286.89 156.64 C325.66 113.22, 364.32 70.1, 412.2 12.49 M291.88 157 C337.44 103.6, 385.51 52.08, 415.22 15.12 M291.88 157 C328.04 115.18, 365.45 74.36, 415.22 15.12 M297.52 156.61 C332.41 118.11, 363.55 78.03, 416.93 19.25 M297.52 156.61 C329.59 119.53, 362.94 80.27, 416.93 19.25 M302.51 156.97 C334.03 122.29, 363.97 86.21, 417.32 24.89 M302.51 156.97 C326.41 128.03, 352.01 100.67, 417.32 24.89 M308.15 156.57 C341.09 120.23, 372.82 80.43, 417.06 31.29 M308.15 156.57 C351.42 109.3, 392.96 60.23, 417.06 31.29 M313.14 156.93 C342.1 123.26, 369.21 90.88, 417.45 36.93 M313.14 156.93 C334.58 132.09, 355.06 107.88, 417.45 36.93 M318.78 156.54 C338.99 133.38, 359.34 109, 417.19 43.33 M318.78 156.54 C347.15 124.83, 373.99 94.07, 417.19 43.33 M323.77 156.9 C345.55 135.71, 362.55 112.94, 416.93 49.73 M323.77 156.9 C344.14 135.04, 365.75 110.92, 416.93 49.73 M329.41 156.5 C363.39 117.4, 395.76 79.27, 417.32 55.37 M329.41 156.5 C360.37 120.64, 389.32 86.09, 417.32 55.37 M334.4 156.86 C355.98 134.75, 374.38 111.03, 417.06 61.77 M334.4 156.86 C354.84 132.94, 376.42 107.18, 417.06 61.77 M340.04 156.47 C355.5 137.88, 371.84 121.32, 417.46 67.41 M340.04 156.47 C366.12 125.34, 391.52 94.99, 417.46 67.41 M345.03 156.83 C361.93 140.29, 377.75 119.09, 417.2 73.81 M345.03 156.83 C370.96 128.31, 396.18 99.76, 417.2 73.81 M350.67 156.43 C367.13 138.97, 384.62 119.06, 417.59 79.45 M350.67 156.43 C374.12 130.52, 394.92 106.21, 417.59 79.45 M355.66 156.79 C376.34 136.86, 393.2 112.87, 417.33 85.85 M355.66 156.79 C379.47 128.65, 402.83 102.39, 417.33 85.85 M361.3 156.4 C378.53 136.65, 396.32 117.89, 417.72 91.49 M361.3 156.4 C381.42 132.24, 403.44 108.42, 417.72 91.49 M366.29 156.76 C382.75 138.49, 400.12 116.62, 417.46 97.89 M366.29 156.76 C381.35 138.77, 396.37 122.86, 417.46 97.89 M371.93 156.36 C385.28 138.15, 404.71 119.53, 417.2 104.29 M371.93 156.36 C383.55 145.51, 393.23 131.5, 417.2 104.29 M376.92 156.73 C387.7 142.73, 401.01 128.47, 417.6 109.93 M376.92 156.73 C388.41 144.68, 399.37 132.48, 417.6 109.93 M382.56 156.33 C396.73 140.82, 408.72 128.21, 417.33 116.33 M382.56 156.33 C391.1 146.01, 399.44 135.68, 417.33 116.33 M386.89 157.45 C393.39 146.59, 400.89 138.41, 417.73 121.97 M386.89 157.45 C395.97 146.04, 406.99 134.95, 417.73 121.97 M392.54 157.05 C400.4 147.59, 412.33 134.71, 419.44 126.11 M392.54 157.05 C401.43 147.41, 408.21 138.7, 419.44 126.11 M399.49 155.15 C405.53 148.41, 412.69 137.64, 418.52 133.26 M399.49 155.15 C405.29 146.73, 411.98 139.31, 418.52 133.26" stroke="#15aabf" stroke-width="0.5" fill="none"></path><path d="M32 0 M32 0 C148.94 -0.46, 267.62 -0.78, 384.9 0 M32 0 C103.32 -0.96, 174.28 -1.4, 384.9 0 M384.9 0 C406.39 -1.77, 418.73 12.5, 416.9 32 M384.9 0 C406.6 -1.33, 416.34 9.61, 416.9 32 M416.9 32 C418.73 56.52, 415.76 80.58, 416.9 124.21 M416.9 32 C417.97 63.45, 417.16 95.02, 416.9 124.21 M416.9 124.21 C417 146.87, 407.5 158.03, 384.9 156.21 M416.9 124.21 C419.05 146.78, 405.1 156.13, 384.9 156.21 M384.9 156.21 C273.14 155.88, 158.19 156.38, 32 156.21 M384.9 156.21 C308.79 155.57, 232.43 156.1, 32 156.21 M32 156.21 C9.39 156.73, 1.82 145.26, 0 124.21 M32 156.21 C10.92 158.36, 1.21 145.48, 0 124.21 M0 124.21 C-0.7 92.77, 2.77 62.88, 0 32 M0 124.21 C-0.73 97.52, 0.75 72.92, 0 32 M0 32 C-1.52 12.2, 10.18 -1.64, 32 0 M0 32 C-1.65 12.44, 12.6 1.53, 32 0" stroke="#e67700" stroke-width="1" fill="none"></path></g><g stroke-linecap="round" transform="translate(1843.4248151542588 310.8267775240531) rotate(0 65.69733760989106 46.34756385665196)"><path d="M3.06 9.28 C3.06 9.28, 3.06 9.28, 3.06 9.28 M3.06 9.28 C3.06 9.28, 3.06 9.28, 3.06 9.28 M0.83 17.95 C5.41 11.92, 8.3 7.25, 11.33 5.87 M0.83 17.95 C4.7 14.97, 7.35 10.64, 11.33 5.87 M0.57 24.34 C4.14 19.47, 7.31 16.74, 18.28 3.97 M0.57 24.34 C5.56 18.62, 8.16 15.37, 18.28 3.97 M0.96 29.99 C5.99 22.91, 12.47 17.68, 25.24 2.06 M0.96 29.99 C7.04 22.98, 14.53 15.38, 25.24 2.06 M0.7 36.38 C10.16 23.77, 22 13.02, 30.88 1.67 M0.7 36.38 C6.01 29.29, 12.56 22.87, 30.88 1.67 M0.44 42.78 C14.18 25.89, 26.81 12.85, 35.87 2.03 M0.44 42.78 C7.94 33.97, 14.92 25.6, 35.87 2.03 M0.83 48.42 C10.89 36.74, 19.41 26.85, 41.51 1.63 M0.83 48.42 C10.63 37.51, 20.84 26.59, 41.51 1.63 M0.57 54.82 C17.64 37.89, 32.96 16.98, 46.5 1.99 M0.57 54.82 C16.13 37.63, 31.03 19.81, 46.5 1.99 M0.97 60.47 C17.76 43.36, 31.87 23.61, 52.14 1.6 M0.97 60.47 C12.06 47.6, 23.01 34.32, 52.14 1.6 M0.7 66.86 C14.54 53.96, 26.87 38.74, 57.13 1.96 M0.7 66.86 C12.87 52.02, 27.03 35.91, 57.13 1.96 M0.44 73.26 C24.76 47.44, 45.54 19.64, 62.77 1.56 M0.44 73.26 C20.17 48.62, 40.3 26.64, 62.77 1.56 M2.81 76.64 C26.89 46.05, 51.04 17.89, 67.76 1.92 M2.81 76.64 C22.41 54.17, 43.13 30.3, 67.76 1.92 M4.51 80.77 C23.28 59.7, 44.89 37.46, 72.74 2.28 M4.51 80.77 C19.4 63.25, 35.26 45.51, 72.74 2.28 M6.22 84.91 C26.12 61.75, 42.81 40.94, 78.39 1.89 M6.22 84.91 C34.79 52.4, 63.43 18.97, 78.39 1.89 M7.93 89.04 C32.32 60.33, 56.59 30.17, 83.37 2.25 M7.93 89.04 C29.7 62.85, 52.19 38.25, 83.37 2.25 M11.6 90.91 C33.15 65.57, 56.26 42.21, 89.02 1.85 M11.6 90.91 C32.41 66.65, 53.2 43.58, 89.02 1.85 M15.28 92.78 C42.04 62.85, 70.56 33.22, 94 2.21 M15.28 92.78 C35.04 71.35, 52.57 51.08, 94 2.21 M19.61 93.89 C47.77 59.76, 79.22 24.22, 99.65 1.82 M19.61 93.89 C46.2 62.8, 73.44 33.61, 99.65 1.82 M24.59 94.26 C46.37 70.81, 65.56 49.32, 104.63 2.18 M24.59 94.26 C41.11 75.42, 58.68 54.17, 104.63 2.18 M30.24 93.86 C53.52 67.52, 78.71 37.14, 110.28 1.79 M30.24 93.86 C47.5 73.35, 66.27 51.53, 110.28 1.79 M35.22 94.22 C65.92 60.54, 92.97 27.83, 115.26 2.15 M35.22 94.22 C62.23 62.64, 89.63 29.4, 115.26 2.15 M40.87 93.83 C59.34 69.63, 81.66 48.72, 120.25 2.51 M40.87 93.83 C69.48 61.67, 96.31 28.44, 120.25 2.51 M45.85 94.19 C73.74 62.29, 101.7 34.92, 123.27 5.13 M45.85 94.19 C60.95 76.83, 77.37 58.38, 123.27 5.13 M51.5 93.79 C73.91 67.34, 95.14 44.88, 126.94 7 M51.5 93.79 C76.18 64.97, 102.96 35.1, 126.94 7 M56.48 94.15 C84.77 63.74, 112.67 29.42, 129.31 10.38 M56.48 94.15 C78.3 70.09, 99.31 45.16, 129.31 10.38 M62.13 93.76 C83.47 72.09, 102.45 48.71, 131.01 14.51 M62.13 93.76 C90.88 61.79, 116.54 30.72, 131.01 14.51 M67.11 94.12 C82.99 75.71, 95.83 62.4, 132.06 19.4 M67.11 94.12 C80.34 80.23, 93.2 64.69, 132.06 19.4 M72.76 93.72 C87.5 79.71, 99.44 63.6, 133.11 24.29 M72.76 93.72 C93.27 69.01, 115.18 43.75, 133.11 24.29 M77.74 94.08 C98.99 69.67, 117.09 48.57, 132.85 30.69 M77.74 94.08 C92.3 78.87, 104.92 62.97, 132.85 30.69 M82.73 94.44 C97.18 77.91, 110.48 65.75, 132.59 37.08 M82.73 94.44 C95.73 78.74, 109.04 64.19, 132.59 37.08 M88.37 94.05 C98.37 83.32, 108.7 71.51, 132.99 42.73 M88.37 94.05 C98.63 81.99, 108.78 70.19, 132.99 42.73 M93.36 94.41 C104.55 83.36, 113.56 70.82, 132.73 49.13 M93.36 94.41 C106.06 79.28, 118.54 64.14, 132.73 49.13 M99 94.01 C108.53 84.71, 113.79 75.81, 132.46 55.52 M99 94.01 C108.32 83.98, 116.6 73.34, 132.46 55.52 M103.99 94.37 C110.19 85.91, 118.57 78.19, 132.86 61.17 M103.99 94.37 C115.9 81.79, 126.99 66.87, 132.86 61.17 M109.63 93.98 C118.17 85.35, 124.15 78.13, 132.6 67.56 M109.63 93.98 C117.65 84.27, 125.89 74.99, 132.6 67.56 M115.93 92.83 C118.01 89.93, 121.61 84.02, 131.02 75.47 M115.93 92.83 C120.83 86.95, 124.58 81.28, 131.02 75.47" stroke="#4c6ef5" stroke-width="0.5" fill="none"></path><path d="M23.17 0 M23.17 0 C47 1.64, 69.56 -0.24, 108.22 0 M23.17 0 C41.39 -0.03, 58.28 -1.26, 108.22 0 M108.22 0 C124.89 -0.92, 131.29 6.21, 131.39 23.17 M108.22 0 C125.4 0.64, 129.27 7.68, 131.39 23.17 M131.39 23.17 C131.53 39.92, 132.57 55.41, 131.39 69.52 M131.39 23.17 C131.89 35.12, 132.39 48.3, 131.39 69.52 M131.39 69.52 C131.44 85.7, 124.17 92.65, 108.22 92.7 M131.39 69.52 C131.98 85.04, 122.31 94.91, 108.22 92.7 M108.22 92.7 C76.96 95.19, 47.27 94.21, 23.17 92.7 M108.22 92.7 C89.03 92.05, 69.14 91.74, 23.17 92.7 M23.17 92.7 C6.01 92, 1.59 84.28, 0 69.52 M23.17 92.7 C7.46 91.15, -0.75 86.42, 0 69.52 M0 69.52 C1.18 54.38, -1.1 35.99, 0 23.17 M0 69.52 C1.41 54.29, 0.91 39.1, 0 23.17 M0 23.17 C-1.43 5.81, 9.25 -1.59, 23.17 0 M0 23.17 C2.04 5.88, 6.26 2.13, 23.17 0" stroke="#000000" stroke-width="1" fill="none"></path></g><g transform="translate(1876.1221527641499 343.6743413807051) rotate(0 33 13.5)"><text x="33" y="19" font-family="Virgil, Segoe UI Emoji" font-size="21.508832651323097px" fill="#000000" text-anchor="middle" style="white-space: pre;" direction="ltr">Bridge</text></g><g transform="translate(1808.020890203918 182.51887678967705) rotate(0 104 22)"><text x="0" y="31" font-family="Virgil, Segoe UI Emoji" font-size="34.49167657738731px" fill="#000000" text-anchor="start" style="white-space: pre;" direction="ltr">Rocket.Chat</text></g><g transform="translate(1831.4486912879997 595.4238631511698) rotate(0 68.5 22.5)"><text x="0" y="32" font-family="Virgil, Segoe UI Emoji" font-size="35.64785949695485px" fill="#000000" text-anchor="start" style="white-space: pre;" direction="ltr">Synapse</text></g><g stroke-linecap="round" transform="translate(1638.9709078313135 99.61454663224845) rotate(0 278.3297353826673 161.44791259799138)"><path d="M32 0 M32 0 C176.63 1.37, 322.13 0.51, 524.66 0 M32 0 C161.7 1.41, 291.78 1.52, 524.66 0 M524.66 0 C545.1 1.38, 558.44 10.54, 556.66 32 M524.66 0 C546.35 -1.93, 557.72 12.07, 556.66 32 M556.66 32 C557.33 106.69, 556.93 183.46, 556.66 290.9 M556.66 32 C555.68 130.2, 554.92 230.13, 556.66 290.9 M556.66 290.9 C556.11 311.72, 546.37 323.54, 524.66 322.9 M556.66 290.9 C555.79 310.69, 547.64 321.82, 524.66 322.9 M524.66 322.9 C353.03 322.75, 180.48 322.81, 32 322.9 M524.66 322.9 C392.88 323.58, 261.82 323.16, 32 322.9 M32 322.9 C10.65 321.94, 1.42 314.08, 0 290.9 M32 322.9 C8.47 322.06, -0.65 311.06, 0 290.9 M0 290.9 C-1.55 238.71, -1.32 183.05, 0 32 M0 290.9 C0.8 206.91, 0.77 123.24, 0 32 M0 32 C-0.91 11.49, 9.52 -0.61, 32 0 M0 32 C0.01 10.15, 11.71 0.26, 32 0" stroke="#c92a2a" stroke-width="1" fill="none"></path></g><g stroke-linecap="round"><g transform="translate(490.7779921313018 267.7911781933144) rotate(0 -30.12941527505624 33.99949338062834)"><path d="M-1.07 -0.09 C-1.28 10.15, 8.82 50.19, -1.9 61.69 C-12.62 73.18, -54.96 67.72, -65.39 68.87 M0.56 -1.19 C0.79 8.69, 10.91 48.57, 0.3 59.94 C-10.3 71.3, -52.3 65.92, -63.07 66.99" stroke="#000000" stroke-width="1" fill="none"></path></g><g transform="translate(490.7779921313018 267.7911781933144) rotate(0 -30.12941527505624 33.99949338062834)"><path d="M-34.94 55.36 C-40.44 57.36, -47.02 61.32, -62.07 65.32 M-35.08 57.23 C-43.02 59.87, -49.96 61.33, -63.09 66.38" stroke="#000000" stroke-width="1" fill="none"></path></g><g transform="translate(490.7779921313018 267.7911781933144) rotate(0 -30.12941527505624 33.99949338062834)"><path d="M-35.13 75.88 C-40.62 72.9, -47.16 71.89, -62.07 65.32 M-35.27 77.76 C-43.24 75.02, -50.13 71.11, -63.09 66.38" stroke="#000000" stroke-width="1" fill="none"></path></g></g><mask></mask><g transform="translate(510.83933546683045 305.76511500054244) rotate(0 147.5 25)"><text x="0" y="18" font-family="Virgil, Segoe UI Emoji" font-size="20px" fill="#000000" text-anchor="start" style="white-space: pre;" direction="ltr">&gt; start a dm with </text><text x="0" y="43" font-family="Virgil, Segoe UI Emoji" font-size="20px" fill="#000000" text-anchor="start" style="white-space: pre;" direction="ltr">@debdut from bob.rocket.chat</text></g><g stroke-linecap="round"><g transform="translate(674.7528007944267 359.20078687741557) rotate(0 36.2777434671645 31.929699059285554)"><path d="M0.63 -0.37 C1.51 9.31, -7.88 46.23, 4.54 56.99 C16.96 67.74, 63.46 62.92, 75.18 64.16 M-0.49 -1.61 C0.38 7.82, -8.29 44.02, 4.16 55.2 C16.61 66.38, 62.44 63.72, 74.2 65.47" stroke="#000000" stroke-width="1" fill="none"></path></g><g transform="translate(674.7528007944267 359.20078687741557) rotate(0 36.2777434671645 31.929699059285554)"><path d="M44.93 76.15 C53.61 71.37, 59.44 68.69, 74.61 63.9 M46.18 74.37 C52.1 72.27, 57.11 69.79, 73.97 64.87" stroke="#000000" stroke-width="1" fill="none"></path></g><g transform="translate(674.7528007944267 359.20078687741557) rotate(0 36.2777434671645 31.929699059285554)"><path d="M45.92 55.65 C54.17 55.83, 59.76 58.1, 74.61 63.9 M47.17 53.87 C52.86 55.97, 57.67 57.69, 73.97 64.87" stroke="#000000" stroke-width="1" fill="none"></path></g></g><mask></mask><g transform="translate(761.1024427625523 404.2656526483886) rotate(0 137 25)"><text x="0" y="18" font-family="Virgil, Segoe UI Emoji" font-size="20px" fill="#000000" text-anchor="start" style="white-space: pre;" direction="ltr">&gt; create internal data</text><text x="0" y="43" font-family="Virgil, Segoe UI Emoji" font-size="20px" fill="#000000" text-anchor="start" style="white-space: pre;" direction="ltr">to track matrix information</text></g><g stroke-linecap="round"><g transform="translate(347.17977353571507 399.89168998437594) rotate(0 1.6274725801811838 49.37894065581111)"><path d="M0.95 -0.79 C1.09 15.56, 0.98 81.47, 0.93 98.04 M-0.02 1.41 C0.5 17.97, 2.76 83.69, 3.27 99.55" stroke="#000000" stroke-width="1" fill="none"></path></g><g transform="translate(347.17977353571507 399.89168998437594) rotate(0 1.6274725801811838 49.37894065581111)"><path d="M-9.24 70.53 C-4.58 78.59, -0.17 88.45, 3.8 98.41 M-8.72 71.32 C-2.69 81.99, 0.99 93.3, 3.68 99.97" stroke="#000000" stroke-width="1" fill="none"></path></g><g transform="translate(347.17977353571507 399.89168998437594) rotate(0 1.6274725801811838 49.37894065581111)"><path d="M11.27 69.84 C9.62 78.27, 7.71 88.35, 3.8 98.41 M11.79 70.63 C9.97 81.67, 5.81 93.24, 3.68 99.97" stroke="#000000" stroke-width="1" fill="none"></path></g></g><mask></mask><g transform="translate(65.45190426559122 403.8906004592711) rotate(0 124.5 50)"><text x="0" y="18" font-family="Virgil, Segoe UI Emoji" font-size="20px" fill="#000000" text-anchor="start" style="white-space: pre;" direction="ltr">&gt; create matrix user for</text><text x="0" y="43" font-family="Virgil, Segoe UI Emoji" font-size="20px" fill="#000000" text-anchor="start" style="white-space: pre;" direction="ltr">@aaron rocket.chat user</text><text x="0" y="68" font-family="Virgil, Segoe UI Emoji" font-size="20px" fill="#000000" text-anchor="start" style="white-space: pre;" direction="ltr">&gt; start a dm with</text><text x="0" y="93" font-family="Virgil, Segoe UI Emoji" font-size="20px" fill="#000000" text-anchor="start" style="white-space: pre;" direction="ltr">@debdut:bob.rocket.chat</text></g><g stroke-linecap="round"><g transform="translate(566.648928855995 618.5690403754606) rotate(0 556.5221336087163 -0.25542713881213785)"><path d="M-1.03 -0.08 C184.76 0.03, 927.98 -0.61, 1114.07 -0.34 M0.64 -1.16 C186.27 -0.85, 927.1 0.52, 1112.87 0.65" stroke="#000000" stroke-width="1" fill="none"></path></g><g transform="translate(566.648928855995 618.5690403754606) rotate(0 556.5221336087163 -0.25542713881213785)"><path d="M1084.54 10.07 C1090 10.17, 1100.12 4.86, 1111.06 0.42 M1084.21 10.7 C1090.98 8.34, 1096.43 6.42, 1113.53 1.58" stroke="#000000" stroke-width="1" fill="none"></path></g><g transform="translate(566.648928855995 618.5690403754606) rotate(0 556.5221336087163 -0.25542713881213785)"><path d="M1084.56 -10.45 C1089.85 -5.27, 1099.97 -5.5, 1111.06 0.42 M1084.24 -9.82 C1090.9 -7.69, 1096.35 -5.12, 1113.53 1.58" stroke="#000000" stroke-width="1" fill="none"></path></g></g><mask></mask><g stroke-linecap="round"><g transform="translate(1681.9132900535328 673.1651898260511) rotate(0 -556.1618986757973 -7.926955085664304)"><path d="M0.79 0.22 C-184.51 -2.32, -926.43 -13.29, -1112.06 -16.07 M-0.25 -0.71 C-185.7 -2.96, -928.05 -12.06, -1113.12 -14.51" stroke="#000000" stroke-width="1" fill="none"></path></g><g transform="translate(1681.9132900535328 673.1651898260511) rotate(0 -556.1618986757973 -7.926955085664304)"><path d="M-1084.43 -24.74 C-1092.6 -23.34, -1101.15 -17.75, -1111.51 -15.24 M-1084.23 -24.85 C-1092.87 -20.84, -1100.44 -18.03, -1112.38 -15.43" stroke="#000000" stroke-width="1" fill="none"></path></g><g transform="translate(1681.9132900535328 673.1651898260511) rotate(0 -556.1618986757973 -7.926955085664304)"><path d="M-1084.69 -4.22 C-1092.65 -8.5, -1101.12 -8.59, -1111.51 -15.24 M-1084.49 -4.33 C-1093.15 -6.21, -1100.65 -9.29, -1112.38 -15.43" stroke="#000000" stroke-width="1" fill="none"></path></g></g><mask></mask><g transform="translate(1032.931442440823 573.1912491292337) rotate(0 51 12.5)"><text x="0" y="18" font-family="Virgil, Segoe UI Emoji" font-size="20px" fill="#000000" text-anchor="start" style="white-space: pre;" direction="ltr">federating</text></g><g stroke-linecap="round"><g transform="translate(1908.6131076510255 535.0214120964229) rotate(0 -0.6896530226800905 -50.978713279010094)"><path d="M-0.97 1.09 C-1.16 -15.71, -2.28 -84.2, -2.14 -101.47 M0.73 0.62 C0.97 -16.44, 0.2 -86.08, 0.02 -103.05" stroke="#000000" stroke-width="1" fill="none"></path></g><g transform="translate(1908.6131076510255 535.0214120964229) rotate(0 -0.6896530226800905 -50.978713279010094)"><path d="M12.39 -76.72 C10.11 -79.63, 6.04 -89.23, 0.33 -101.09 M10.58 -74.97 C5.97 -83.79, 3.01 -94.7, -0.92 -103.88" stroke="#000000" stroke-width="1" fill="none"></path></g><g transform="translate(1908.6131076510255 535.0214120964229) rotate(0 -0.6896530226800905 -50.978713279010094)"><path d="M-8.13 -76.51 C-5.87 -79.3, -5.41 -88.94, 0.33 -101.09 M-9.94 -74.75 C-7.69 -83.78, -3.78 -94.75, -0.92 -103.88" stroke="#000000" stroke-width="1" fill="none"></path></g></g><mask></mask><g transform="translate(1930.6050196681463 469.4094198336004) rotate(0 199 25)"><text x="0" y="18" font-family="Virgil, Segoe UI Emoji" font-size="20px" fill="#000000" text-anchor="start" style="white-space: pre;" direction="ltr">&gt; room between @aaron:alice.rocket.chat</text><text x="0" y="43" font-family="Virgil, Segoe UI Emoji" font-size="20px" fill="#000000" text-anchor="start" style="white-space: pre;" direction="ltr">and @debdut:bob.rocket.chat created</text></g><g stroke-linecap="round"><g transform="translate(1986.420429890576 362.54578109567296) rotate(0 31.680622168478067 -29.710489959987058)"><path d="M-0.74 1.03 C9.25 1.05, 48.88 11.58, 59.13 0.45 C69.38 -10.68, 60.57 -54.82, 60.74 -65.73 M1.08 0.52 C10.94 0.68, 48.11 12.63, 57.91 1.73 C67.71 -9.17, 59.53 -53.92, 59.87 -64.88" stroke="#000000" stroke-width="1" fill="none"></path></g><g transform="translate(1986.420429890576 362.54578109567296) rotate(0 31.680622168478067 -29.710489959987058)"><path d="M73.91 -38.39 C68.47 -44.24, 64.97 -51.6, 59.6 -64.48 M71.93 -37.05 C68.66 -43.81, 66.77 -51.26, 59.93 -64.59" stroke="#000000" stroke-width="1" fill="none"></path></g><g transform="translate(1986.420429890576 362.54578109567296) rotate(0 31.680622168478067 -29.710489959987058)"><path d="M53.45 -36.87 C52.74 -42.94, 53.98 -50.66, 59.6 -64.48 M51.46 -35.53 C53.43 -42.64, 56.76 -50.48, 59.93 -64.59" stroke="#000000" stroke-width="1" fill="none"></path></g></g><mask></mask><g transform="translate(2069.233723580046 323.78328937079846) rotate(0 116.5 25)"><text x="0" y="18" font-family="Virgil, Segoe UI Emoji" font-size="20px" fill="#000000" text-anchor="start" style="white-space: pre;" direction="ltr">&gt; letting rocket.chat</text><text x="0" y="43" font-family="Virgil, Segoe UI Emoji" font-size="20px" fill="#000000" text-anchor="start" style="white-space: pre;" direction="ltr">know the event occured</text></g><g stroke-linecap="round"><g transform="translate(2134.1395406163697 157.92572187671817) rotate(0 25.32686581106134 21.79329929103426)"><path d="M1.16 0.75 C3.54 -2.16, 6.82 -15.43, 14.38 -16.92 C21.93 -18.42, 39.01 -15.96, 46.48 -8.23 C53.94 -0.49, 61.29 18.49, 59.16 29.48 C57.02 40.46, 41.35 53.2, 33.68 57.67 C26 62.13, 20.23 61.55, 13.09 56.28 C5.94 51.01, -5.45 31.15, -9.17 26.04 M0.31 0.1 C2.57 -2.75, 6.02 -14.17, 13.69 -15.91 C21.36 -17.66, 38.69 -17.57, 46.33 -10.39 C53.98 -3.21, 61.33 15.76, 59.56 27.19 C57.79 38.62, 43.2 53.48, 35.71 58.21 C28.22 62.94, 21.95 61.14, 14.61 55.55 C7.27 49.97, -4.2 29.79, -8.33 24.7" stroke="#000000" stroke-width="1" fill="none"></path></g><g transform="translate(2134.1395406163697 157.92572187671817) rotate(0 25.32686581106134 21.79329929103426)"><path d="M7.97 36.28 C0.54 34.17, -2.05 29.45, -7.52 24.24 M7.1 35.53 C2.09 31.75, -2.83 28.7, -8.37 24.85" stroke="#000000" stroke-width="1" fill="none"></path></g><g transform="translate(2134.1395406163697 157.92572187671817) rotate(0 25.32686581106134 21.79329929103426)"><path d="M-2.53 43.47 C-6.75 39.04, -6.1 32.11, -7.52 24.24 M-3.39 42.73 C-5 36.55, -6.52 31.17, -8.37 24.85" stroke="#000000" stroke-width="1" fill="none"></path></g></g><mask></mask><g transform="translate(2208.4871977197035 139.17930632367597) rotate(0 219.5 62.5)"><text x="0" y="18" font-family="Virgil, Segoe UI Emoji" font-size="20px" fill="#000000" text-anchor="start" style="white-space: pre;" direction="ltr">&gt; find rocket.chat user mapping</text><text x="0" y="43" font-family="Virgil, Segoe UI Emoji" font-size="20px" fill="#000000" text-anchor="start" style="white-space: pre;" direction="ltr">for @debdut:bob.rocket.chat</text><text x="0" y="68" font-family="Virgil, Segoe UI Emoji" font-size="20px" fill="#000000" text-anchor="start" style="white-space: pre;" direction="ltr">&gt; create an internal room for both</text><text x="0" y="93" font-family="Virgil, Segoe UI Emoji" font-size="20px" fill="#000000" text-anchor="start" style="white-space: pre;" direction="ltr">participants</text><text x="0" y="118" font-family="Virgil, Segoe UI Emoji" font-size="20px" fill="#000000" text-anchor="start" style="white-space: pre;" direction="ltr">&gt; and any other internal resource necessary</text></g><g transform="translate(47.857464998570435 10) rotate(0 81.5 12.5)"><text x="0" y="18" font-family="Virgil, Segoe UI Emoji" font-size="20px" fill="#000000" text-anchor="start" style="white-space: pre;" direction="ltr">alice.rocket.chat</text></g><g transform="translate(1591.3926088494377 44.88401294899268) rotate(0 75.5 12.5)"><text x="0" y="18" font-family="Virgil, Segoe UI Emoji" font-size="20px" fill="#000000" text-anchor="start" style="white-space: pre;" direction="ltr">bob.rocket.chat</text></g></svg>